<svg version="1.2" xmlns="http://www.w3.org/2000/svg" viewBox="0 0 1500 1500" width="1500" height="1500">
	<style>
		.s0 { fill: #f7f2ea } 
	</style>
	<g id="Layer 1">
	</g>
	<path class="s0" d="m954.64 1275c-0.37 0.13-0.68 0.36-1.49 1.06-1.1 0.72-1.71 0.97-2.18 1.38-9.74 8.42-19.51 16.81-29.17 25.33-2.83 2.5-5.33 5.39-7.98 8.1-1.18 1-2.35 2-4.14 3.5-1.32 0.95-2.1 1.34-2.74 1.89q-18.47 15.73-36.94 31.47c-7.45 6.35-14.99 12.6-22.37 19.03-2.88 2.51-5.44 5.38-8.14 8.09-0.36 0.15-0.68 0.36-1.52 1.03-3.37 1.91-5.66 4.01-7.5 6.6 0 0 0.08 0.03-0.35 0.12-5.47 4.33-10.48 8.58-15.53 12.8q-18.83 15.73-37.72 31.39c-5.07 4.2-10.24 8.28-15.36 12.42-1-0.02-2.01-0.03-3.95-0.11-1.87-0.18-2.79-0.29-3.72-0.4 0 0-0.06 0.08-0.11-0.35-0.85-1.4-1.51-2.57-2.48-3.31-5.89-4.5-10.91-10.03-17.21-14.06-2.83-1.82-5.28-4.24-7.88-6.42-7.79-6.53-15.54-13.1-23.36-19.59-2.1-1.74-4.41-3.21-6.63-4.81 0 0-0.02 0.05-0.22-0.32-3.14-3.52-6.12-6.63-10.05-8.6-0.28-0.31-0.58-0.6-1.34-1.43-3.79-3.5-7.1-6.48-10.45-9.4-10.24-8.89-20.5-17.76-30.75-26.66-9.43-8.19-18.84-16.43-28.3-24.59-1.42-1.23-3.1-2.16-4.65-3.23 0 0-0.02 0.04-0.22-0.33-4.25-4.61-8.47-8.65-13.81-11.27 0 0-0.03 0.08-0.12-0.34-1.67-2.12-3.18-3.89-4.84-5.49-1.68-1.62-3.52-3.07-5.27-4.62-4.91-4.37-9.79-8.78-14.75-13.11-0.93-0.81-2.15-1.3-3.24-1.94 0 0-0.01 0.02-0.22-0.34-4.03-4.07-7.69-7.94-11.7-11.43-7.37-6.41-14.87-12.68-21.87-19.53-4.7-4.61-9.73-8.88-14.67-13.25-0.77-0.69-1.81-1.07-2.73-1.59-0.17-0.37-0.42-0.67-1.24-1.42-4.65-4.62-8.79-8.78-13.03-12.82-1.03-0.98-2.43-1.58-3.66-2.35 0 0-0.01 0.03-0.21-0.31-1.32-1.01-2.44-1.68-3.56-2.35 0 0-0.03 0.09-0.09-0.35-0.15-0.64-0.21-0.86-0.34-1.02-6.61-7.8-14.52-14.23-22.14-20.97-0.44-0.39-1.16-0.47-1.76-0.7 0 0-0.03 0.09-0.1-0.34-1.44-2.02-2.69-3.74-4.2-5.18q-13.02-12.5-26.18-24.85c-1.2-1.13-2.75-1.89-4.14-2.81 0 0-0.01 0.03-0.21-0.34-9.93-10.03-19.64-19.7-29.41-29.31-1.02-1.01-2.42-1.63-3.65-2.43-4.02-4.09-8.04-8.18-12.56-12.87-1.18-2.23-2.42-3.2-4.1-3.67-0.94-1.15-1.8-2.38-2.84-3.43q-25.74-25.83-51.51-51.62c-0.76-0.75-1.58-1.43-2.9-2.76-6.65-8.22-13.63-15-20.82-21.57-0.61-0.74-1.21-1.47-2.29-2.79-2.7-3.12-4.89-5.69-7.16-8.2-11.36-12.58-22.72-25.16-34.13-37.7-2.42-2.65-5.06-5.11-7.6-7.66 0 0-0.03 0.06-0.13-0.36-1.26-1.93-2.36-3.48-3.61-4.91-3.89-4.47-7.99-8.78-11.74-13.36-10.2-12.45-20.25-25.02-30.4-37.51-1.19-1.46-2.69-2.68-4.04-4.01 0 0-0.03 0.05-0.13-0.38-1.4-2.38-2.6-4.39-4.02-6.24q-4.45-5.82-9.12-11.47c-0.92-1.12-2.19-1.96-3.29-2.92 0 0 0.01-0.35-0.17-0.92-1.13-2.84-2.82-4.39-4.95-5.52 0 0 0.06-0.31-0.11-0.9-4.97-7.21-9.75-13.86-14.59-20.46-0.47-0.66-1.28-1.06-1.94-1.58 0 0 0.03-0.38-0.14-0.99-2.11-3.67-3.95-6.79-6-9.77-4.1-5.97-8.53-11.72-12.46-17.8-6.58-10.21-12.85-20.61-19.28-30.91-12.07-19.37-23.08-39.33-33.28-59.74-7.72-15.45-15.14-31.02-21.61-47.06-7.01-17.42-12.95-35.18-18.28-53.17-3.46-11.62-5.82-23.5-8.68-35.26-1.21-4.96-2.1-9.99-3.14-14.99-0.17-0.65-0.35-1.3-0.78-2.78-0.77-5.26-1.24-9.7-1.81-14.12-0.85-6.54-1.78-13.06-2.66-19.59-0.35-2.52-0.78-5.04-0.94-7.58-0.2-3.19-0.17-6.39-0.06-9.83 0.67-1.59-0.25-2.03-1.22-2.45 0 0-0.15 0.01-0.18-0.53-0.1-9.09-0.17-17.64-0.02-26.41 0.75-1.11 0.42-1.77-0.38-2.87-1.4-7.76-0.84-15.06-0.34-22.57 2.5-2.62 2.14-5.1 0.64-8.22 0.11-6.96 0.21-13.33 0.62-19.86 1.81-1.24 1.8-2.48 0.74-4.42 0.28-6.88-0.41-13.26 2.05-19.33 0.45-1.12 0.15-2.51 0.29-3.77 0.65-5.64 1.35-11.27 2-16.92 0.31-2.71 0.55-5.42 0.82-8.14 0.38-0.96 0.75-1.92 1.36-3.74 0.84-3.77 1.4-6.69 2.09-9.58 1.57-6.61 3.22-13.19 4.84-19.79 0.61-2.47 1.15-4.96 1.89-7.39 2.47-8.12 5.27-16.14 7.47-24.33 2.27-8.46 5.81-16.44 9-24.52 6.64-16.81 13.91-33.38 23.03-49.04 5.67-9.74 11.29-19.52 17.25-29.08 4.17-6.67 8.91-12.98 13.34-19.49 1.06-1.56 1.89-3.29 2.82-4.95 0 0-0.06-0.02 0.31-0.23 1.26-1.13 2.25-1.95 3.04-2.95 7.1-9.03 14.42-17.85 22.18-26.34 11.08-12.11 22.51-23.79 35.31-34.11 2.74-2.22 5.92-4.26 7.07-7.98 0 0-0.1-0.02 0.39-0.02 1.44-0.43 2.52-0.71 3.35-1.32 3.76-2.76 7.36-5.76 11.19-8.41 9.07-6.29 17.94-12.94 27.44-18.5 12.07-7.08 23.99-14.55 37.08-19.74 1.6-0.64 3.1-1.46 3.73-3.24 0 0-0.08-0.03 0.41 0 4.64-0.4 7.97-2.51 11.07-5.09 0 0-0.04 0.04 0.48 0.08 3.54-0.89 6.6-1.71 9.55-2.83 1.07-0.41 1.86-1.56 2.77-2.37 0 0-0.07-0.07 0.47 0.06 1.39 0.02 2.27 0.03 3.07-0.2q15.66-4.47 31.3-8.99c0.81-0.24 1.65-0.51 2.35-0.95 0.51-0.32 0.82-0.95 1.21-1.44 0 0-0.07-0.07 0.52 0.07 8.97 0.04 17.07-1.98 25.25-3.41 8.18-1.44 16.3-3.27 24.68-3.13 1.06 0.02 2.16 0.03 3.19-0.21 5.46-1.28 11.02-1.02 16.55-1.04 10.24-0.02 20.48-0.04 30.72 0.03 3.4 0.02 6.81 0.32 10.4 0.78 1.37 1.69 2.59 1.52 4.42 0.38 4.41 0.17 8.28 0.01 12.06 0.54 7.98 1.12 15.92 2.63 23.88 3.93 3.35 0.55 6.76 0.8 10.07 1.53 8.3 1.82 16.52 3.82 24.67 6.37 11.59 3.62 23.14 7.19 34.23 12.19 7.95 3.58 16.03 6.88 23.88 10.65 5.94 2.84 11.7 6.11 17.41 9.4 7.18 4.15 14.49 8.15 21.28 12.88 9.42 6.56 18.42 13.71 27.56 20.65 2.37 1.8 4.71 3.66 6.91 5.66 5.37 4.84 10.63 9.81 16 14.65 1.24 1.12 2.75 1.95 4.14 2.92 0.14 0.34 0.36 0.62 1.06 1.38 1.79 2.15 3.09 3.84 4.54 5.38 5.13 5.42 10.61 10.53 15.39 16.23 7.79 9.29 15.42 18.75 22.59 28.53 7.54 10.29 14.53 21 21.62 31.61 3.19 4.78 6.05 9.78 9.09 14.65 0.79 1.26 1.61 2.53 2.62 3.61 1.87 2 4.42 1.9 6.03-0.25 1.52-2.04 3.06-4.11 4.27-6.35 5.89-10.89 13.04-20.97 19.98-31.18 11.03-16.22 23.47-31.33 36.44-46.03 0.97-1.1 1.66-2.45 2.48-3.68 0.35-0.16 0.64-0.4 1.37-1.19 2.78-2.71 5.15-4.86 7.34-7.18 8.67-9.11 18.14-17.35 27.71-25.49 3.23-2.74 6.29-5.68 9.43-8.52 0.69-0.38 1.38-0.75 2.72-1.53 1.46-1.4 2.27-2.39 3.09-3.38 0 0 0.31 0.06 0.9-0.11 3.46-2.01 6.34-3.82 9.19-5.7 6.4-4.21 12.71-8.58 19.21-12.64 5.05-3.16 10.26-6.09 15.55-8.84 8.13-4.22 16.27-8.46 24.63-12.2 8.55-3.82 17.35-7.09 26.08-10.5 2.76-1.08 5.64-1.86 8.48-2.74 2.83-0.87 5.76-1.51 8.04-3.61 0 0-0.02 0.04 0.49 0.12 3.52 0.05 6.22-1.01 8.83-2.38 0.46-0.01 0.92-0.02 2.22-0.16 2.89-0.55 5.47 0.18 6.44-2.67 0 0-0.05-0.08 0.49 0.05 3.91-0.3 7.26-0.75 10.63-1.17 6.32-0.79 12.65-1.46 18.83-3.12q1.85-0.5 3.77-0.64c6.77-0.54 13.55-1.02 20.33-1.54 1.27-0.1 2.53-0.28 3.8-0.4 3.6-0.34 7.19-0.86 10.79-0.95 17.02-0.41 34.06-0.14 51.01 1.49 9.26 0.89 18.65 0.65 27.78 3.37 7.1 2.1 14.52 3.16 21.81 4.62 15.72 3.13 30.75 8.56 45.64 14.23 14.71 5.6 28.98 12.29 42.71 20.07 2.16 1.22 4.77 1.64 7.17 2.43 0 0 0.07-0.1 0.14 0.34 1.38 1.51 2.55 2.86 4.02 3.6 6.88 3.49 12.94 8.23 19.33 12.46 18 11.92 34.54 25.63 50.07 40.57 8.61 8.28 16.83 16.9 24.79 25.82 7.82 8.75 15.11 17.92 22.16 27.26 10.53 13.94 19.56 28.9 28.32 43.99 6.74 11.6 12.81 23.58 17.9 36.03 2.58 6.3 5.39 12.51 7.97 18.82 2.74 6.7 5.63 13.36 7.92 20.22 3.63 10.9 7.04 21.89 10.1 32.96 2.31 8.4 4.62 16.82 5.92 25.48 1.48 9.88 3.31 19.7 5.05 29.54 1.59 9.02 2.67 18.07 2.69 27.25 0 1.9-0.02 3.97 0.67 5.66 1.44 3.49 1.49 7.05 1.49 10.68-0.01 16.84 0.02 33.68-0.01 50.53-0.01 2.76-0.24 5.53-0.63 8.44-1.27 0.87-1.33 1.69-0.51 3.14-0.36 5.42-0.68 10.3-1.04 15.17q-0.22 2.86-0.52 5.71-0.41 4.12-0.89 8.23c-0.32 2.74-0.62 5.48-1.05 8.2-1.31 8.39-2.62 16.79-4.03 25.17q-1.64 9.73-3.55 19.4c-0.61 3.13-1.85 6.16-2.21 9.3-0.55 4.85-2.67 9.46-2.15 14.45 0 0 0.01 0.06-0.37 0.27-2.27 2.01-1.83 4.59-2.53 6.78-2.25 7.1-4.33 14.26-6.5 21.38-0.87 2.85-1.81 5.68-2.73 8.51-2.17 6.7-5.27 13.05-7.66 19.63-5.53 15.27-12.59 29.85-19.55 44.46-4.86 10.18-10.3 20.08-15.53 30.08-11.37 21.74-24.12 42.66-37.46 63.23-1.38 2.12-2.4 4.48-3.58 6.73 0 0-0.11 0.33-0.46 0.77-3.97 4.82-7.85 9.03-9.81 14.53 0 0 0.07 0.03-0.28 0.24-2.46 2.24-4.16 4.52-4.88 7.41 0 0 0.07 0.05-0.3 0.23-4.54 4.77-8.49 9.51-11.16 15.17 0 0 0.06 0.02-0.3 0.25-4.33 4.91-8.2 9.69-11.14 15.14 0 0-0.02-0.01-0.36 0.23-1.41 1.78-2.48 3.33-3.56 4.87-0.4 0.49-0.8 0.97-1.66 1.99-4.41 4.21-7.24 8.71-9.88 13.35 0 0 0.07 0.03-0.3 0.21-2.21 1.93-4.08 3.66-4.88 6.19-0.37 0.2-0.66 0.49-1.34 1.36-1.38 1.4-2.38 2.22-3.17 3.21-6.15 7.56-12.19 15.21-18.4 22.72-5.81 7.01-11.74 13.93-17.7 20.81-6.81 7.85-13.72 15.59-20.55 23.41-0.68 0.78-1.07 1.81-1.59 2.73-0.35 0.16-0.64 0.4-1.35 1.21-4.93 5.31-9.37 10.13-13.83 14.93-7.2 7.74-14.44 15.45-21.6 23.23-1.12 1.21-1.89 2.75-2.83 4.14 0 0 0.08 0.02-0.33 0.13-2.19 1.62-4.1 3.01-5.71 4.68-8 8.25-15.82 16.67-23.88 24.85q-17.92 18.22-36.12 36.17c-13.34 13.15-26.3 26.67-40.2 39.26-12.15 10.99-23.7 22.64-35.55 33.96-6 5.73-12.16 11.3-18.11 17.08-5.65 5.47-11.12 11.13-16.67 16.7-1.16 1-2.31 2-4.07 3.5-2.07 1.68-3.63 2.79-5.02 4.07-10.15 9.3-20.29 18.6-30.36 27.99-1.68 1.56-2.99 3.53-4.46 5.31 0 0-0.47 0.11-1.04 0.42-8.67 7.51-16.79 14.68-24.83 21.92-2.05 1.84-3.87 3.93-5.79 5.91z"/>
</svg>