<svg version="1.2" xmlns="http://www.w3.org/2000/svg" viewBox="0 0 1500 1500" width="1500" height="1500">
	<style>
		.s0 { fill: #f7f2ea} 
		.s1 { fill: #f7f2ea} 
		.s2 { fill: #f7f2ea} 
		.s3 { fill: #f7f2ea} 
		.s4 { fill: #f7f2ea } 
	</style>
	<path class="s0" d="m1050.33 1418.2c-0.24-0.66-0.47-1.32-0.49-2.52 0.49-0.79 0.73-1.08 1.22-1.85 0.52-3.4 0.96-6.35 0.96-9.3q0.04-235.39 0.04-470.78c0-4.68-0.33-9.38 0.97-13.99 0.33-1.19 0.39-2.62 0.07-3.8-1.56-5.66-1.01-11.44-1.03-17.17-0.05-20.69-0.01-41.37-0.04-62.05-0.01-2.52 0.47-5.16-1.28-7.87 0-1.42 0-2.37 0.2-3.73 1.04-1.87 1.91-3.33 2.74-4.8 0.99-1.77 1.16-3.67 0.35-5.5-2.65-5.98-5.31-11.96-8.16-17.85-0.48-0.98-1.91-1.48-2.9-2.2-0.95-1.91-2.04-3.75-2.81-5.72-5.65-14.39-13.22-27.74-22.98-39.67-4.84-5.91-10.75-10.94-16.28-16.27-3.06-2.95-6.49-5.53-9.48-8.55-8.55-8.65-17.7-16.62-26.88-24.57-0.97-0.84-1.86-1.75-2.8-2.63-8.24-7.72-16.39-15.54-24.75-23.13-10.09-9.16-20.36-18.13-30.54-27.2-1.11-0.99-2.12-2.09-3.23-3.1q-12.09-10.91-24.18-21.83c-1.26-1.15-2.45-2.37-3.72-3.51q-12.33-11.14-24.67-22.26c-4.75-4.28-9.55-8.51-14.24-12.85-7.98-7.38-15.85-14.87-23.84-22.24q-14.58-13.42-29.27-26.71c-8.36-7.58-16.82-15.06-25.18-22.64-5.84-5.3-11.54-10.75-17.37-16.06-1.88-1.71-3.95-3.24-5.99-4.77-1.79-1.32-3.63-1.11-5.29 0.26-1.48 1.21-2.9 2.51-4.29 3.83-9.89 9.39-19.7 18.87-29.67 28.18-10.27 9.6-20.71 19.02-31.05 28.55q-16.69 15.38-33.33 30.81c-12.34 11.44-24.64 22.94-36.99 34.38-10.94 10.13-21.95 20.19-32.89 30.33-7.19 6.67-14.25 13.46-21.45 20.12-4.22 3.9-8.59 7.64-12.91 11.45-2.23 1.97-4.51 3.9-6.71 5.9-9.45 8.61-18.97 17.14-28.28 25.9-12.26 11.53-24.36 23.24-36.51 34.89-11.59 11.12-19.48 24.66-26.02 39.16-5.32 11.79-7.96 24.29-10.32 36.85-0.81 4.35-0.54 8.93-0.54 13.4q-0.06 83.81-0.05 167.62 0 199.93-0.01 399.85c0 6.39 0.22 12.77-1.23 19.1-1.61 7-4.44 13.42-9.17 18.77-6.63 7.5-15.13 11.32-25.13 12.42-12.56 1.37-25.13 0.87-37.69 0.9-37.32 0.08-74.64 0.06-111.96 0.03-9.4-0.01-18.82-0.66-27.91-2.84-18.09-4.35-34.49-12.2-47.91-25.53-6.67-6.62-13.23-13.29-18.34-21.25-3.7-5.77-6.54-11.92-9.4-18.12-3.25-7.03-5.13-14.42-6.58-22.7 0.72-1.53 1.22-2.22 1.66-2.94 2.34-3.83 2.47-7.65-0.19-11.38-1.43-2.02-1.77-4.27-1.75-6.67 0.04-4.05 0-8.1 0-12.15q0-300.22 0-600.44 0-3.52-0.08-7.03c-0.03-1.65-0.77-2.84-2.38-3.42-0.3-0.32-0.61-0.64-1.32-1.61-1.88-3.25-4.41-3.47-6.96-3.5-4.61-0.06-9.23-0.1-13.84 0-2.07 0.04-4.16 0.33-6.2 0.72-1.68 0.32-3.21 1.07-3.75 2.95-12.01-0.09-24.03-0.19-36.75-0.8-1.41-2.14-2.57-3.31-4.24-3.82q-4.46-1.37-8.97-2.58c-1.53-0.41-2.87 0.1-3.98 1.2-0.2-0.05-0.43-0.06-0.61-0.17-10.25-5.73-17.83-13.77-21.13-25.24-1.16-4.07-1.84-8.33-2.26-12.55-1.08-10.97 3.09-20.48 8.88-29.41 2.93-4.5 6.92-7.98 10.97-11.5 7.73-6.7 14.99-13.92 22.54-20.83 7.06-6.48 14.25-12.82 21.37-19.24 1.58-1.43 3.16-2.87 4.66-4.38 7.08-7.1 14.54-13.77 22.33-20.07 0.67-0.54 1.27-1.15 1.89-1.73 9.02-8.46 17.95-17.01 27.08-25.34 10.71-9.76 21.63-19.28 32.39-28.97 5.86-5.28 11.58-10.71 17.4-16.03 9.42-8.63 18.9-17.21 28.31-25.86 11.77-10.81 23.46-21.7 35.22-32.52 10.2-9.38 20.45-18.69 30.68-28.04 10.06-9.19 20.12-18.41 30.21-27.58q13.48-12.25 27.03-24.42c3.17-2.84 6.44-5.57 9.63-8.4 3.67-3.24 7.29-6.54 10.95-9.79q9.32-8.26 18.66-16.5c0.8-0.71 1.63-1.38 2.41-2.11 6.86-6.38 13.66-12.85 20.6-19.15 6.15-5.58 12.46-10.99 18.69-16.48q0.72-0.63 1.43-1.29c7.95-7.41 15.84-14.88 23.86-22.21 5.34-4.89 10.85-9.59 16.29-14.38 4.32-3.8 8.7-7.53 12.95-11.4 6.92-6.32 13.72-12.79 20.66-19.09 5.83-5.3 11.8-10.45 17.7-15.67 1.28-1.13 2.57-2.25 3.78-3.45 12.12-12 25.13-23.02 37.92-34.29q6.95-6.14 13.76-12.43c7.68-7.07 15.24-14.27 22.98-21.29 10.73-9.73 21.58-19.32 32.37-28.99 1.59-1.42 3.07-2.97 4.66-4.39q10.25-9.14 20.51-18.27c1.11-1 2.22-2 3.28-3.04q12.29-12.14 25.64-23.11c1.47-1.21 2.8-2.62 4.15-3.98 4.71-4.74 10.26-8.18 16.15-11.3 7.06-3.73 14.54-6.16 22.19-7.99 8.73-2.09 17.61-3.12 26.6-1.36 3.33 0.65 6.82 0.59 10.1 1.41 9.15 2.28 17.83 5.81 25.87 10.78 4.36 2.7 8.33 5.86 12.12 9.36 6.73 6.2 13.81 12.03 20.73 18.02 5.16 4.46 10.28 8.95 15.45 13.4 11.94 10.29 23.91 20.54 35.83 30.87 4.67 4.04 9.19 8.26 13.8 12.37 4.44 3.98 8.92 7.92 13.37 11.88 7.65 6.8 15.27 13.61 22.93 20.39 3.03 2.68 6.13 5.28 9.19 7.93 8.86 7.66 17.77 15.28 26.57 23.01 5.76 5.07 11.33 10.35 17.07 15.45 4.93 4.38 10 8.62 14.97 12.96 8.33 7.3 16.61 14.66 24.96 21.93 9.79 8.54 18.96 17.79 29.23 25.78 2.01 1.57 3.76 3.47 5.67 5.18 0.93 0.82 1.94 1.55 3.33 2.65 0.63-1.23 1.37-2.05 1.42-2.91 0.17-2.76 0.03-5.54 0.1-8.31 0.45-18.29 8.69-32.22 23.95-41.98 4.66-2.98 9.97-4.57 15.55-5.49 6.16-1.01 12.3-1.09 18.47-1.09 33.06 0 66.12-0.03 99.18 0.05 7.48 0.01 14.86 0.89 21.83 3.92q18.54 8.09 25.68 27.01c2.83 7.49 3.69 15.3 3.7 23.24q0.03 65.9 0.03 131.8-0.01 24.96-0.03 49.91 0.01 2.24 0.02 4.48c0 2.05 0.82 3.65 2.4 4.99q9.53 8.04 18.97 16.16c6.95 5.97 13.86 11.99 20.8 17.96 4.85 4.17 9.74 8.28 14.57 12.46 4.67 4.05 9.25 8.2 13.94 12.22 7.92 6.79 15.92 13.49 23.86 20.26 3.88 3.32 7.72 6.7 11.55 10.09 11.97 10.58 23.87 21.25 35.9 31.77 11.7 10.23 23.55 20.3 35.27 30.51 8.36 7.27 16.61 14.67 24.92 21.99 1.59 1.41 3.26 2.74 4.9 4.1 11.07 9.2 17.05 21.11 18.28 35.32 0.66 7.59-1.23 14.93-4.54 21.68-8.35 16.99-22.8 25.09-41.17 25.54-23.87 0.6-47.77 0.2-71.66 0.23-1.91 0.01-3.84 0-5.74 0.19-2.02 0.2-3.05 1.23-3.26 3.31-0.21 2.12-0.22 4.26-0.22 6.39q0 58.86 0 117.73c-0.02 162.73-0.06 325.46 0.02 488.2 0 8.56-0.76 17.04-1.71 25.48-0.85 7.61-3.35 14.97-6.07 22.16-5.86 15.55-14.28 29.6-26.14 41.27-12.3 12.11-26.5 21.25-43.2 26.44-9.25 2.88-18.56 4.19-28.19 4.84-24.29 1.64-48.59 0.67-72.89 0.86-24.1 0.2-48.2 0.1-72.3-0.04-5.74-0.03-11.61-0.1-17.17-1.3-8.4-1.82-16.32-5.08-21.6-13.48 0.56-2.73 1.18-4.52 1.68-6.35 0.86-3.14 0.31-4.65-2.45-6.4-1.59-1-3.32-1.78-4.92-2.62-0.45-1.38-0.61-2.72-1.28-3.73-0.5-0.76-1.63-1.12-2.48-1.66z"/>
	<path class="s0" d="m866.69 1379.6c0.16 4.01 0.31 7.42 0.48 10.82 0.04 0.85 0.18 1.7 0.16 2.55-0.21 7.45-0.55 14.9-0.65 22.35-0.14 10.48-3.66 19.71-10.6 27.4-5.31 5.89-12.31 9.03-20.21 9.96-7.84 0.92-15.7 1.14-23.6 1.13q-88.28-0.08-176.56 0.03c-5.35 0.01-10.66-0.31-15.9-1.23-2.49-0.43-4.96-1.26-7.3-2.25-6.86-2.89-12.09-7.78-16.55-13.67-4.49-5.93-5.21-12.92-6.08-19.89-1.31-10.39-0.93-20.85-0.93-31.29-0.01-76.12-0.07-152.25 0.09-228.37 0.03-13.2 1.1-26.37 4.72-39.22 3.52-12.46 9.26-23.8 16.73-34.3 2.71-3.81 5.57-7.56 8.73-11 2.86-3.13 6.1-5.95 9.38-8.64 5.59-4.59 11.24-9.07 17.54-12.76 12.73-7.46 26.38-11.65 40.94-13.58 6.81-0.91 13.59-0.96 20.4-0.97 16.85-0.03 33.7-0.26 50.54 0.03 14.15 0.25 28.07 2.6 41.11 8.27 16.45 7.14 30.73 17.39 41.97 31.6 4.37 5.52 8.55 11.1 11.98 17.3 3.53 6.39 6.33 12.99 8.4 19.97 1.58 5.31 3.03 10.61 3.96 16.09 1.05 6.14 1.22 12.28 1.26 18.47 0.04 7.24-0.21 14.47 0.64 21.72 0.43 3.76-0.17 7.64-0.29 11.47-0.1 2.98-0.3 5.96-0.23 8.94 0.14 5.53 0.64 11.06 0.66 16.59q0.13 39.98 0.01 79.96c-0.03 7.45-1.16 14.95-0.61 22.33 0.82 10.88 0.47 21.73 0.61 32.59 0.04 2.97-0.32 5.95-0.51 8.92-0.08 1.28-0.4 2.58-0.23 3.82 1.05 8.09-0.56 16.16-0.06 24.86z"/>
	<path class="s1" d="m120.36 719.9c1.65-0.01 2.39 1.18 2.42 2.83q0.08 3.51 0.08 7.03 0 300.22 0 600.44c0 4.05 0.04 8.1 0 12.15-0.02 2.4 0.32 4.65 1.75 6.67 2.66 3.73 2.53 7.55 0.19 11.38-0.44 0.72-0.94 1.41-1.75 2.44-1.12-4.27-2.23-8.83-2.59-13.46-0.41-5.3-0.2-10.65-0.2-15.98q-0.04-292.38-0.05-584.75c0-9.38 0.07-18.77 0.15-28.75z"/>
	<path class="s2" d="m1050.75 829.35c1.75 2.23 1.27 4.87 1.28 7.39 0.03 20.68-0.01 41.36 0.04 62.05 0.02 5.73-0.53 11.51 1.03 17.17 0.32 1.18 0.26 2.61-0.07 3.8-1.3 4.61-0.97 9.31-0.97 13.99q0 235.39-0.04 470.78c0 2.95-0.44 5.9-0.97 8.77-0.49-2.77 0.31-5.61-1.58-8.01-0.02-5.15-0.05-10.29 0.25-16.47 1.6-5.52 1.02-10.08 0.74-14.62-0.05-0.76-0.69-1.48-1.06-2.22-0.03-30.04-0.1-60.08-0.09-90.12q0.01-213.18 0.05-426.35c0-3.2 0.02-6.39 0.36-10.62 1.76-5.81 0.71-10.71 1.03-15.54z"/>
	<path class="s2" d="m1042.97 795.32c1 0.19 2.43 0.69 2.91 1.67 2.85 5.89 5.51 11.87 8.16 17.85 0.81 1.83 0.64 3.73-0.35 5.5-0.83 1.47-1.7 2.93-3 4.51-1.14-0.99-1.82-2.08-2.5-3.18-0.53-3.8-1.06-7.6-1.59-12.31-0.61-1.67-1.21-2.43-1.82-3.19-0.6-3.44-1.2-6.88-1.81-10.85z"/>
	<path class="s1" d="m88.85 717.94c0.02-1.95 1.55-2.7 3.23-3.02 2.04-0.39 4.13-0.68 6.2-0.72 4.61-0.1 9.23-0.06 13.84 0 2.55 0.03 5.08 0.25 6.72 3.27-2.15 0.67-4.46 0.97-6.78 1.1-2.1 0.12-4.21 0.09-6.31 0.05-1.47-0.04-3.03-0.59-4.4-0.26-4.06 0.98-8-0.01-12.5-0.42z"/>
	<path class="s2" d="m1050.36 1418.73c0.82 0.01 1.95 0.37 2.45 1.13 0.67 1.01 0.83 2.35 1.28 3.73 1.6 0.84 3.33 1.62 4.92 2.62 2.76 1.75 3.31 3.26 2.45 6.4-0.5 1.83-1.12 3.62-1.81 5.95-2.13-0.35-3.78-1.71-4.61-3.71-2.07-5.03-4.68-9.92-4.68-16.12z"/>
	<path class="s1" d="m34.69 712.2c0.81-1.43 2.15-1.94 3.68-1.53q4.51 1.21 8.97 2.58c1.67 0.51 2.83 1.68 3.65 3.66-5.6-0.04-11.21-0.85-16.3-4.71z"/>
	<path class="s3" d="m1048.01 822.07c0.86 0.7 1.54 1.79 2.48 3.19 0.26 1.24 0.26 2.19 0.26 3.61-0.32 5.31 0.73 10.21-1 15.42-1.54-1.43-1.3-3.55-1.37-5.62-0.17-5.4-0.37-10.79-0.37-16.6z"/>
	<path class="s3" d="m1049.16 1372.44c0.61 0.28 1.25 1 1.3 1.76 0.28 4.54 0.86 9.1-0.72 14.03-2.15-4.76-1.51-10.05-0.58-15.79z"/>
	<path class="s3" d="m1049.23 1405.7c2.13 1.99 1.33 4.83 1.53 8.04-0.19 0.86-0.43 1.15-0.92 1.59-2.09-2.84-1.6-6.02-0.61-9.63z"/>
	<path class="s4" d="m1044.78 806.55q0.91 0.57 1.8 2.29-0.91-0.56-1.8-2.29z"/>
	<g id="Layer 1">
	</g>
</svg>