<svg version="1.2" xmlns="http://www.w3.org/2000/svg" viewBox="0 0 1500 1500" width="1500" height="1500">
	<style>
		.s0 { fill: #f7f2ea} 
		.s1 { fill: #f7f2ea } 
		.s2 { fill: #f7f2ea } 
		.s3 { fill: #f7f2ea} 
	</style>
	<path class="s0" d="m980.79 178.43c0 0 0.54 0.27 0.81 0.87 0.31 2.36 0.7 4.01 1.98 5.29 5.41 5.4 10.93 10.69 16.31 16.11 2.54 2.55 5.49 4.69 8.11 7.17 4.8 4.54 9.45 9.23 14.22 13.79 3.15 3.01 8.32 3.76 9.74 8.72q4.71 4.78 9.43 9.56c2.25 2.27 4.46 4.58 6.79 6.76 2.17 2.03 4.24 4.31 6.76 5.78 3.14 1.81 3.07 5.51 5.43 7.69 5.62 5.21 11.12 10.55 16.71 15.81 1.96 1.85 4.38 2.54 7.05 2.45 0 0 0.08 0.01 0.1 0.54-0.22 3.74 0.95 6.29 3.34 8.46 5.83 5.29 10.69 11.63 17.22 16.2 0.85 0.59 1.59 1.45 2.14 2.34 2.7 4.38 6.08 8.18 9.68 11.85 3.42 3.49 6.53 7.29 9.72 11 4.57 5.33 9.09 10.7 13.63 16.05 2.48 2.92 4.98 5.82 7.43 8.76 3.41 4.08 6.84 8.15 10.18 12.28 5.75 7.12 11.4 14.33 17.18 21.42 6.73 8.24 13.69 16.3 20.32 24.62 6.76 8.48 13.32 17.13 18.99 26.42 0.88 1.45 1.94 2.8 2.99 4.14 4.17 5.38 8.6 10.58 12.51 16.14 7.47 10.62 14.65 21.45 21.96 32.18 2.52 3.7 5.58 7.12 7.54 11.09 4.46 9.01 10.68 16.88 15.81 25.45 3.6 6.01 6.76 12.27 10.47 18.21 3.61 5.76 6.86 11.76 10.33 17.62 2.16 3.65 4.21 7.42 6.76 10.79 2.59 3.43 5.01 6.78 5.35 11.22 0.02 0.19 0.19 0.38 0.31 0.55 3.52 5.13 5.56 10.99 8.21 16.54 1.74 3.65 4.06 7.07 5.38 10.85 1.49 4.3 3.84 8.05 6.08 11.91 0.96 1.64 2.14 3.1 3.3 4.59 1.16 1.47 0.91 3.98 1.48 5.97 0.34 1.21 1.06 2.32 1.6 3.47 2.25 4.81 4.82 9.5 6.62 14.47 1.22 3.37 2.1 6.86 3.57 10.18 1.64 3.69 2.99 7.51 4.32 11.32 0.97 2.8 1.5 5.77 2.61 8.51q2.88 7.1 6.29 13.96c1.16 2.35 2.13 4.62 1.98 7.28-0.15 2.64 0.71 5.01 1.79 7.38 0.87 1.91 1.43 3.98 1.99 6.02 1.16 4.29 1.83 8.77 3.43 12.89 2.79 7.16 4.62 14.43 5.9 22.03 1.01 5.99 3.65 11.72 4.36 17.88 1.81 2.62 1.8 5.62 1.72 8.62-0.07 2.6 0.6 5 1.43 7.47 1.07 3.21 1.7 6.58 2.35 9.91 0.57 2.92 0.73 5.92 1.4 8.81 0.78 3.34 1.25 6.67 1.28 10.11 0.02 2.31 0.13 4.79 0.97 6.88 1.33 3.29 1.65 6.6 1.52 10.02-0.34 8.99 1.13 17.81 2.19 26.69 0.77 6.54 1.46 13.12 1.59 19.7 0.25 12.37 0.13 24.75 0.03 37.12-0.02 3.17-0.6 6.34-0.84 9.51-0.43 5.73-0.57 11.48-2.38 17.01-0.06 0.19 0.01 0.42 0.01 0.64q-0.29 7.97-0.61 15.94c-0.05 1.27-0.01 2.6-0.37 3.8-1.34 4.46-2.83 8.88-4.35 13.61 0.01 1.96 2.52 3.81 1.12 6.35-1.63 2.93-1.57 6.16-1.49 9.37 0.07 3.02-0.15 5.97-1.72 8.66-1.67 2.85-2.19 5.93-2.18 9.22 0 1.88-0.45 3.78-0.87 5.63-0.56 2.48-1.24 4.94-1.97 7.38-0.73 2.44-1.57 4.85-2.37 7.27-0.33 1-0.89 1.98-0.98 3.01-0.48 6.03-2.57 11.52-5.31 16.83-0.58 1.12-0.75 2.44-1.27 3.6-2.37 5.24-2.69 11.06-5.07 16.37-3.37 7.56-5.56 15.57-9.61 22.93-4.08 7.41-6.38 15.82-10.61 23.12-5.22 9-8.75 18.99-15.57 27.07-0.81 0.97-1.51 2.09-2.04 3.24-3.34 7.2-8.14 13.45-12.55 19.97-2.75 4.07-6.25 7.63-8.81 11.71-3.06 4.87-6.31 9.61-9.59 14.31-2.91 4.16-6.13 8.29-9.94 11.59-4.24 3.67-7.37 8.22-11.18 12.21-6.32 6.6-11.9 13.93-18.34 20.4-9.61 9.67-18.98 19.56-29.35 28.5-6.45 5.57-13.65 10.18-19.7 16.23-2.39 2.39-5.13 4.47-7.84 6.53-5.41 4.13-10.94 8.12-16.36 12.25-2.03 1.54-3.71 3.58-5.82 4.97-7.11 4.65-14.42 9-21.51 13.68-6.39 4.22-13.13 7.96-18.99 12.97-0.79 0.68-1.77 1.26-2.76 1.57-2.5 0.79-4.53 2.28-6.59 3.83-1.69 1.27-3.59 2.27-5.48 3.26-6.4 3.36-12.85 6.64-19.25 10-5.1 2.68-10.13 5.48-15.21 8.17-2.63 1.39-5.44 2.48-7.95 4.06-5.08 3.19-10.42 5.79-16.02 7.89-1.2 0.45-2.41 0.9-3.52 1.52-6.84 3.82-13.44 8.12-21.25 9.89-1.01 0.23-2.03 0.75-2.85 1.39-3.41 2.67-7.36 4.19-11.29 5.83-2.91 1.22-6.19 1.75-8.53 4.18-0.27 0.28-0.75 0.42-1.16 0.5-7.35 1.55-13.96 5.08-20.89 7.74-2.57 0.99-4.83 2.6-7.17 4.04-2.37 1.45-5.69 1.27-8.49 2.15-4.85 1.52-9.6 3.32-14.41 4.97-3.81 1.3-7.46 2.96-11.34 4.15-6.08 1.85-11.88 4.6-17.87 6.8-3.38 1.24-6.96 1.94-10.02 4.03-0.85 0.57-2.01 0.66-3.01 1.02-7.38 2.63-15.21 4.02-22.07 8.09-0.71 0.42-1.61 0.74-2.42 0.72-3.3-0.06-6.21 1.03-9.16 2.38-3.28 1.5-6.68 2.82-10.14 3.8-6.53 1.85-13.22 3.16-19.4 6.15-0.74 0.36-1.66 0.34-2.48 0.56-2.03 0.55-4.03 1.24-6.09 1.66-4.37 0.9-8.62 2.1-12.53 4.36-0.52 0.3-1.24 0.36-1.87 0.35-5.11-0.09-9.38 2.42-13.8 4.43-5.77 2.61-11.65 3.88-18.27 1.82-0.97-1.27-1.82-2.21-2.12-3.3-0.59-2.14-2.02-2.81-4.08-3.3-0.04-0.95 0.01-1.51 0.52-2.27 2.44-1.46 2.15-3.5 2.19-5.38 0.15-7.45-0.54-14.94 1.21-22.3 0.15-0.61 0.02-1.28 0.08-1.91 0.82-9.35-1.35-18.64-0.46-27.99 0.04-0.4-0.18-0.83-0.22-1.25q-0.32-4.14-0.59-8.27c-0.48-7.65 0.88-15.29 0.08-22.96-0.15-1.44 0.33-2.94 0.53-4.42 0.2-1.47 0.64-2.95 0.6-4.42-0.27-9.14 0.98-18.33-1-27.43-0.36-1.63-0.2-3.4-0.2-5.1q-0.04-15.68 0.01-31.36c0.01-2.13 0.03-4.29 0.43-6.37 1.18-6.15 1.21-12.26 0.01-18.41-0.36-1.86-0.57-3.87-0.27-5.71 0.89-5.47-1.09-11.06 0.8-16.47 0.19-0.55-0.02-1.29-0.2-1.89-1.06-3.59-0.86-7.13 0.05-10.73 0.41-1.63 0.3-3.39 0.42-5.09 0.36-4.93-0.9-9.74-1.13-14.61-0.37-7.66-0.07-15.36-0.14-23.04-0.04-3.56 1.1-6.17 4.67-7.51 2.7-1.02 4.7-2.89 5.49-5.81 0.59-0.1 1.18-0.2 2.28 0.17 1.13 3.29 3.3 3.23 5.42 3.04 3.72-0.33 7.42-0.81 11.13-1.16 3.29-0.31 3.51-0.5 4.27-4.75 0.92-0.21 1.84-0.42 3.52-0.22 2.24 2.39 4.38 2.41 6.54 2.41 2 0 3.87-0.42 5.25-1.92 1.76-1.91 3.76-2.29 6.33-2.07 5.09 0.44 10.24 0.66 15.01-1.87 0.36-0.2 0.82-0.31 1.23-0.29 4.56 0.15 8.78-1.26 13.06-2.6 6.06-1.91 12.26-3.35 18.34-5.21 1.98-0.61 3.94-1.69 5.53-3.02 1.56-1.29 3.07-2.3 5.11-2.17 2.97 0.19 5.28-1.4 7.73-2.67 1.54-0.8 1.9-2.18 1.98-3.74 0.89-0.56 1.77-1.13 3.44-1.4 2.78 1.66 4.78 1.41 6.84 0.46 1.34-0.62 2.72-1.31 4.15-1.53 2.38-0.38 4.45-1.28 6.51-2.47 2.57-1.49 5.37-2.59 7.93-4.09 6.42-3.76 12.77-7.63 19.13-11.49 1.9-1.15 3.35-2.66 3.18-5.13 2.95-3.45 6.92-5.67 10.64-8 10.15-6.33 19.57-13.54 28.64-21.32 12.17-10.45 23.2-22.01 33.67-34.06 5.27-6.06 10.62-12.14 14.72-19.21 2.87-4.95 6.46-9.51 10.01-14.02 2.93-3.71 5.3-7.7 7.43-11.87 0.3-0.57 0.47-1.22 0.85-1.72 5.53-7.36 8.82-15.97 13.12-24.01 3.06-5.72 6.11-11.56 8.17-17.84 1.12-3.38 2.85-6.58 4.05-9.99 0.76-2.2 1.96-4.22 1.98-6.64 0-0.43 0-0.93 0.22-1.25 2.35-3.41 2.88-7.49 4.28-11.24 0.83-2.22 1.65-4.32 1.77-6.72 0.07-1.24 0.25-2.65 0.9-3.66 1.43-2.27 2-4.66 1.97-7.29-0.01-0.84-0.06-1.92 0.4-2.48 3.9-4.72 2.34-11.12 5.13-16.27 1.11-2.05 0.64-5.01 0.68-7.56 0.04-3.01 0.27-5.88 1.88-8.61 1.66-2.83 1.76-6.09 1.72-9.32-0.05-4.48-0.04-8.9 1.94-13.16 0.86-1.84 0.81-4.17 0.88-6.28 0.11-3.41-0.13-6.83-0.03-10.24 0.06-2.11 0.05-4.38 0.81-6.28 1.66-4.09 1.78-8.3 1.9-12.57 0.35-12.57 0.62-25.14 1.15-37.71 0.18-4.24 1.15-8.44 1.55-12.68 1.06-11.26 1.89-22.52-1.09-33.67-0.49-1.83-0.67-3.79-0.69-5.69-0.04-3.07-1.01-5.72-2.33-8.49-1.48-3.1-3.74-5.04-6.42-6.85-4.37-2.97-9.02-4.44-14.39-4.14-5.74 0.32-11.52 0.11-17.28 0.09-6.84-0.03-13.58 0.61-20.3 2.13-4.33 0.99-8.87 1.05-13.31 1.61-1.88 0.23-3.88 0.37-5.57 1.12-2.84 1.26-5.72 1.59-8.73 1.54-3.22-0.05-6.43-0.08-9.24 1.87-6.15 0.53-11.87 2.75-17.73 4.43-2.02 0.58-4.07 1.09-6.08 1.69-0.81 0.24-1.55 0.79-2.37 0.93-6.08 1.11-11.65 3.75-17.46 5.68-6.45 2.15-12.62 4.94-18.93 7.36-4.94 1.89-9.62 4.45-14.38 6.78-7.41 3.62-14.7 7.43-21.85 11.59-11.04 6.45-21.6 13.56-32.03 20.94-12.74 9.04-24.43 19.36-35.11 30.61-9.34 9.86-18.72 19.84-26.02 31.48-1.57 2.5-4.06 4.42-5.66 6.91-7.81 12.13-16.22 23.89-22.73 36.83-4.24 5.21-5.91 11.67-8.54 17.67-1.44 3.29-3.31 6.35-4.56 9.76-2.25 6.16-5.09 12.1-7.35 18.26-0.79 2.12-0.59 4.61-1.08 7.51-0.58 1.11-0.91 1.63-1.23 2.15-0.29 0.76-0.57 1.52-1.45 2.65-1.17-0.46-2.12-1.23-2.25-2.12-0.3-2.07-0.22-4.2-0.27-6.31-0.15-6.53-0.37-13.07-0.42-19.6-0.02-3.36 0.27-6.72 0.83-10.17 1.01-0.64 2.05-1.12 2.16-1.75 0.48-2.7 0.95-5.45 0.93-8.18-0.05-7.85-0.72-15.72-0.4-23.55 0.25-5.91 0.21-11.76-0.01-17.67-0.39-10.18-0.28-20.4-0.04-30.6 0.12-5.48 0.32-10.92 0.04-16.43-0.43-8.48-0.1-17-0.12-25.5-0.01-2.36 0.19-4.67 1.66-7.05 1.29-1.4 2.13-2.65 3.19-3.67 0.89-0.87 1.96-1.94 3.07-2.12 3.48-0.56 5.51-3.03 7.83-5.21 1.55-1.45 3.19-2.81 4.82-4.17 4.27-3.53 8.47-7.09 11.21-12.09 0.78-1.42 2.27-2.44 3.45-3.64 2.67-2.73 5.66-5.22 7.96-8.23 2.94-3.86 5.31-8.15 7.96-12.23 3.47-5.34 6.99-10.65 10.45-16 1.72-2.67 3.55-5.3 4.95-8.13 1.7-3.41 3.21-6.95 4.42-10.56 2.49-7.42 6.81-14.23 7.48-22.27 0.05-0.6 0.48-1.17 0.7-1.77 2.15-5.75 2.18-12.12 5.19-17.62 0.09-0.18 0.06-0.42 0.06-0.64-0.02-3.22 0.36-6.32 2-9.23 0.58-1.04 0.44-2.48 0.64-3.74 1.12-6.95 1.45-13.94 1.37-20.98-0.02-1.46 0.31-2.97 0.74-4.38 1.59-5.17 1.9-10.44 1.76-15.8-0.11-3.83 0.08-7.68-0.06-11.51-0.11-2.96-0.48-5.91-0.83-8.86-0.96-8.01-2.14-16-2.87-24.04-0.35-3.81-0.32-7.57-1.89-11.23-0.8-1.86-0.68-4.17-0.74-6.28-0.08-2.57-0.2-5.05-1.52-7.41-0.7-1.25-0.8-2.83-1.2-4.26-0.87-3.06-1.78-6.12-2.65-9.18-0.35-1.23-0.89-2.45-0.94-3.69-0.21-5.59-3.14-10.53-3.76-16.02-0.13-1.21-1-2.33-1.49-3.51-0.41-0.97-0.86-1.95-1.11-2.97-1.07-4.29-2.04-8.61-3.11-12.9-0.21-0.81-0.76-1.52-1.12-2.29q-1.35-2.88-2.65-5.79c-4.18-9.3-8.19-18.67-12.56-27.88-3.65-7.68-7.71-15.17-11.6-22.73-0.49-0.93-1.07-1.83-1.67-2.7-3.38-4.89-6.95-9.63-9.85-14.86-1.94-3.51-4.67-6.59-7.14-9.79-1.92-2.5-4.46-3.91-7.72-3.75-0.49-0.53-0.99-1.07-1.58-2.47-0.05-4.95-1.69-8.52-4.46-11.23-3.49-3.42-5.89-7.86-10.13-10.57-0.85-0.55-1.41-1.58-2.04-2.43-5.89-7.94-13.73-13.35-22.75-17.02-4.27-1.74-8.73-1.91-12.62 1.52-1.1 0.97-2.46 1.72-3.82 2.3-3.68 1.58-6.48 3.93-8.17 7.68-1.07 2.36-2.8 4.54-5.44 5.09-3.98 0.82-6.2 3.45-8.17 6.6-2.04 3.27-4.34 6.24-7.66 8.46-1.67 1.11-2.75 3.16-3.94 4.89-1.68 2.45-2.76 5.5-4.9 7.39-5.52 4.88-9.5 10.88-13.69 16.8-4.81 6.82-7.92 14.57-12.14 21.7-0.36 3.63-2.72 6.14-4.91 8.75-0.41 0.49-0.85 0.98-1.14 1.54-3.31 6.2-6.79 12.32-9.82 18.65-2.38 4.97-4.26 10.19-6.26 15.33-1.39 3.55-2.99 7.05-3.17 10.95-3.11 3.76-3.55 8.64-5.01 12.99-2.01 5.98-5.25 11.72-4.88 18.41 0.08 1.39-0.78 2.84-1.18 4.27-0.4 1.42-0.87 2.85-1.13 4.3-0.98 5.44-1.47 10.97-3.25 16.27-0.59 1.77-0.64 3.78-0.62 5.68 0.04 3.25-0.58 6.32-1.46 9.43-0.69 2.42-1.05 5.01-1.09 7.53-0.13 8.96-0.22 17.93 0 26.88 0.21 8.94-0.72 17.85-0.13 26.8 0.4 6.16 0.01 12.37 0.12 18.55 0.04 2.1 0.15 4.37 0.94 6.25 1.38 3.27 1.7 6.58 1.58 10.01-0.11 3.04 0.25 5.96 1.79 8.65 1.4 2.46 2.13 5.09 2.11 7.95 0 1.04 0.16 2.18 0.6 3.11 2.29 4.8 3.16 10.06 4.99 15.04 3.82 10.42 8.04 20.56 14.51 29.65 0.61 0.85 1 1.86 1.46 2.81 0.92 1.91 1.53 4.02 2.76 5.69 6.3 8.55 11.11 18.23 19.38 25.27 0.8 0.68 1.34 1.65 2.04 2.45 3.08 3.52 5.95 7.27 9.33 10.49 6.62 6.31 13.13 12.77 20.7 18.02 3.32 2.3 5.41 5.43 4.83 9.79-0.09 0.62-0.01 1.27-0.01 1.91q0 60.81-0.01 121.61c0 1.7 0.06 3.43-0.17 5.11-0.33 2.37-1.45 4.28-4.11 5.64-0.4-1.4-0.53-2.45-0.98-3.33-3.76-7.38-7.59-14.73-11.39-22.08-3.4-3.12-4.92-7.43-7.05-11.32-3.56-6.53-6.87-13.19-10.3-19.79-0.2-0.37-0.48-0.71-0.73-1.05q-8.46-11.2-16.91-22.4c-2.18-2.89-4.08-6.04-6.56-8.64-6.92-7.25-14.04-14.3-21.14-21.36-4.38-4.35-8.53-8.93-13.63-12.54-3.28-2.33-6.16-5.23-9.27-7.81-5.24-4.35-10.55-8.61-15.79-12.97-2.71-2.24-6.44-2.43-9.11-4.28-2.91-2.01-5.1-5.09-8.33-6.85-6.16-3.36-12.22-6.91-18.49-10.03-3.58-1.78-7.13-3.74-11.3-4.21-3.24-0.37-6.07-2.13-8.54-4.16-7.23-5.91-15.41-9.74-24.4-12.11-3.87-1.02-7.59-2.65-11.38-3.97-4-1.38-8.25-2.05-11.85-4.51-0.64-0.44-1.66-0.28-2.49-0.46-1.66-0.36-3.41-0.53-4.93-1.21-3.48-1.55-7.02-1.55-10.66-1.01-1.24 0.19-2.48 0.32-3.89 0.5-2.61-3.22-5.92-4.88-10.05-4.82-0.82 0.01-1.74-0.2-2.46-0.59-3.55-1.91-7.38-1.95-11.23-1.83-3.03 0.1-5.82-0.42-8.65-1.76-2.44-1.16-5.3-1.79-8.02-1.94-8.28-0.47-16.61 0.28-24.85-1.35-3.32-0.66-6.75-0.74-10.14-1.01-1.26-0.1-2.72-0.41-3.77 0.07-5.29 2.42-11.87 2.57-15.21 8.55-0.48 0.85-1.63 1.33-2.47 1.98-2.32 1.78-3.58 4.15-4.01 7.03-0.26 1.67-0.29 3.52-1.06 4.94-1.4 2.58-1.59 5.25-1.61 8.04-0.02 2.13 0 4.3-0.4 6.37-1.22 6.37-1.29 12.68 0.06 19.03 0.31 1.45 0.56 3.03 0.3 4.45-1.14 6.14-0.31 12.25 0.05 18.38 0.06 1.06 0.01 2.13 0.01 3.2q0.01 5.12 0 10.24c-0.01 2.36 0.34 4.58 1.3 6.83 0.81 1.89 1.15 4.09 1.2 6.16 0.15 5.97 0.11 11.95 0.04 17.92-0.04 3.65 0.19 7.24 1.26 10.75 1.07 3.5 1.57 7.09 1.31 10.74-0.28 3.91 0.28 7.79 1.75 11.3 1.89 4.5 2.13 9.05 2.15 13.76 0.01 2.31 0.19 4.74 0.94 6.89 0.93 2.66 1.48 5.29 1.7 8.08 0.16 2.1 0.56 4.27 1.33 6.23 1.66 4.22 2.7 8.5 2.51 13.07-0.05 1.02 0.29 2.12 0.68 3.09 1.97 4.92 2.1 10.43 4.84 15.1 0.21 0.36 0.28 0.81 0.38 1.22 1.29 5.58 2.85 11.06 5.65 16.12 0.41 0.74 0.76 1.58 0.85 2.4 0.48 4.59 3.04 8.35 4.9 12.39 0.53 1.16 1.22 2.25 1.64 3.44 1.96 5.64 4.28 11.1 7.54 16.13 0.57 0.89 1.05 1.85 1.51 2.81 3.88 8.04 7.53 16.22 13.27 23.22 0.8 0.98 1.34 2.17 1.94 3.29 2.3 4.31 4.13 8.94 6.93 12.88 5.06 7.1 9.51 14.7 16.05 20.66 0.94 0.85 1.66 1.94 2.49 2.91 4.6 5.3 9.19 10.62 13.81 15.89q4.63 5.28 9.37 10.46c1 1.09 2.06 2.18 3.25 3.05 7.39 5.42 14.54 11.13 21.07 17.58 0.75 0.75 1.6 1.43 2.5 1.98 7.07 4.32 12.47 11.06 20.43 14.1 0.37 0.15 0.67 0.53 0.98 0.82 2.85 2.62 6.21 4.43 9.62 6.21 2.25 1.17 4.35 2.63 6.53 3.92 5.13 3.04 10.2 6.18 15.41 9.05 7.08 3.9 14.52 7.05 22.03 10.04 2.17 0.86 4.12 2.25 6.27 3.14 4.71 1.95 9.48 3.76 14.23 5.6 2.77 1.08 5.47 2.65 8.34 3.09 5.97 0.91 11.33 3.57 17.04 5.18 3.3 0.93 6.53 1.91 10.01 1.81 1.46-0.04 3.18-0.02 4.36 0.68 3.35 1.99 6.94 1.91 10.56 1.81 3.47-0.09 6.75 0.49 9.97 1.84 6.28 2.66 13.15 2.92 19.68 4.57 0.2 0.05 0.42 0.01 0.63 0.01 7.56-0.03 14.58 2.85 21.9 4.08 1.89 0.32 2.91 1.77 3.07 3.64 0.16 1.91 0.17 3.83 0.17 5.75q0.01 131.21 0 262.41c0 1.71 0.05 3.42-0.12 5.12-0.28 2.97-1.46 4.11-4.47 4.39-5.41 0.52-10.6-0.45-15.67-2.35q-9.83-3.67-19.74-7.15c-2.19-0.77-4.53-1.12-6.69-1.96-8.11-3.16-16.25-6.21-24.86-7.76-0.83-0.15-1.77-0.26-2.42-0.73-4.83-3.49-10.99-3.01-16.15-5.5-1.89-0.91-3.95-1.48-5.94-2.2-3.78-1.37-7.48-3.5-11.37-3.94-5.07-0.58-9.21-3.08-13.75-4.74-1.38-0.51-2.65-1.58-4.05-1.77-5.17-0.68-9.77-2.62-14.11-5.42-1.02-0.66-2.38-0.8-3.59-1.16-4.05-1.21-8.14-2.28-12.13-3.66-4.81-1.66-9.5-3.67-14.3-5.37-2.79-0.99-5.7-2.36-8.54-2.32-3.57 0.05-5.08-2.79-7.69-3.95-3.11-1.37-6.51-2.35-9.24-4.28-3.12-2.21-6.83-2.21-10.12-3.74-3.08-1.42-5.92-3.4-9.07-4.49-5.85-2.02-11.27-4.96-16.96-7.3-2.94-1.21-6.04-2.14-8.78-3.7-3.7-2.09-7.24-4.32-11.26-5.89-4.93-1.92-9.38-5.11-14.34-6.92-3.44-1.26-6.35-3.36-9.66-4.75-3.71-1.56-7.26-3.51-10.84-5.37-1.88-0.98-3.65-2.18-5.53-3.18-6.58-3.48-13.23-6.84-19.76-10.41-3.53-1.93-7.1-3.93-10.26-6.4-3.79-2.98-7.8-5.14-12.75-5.8-2.55-4.13-6.84-6.2-10.75-8.77q-2.4-1.56-4.77-3.17c-2.1-1.44-4.14-2.97-6.29-4.33-7.33-4.66-14.99-8.72-21.75-14.34-10.47-8.7-21.45-16.78-31.93-25.49-11.15-9.27-21.88-18.95-32.36-28.93-5.23-5-9.91-10.58-15.89-14.8-1.69-1.2-2.89-3.11-4.25-4.74-5.98-7.15-11.37-14.85-18.92-20.56-0.65-0.49-1.06-1.31-1.55-2-0.98-1.38-1.91-2.8-2.92-4.17-5.93-8.05-11.84-16.11-17.83-24.12-1.77-2.38-3.63-4.73-5.7-6.86-2.65-2.72-5.91-4.92-6.16-9.26-0.05-0.73-0.89-1.41-1.34-2.13-1.12-1.81-2.26-3.6-3.33-5.44q-3.85-6.63-7.65-13.3c-3.38-5.92-6.99-11.73-10.05-17.81-3.04-6.03-6.86-11.61-8.8-18.31-1.94-6.68-6.32-12.47-8.88-19.04-1.06-2.71-2.62-5.11-3.15-8.16-0.54-3.06-1.75-6.29-3.59-8.75-1.81-2.42-2.6-4.74-2.59-7.6 0-1.26-0.28-2.55-0.63-3.76-1.94-6.72-5.57-12.9-6.33-19.99-0.02-0.21-0.14-0.41-0.25-0.59-1.35-2.04-1.66-4.32-1.77-6.71-0.06-1.24-0.54-2.47-0.89-3.69-0.58-2.02-1.23-4.04-1.83-6.06-0.67-2.24-1.02-4.64-2.05-6.7-1.21-2.4-1.46-4.82-1.59-7.4-0.13-2.3-0.24-4.76-1.11-6.83-1.03-2.46-1.31-4.87-1.45-7.44-0.14-2.53-0.18-5.22-1.06-7.53-2.34-6.12-3.04-12.36-2.79-18.83 0.09-2.31 0.08-4.86-0.8-6.91-1.67-3.9-1.87-7.87-1.68-11.91 0.42-9.24-0.45-18.31-3.02-27.2-1.22-4.2-1.23-8.47-0.34-12.67 0.58-2.8 0.58-5.41-0.05-8.19-0.81-3.57-0.67-7.19 0.24-10.78 2.33-9.13 3.43-18.39 3.17-27.83-0.14-4.91-0.09-9.82 0.01-14.72 0.04-1.9-0.03-4.01 0.74-5.64 1.94-4.06 1.9-8.29 1.76-12.54-0.16-4.99 0.81-9.72 2.44-14.41 0.76-2.17 1.23-4.52 1.36-6.81 0.23-4.24-0.37-8.56 2.12-12.42 0.32-0.5 0.42-1.24 0.38-1.85-0.31-4.38 0.85-8.4 2.61-12.34 0.6-1.34 0.96-2.87 1.07-4.33 0.26-3.64 1.09-7.08 2.22-10.57 1.16-3.57 0.69-7.62 2.86-10.99 1.34-7.56 3.71-14.83 6.46-21.98 0.13-5.66 4.45-10.16 4.43-15.87 1.83-2.99 1.63-6.63 2.94-9.67 1.44-3.33 2.94-6.53 3.7-10.12 0.61-2.88 1.71-5.67 2.82-8.41 2.23-5.49 5.41-10.63 5.94-16.73 0.05-0.6 0.45-1.19 0.75-1.75 3.73-7.17 5.79-15.11 10.04-22.05q0.51-0.82 0.8-1.74c1.75-5.46 4.32-10.53 6.79-15.7 2.91-6.11 5.97-12.19 8.6-18.41 2.92-6.89 6.92-13.16 10.01-19.94 3.33-7.32 7.64-14.2 11.42-21.33 3.49-6.58 6.54-13.39 10.74-19.57 1.68-2.47 3.44-4.88 4.95-7.43 4.23-7.15 8.11-14.51 12.54-21.53 7.15-11.34 14.64-22.47 21.95-33.71 2.08-3.2 4.07-6.47 6.07-9.72 1.23-2 2.29-4.11 3.66-6.01 3.49-4.81 7.14-9.5 10.68-14.28 4.68-6.33 9.3-12.72 14-19.04 2.03-2.74 4-5.43 5.31-8.68 0.83-2.07 2.71-3.73 4.21-5.51 1.37-1.61 3.21-2.93 4.2-4.74 1.67-3.06 3.82-5.62 6.25-8.04 1.05-1.04 2.14-2.18 2.76-3.49 1.58-3.38 4.13-5.91 6.69-8.49 1.2-1.21 2.3-2.52 3.37-3.84 4.67-5.79 9.46-11.5 13.94-17.44 3.09-4.09 6.81-7.63 9.95-11.6 6.34-8.03 12.73-15.98 19.93-23.27 0.74-0.75 1.39-1.61 2.06-2.43 5.39-6.59 10.68-13.26 16.2-19.74 2.48-2.9 5.54-5.3 8.1-8.14 1.68-1.88 3.28-3.98 4.31-6.26 1.31-2.91 4.49-3.01 6.39-5.05 7.1-7.61 13.78-15.64 21.8-22.36 0.81-0.68 1.65-1.42 2.21-2.3 3.37-5.27 8.26-9.14 12.4-13.7 4.72-5.2 9.71-10.07 14.85-14.84 5.78-5.36 11.07-11.24 16.61-16.86 0.88-0.9 1.89-1.74 2.98-2.36 3.04-1.72 5.25-4.24 7.4-6.94 1.83-2.3 4.11-4.26 6.26-6.3 1.23-1.17 2.65-2.15 3.9-3.3 5.33-4.89 10.59-9.86 15.95-14.72 3.15-2.86 7.08-5.11 9.48-8.48 2.85-3.99 6.54-6.52 10.44-9.05 0.53-0.34 0.99-0.8 1.45-1.25 4.76-4.58 9.38-9.26 14.57-13.41 5.63-4.52 10.73-9.7 16.08-14.57 0.79-0.72 1.69-1.3 2.55-1.92 3.79-2.76 7.74-5.33 11.33-8.32 4.74-3.95 9.2-8.24 13.8-12.35q1.44-1.27 3.02-2.35c9.81-6.81 19.07-14.28 28.01-22.2 4.13-3.66 8.44-7.24 13.12-10.14 5.81-3.59 11.56-7.16 16.54-11.87 0.61-0.57 1.34-1.1 2.11-1.42 3.82-1.58 6.77-4.37 9.95-6.86 1.5-1.17 3.1-2.23 4.69-3.28 2.49-1.65 5.01-3.24 7.51-4.88 8.34-5.49 15.64-12.54 24.93-16.61 0.19-0.08 0.36-0.22 0.53-0.36 5.96-4.9 12.88-8.22 19.62-11.83 4.84-2.6 9.65-5.28 14.53-7.81 1.09-0.57 2.6-1.25 3.58-0.91 4.06 1.4 7.56-0.29 11.16-1.5 2.48-0.84 4.85-0.89 7.5-0.54 3.37 0.46 5.77 2.58 8.67 3.71 6.59 2.58 12.29 6.71 18.56 9.81 2.67 1.32 5.19 2.94 7.77 4.44 2.39 1.4 4.85 2.69 7.14 4.24 9.34 6.3 18.54 12.8 27.96 18.98 6.59 4.32 13.34 8.39 19.48 13.38 1.97 1.6 4.54 2.51 6.35 4.24 5.89 5.6 12.49 10.27 18.83 15.29 3.04 2.41 5.96 4.73 9.19 5.08 1.97 2.34 3.27 4.34 5 5.84 2.89 2.52 6.07 4.68 9.07 7.06 6.34 5.02 12.7 10.01 18.56 15.62 3.22 3.08 6.54 6.27 10.35 8.46 5.25 3.01 9.46 7.18 14.03 10.95 4.27 3.51 8.16 7.51 12.57 10.83 5.3 3.98 10.55 7.95 15.01 12.88 2.16 2.39 4.7 3.59 7.94 3.16z"/>
	<path class="s1" d="m794.05 1454.66c-0.56-2.77-0.74-5.75-0.74-8.73q0-126.64-0.01-253.29c0-2.98-0.18-5.97-0.27-9.44 3.33-4.24 7.5-6.38 12.92-6.98-0.33 2.93-2.33 4.8-5.03 5.82-3.57 1.34-4.71 3.95-4.67 7.51 0.07 7.68-0.23 15.38 0.14 23.04 0.23 4.87 1.49 9.68 1.13 14.61-0.12 1.7-0.01 3.46-0.42 5.09-0.91 3.6-1.11 7.14-0.05 10.73 0.18 0.6 0.39 1.34 0.2 1.89-1.89 5.41 0.09 11-0.8 16.47-0.3 1.84-0.09 3.85 0.27 5.71 1.2 6.15 1.17 12.26-0.01 18.41-0.4 2.08-0.42 4.24-0.43 6.37q-0.05 15.68-0.01 31.36c0 1.7-0.16 3.47 0.2 5.1 1.98 9.1 0.73 18.29 1 27.43 0.04 1.47-0.4 2.95-0.6 4.42-0.2 1.48-0.68 2.98-0.53 4.42 0.8 7.67-0.56 15.31-0.08 22.96q0.27 4.13 0.59 8.27c0.04 0.42 0.26 0.85 0.22 1.25-0.89 9.35 1.28 18.64 0.46 27.99-0.06 0.63 0.07 1.3-0.08 1.91-1.75 7.36-1.06 14.85-1.21 22.3-0.04 1.88 0.25 3.92-2.19 5.38z"/>
	<path class="s2" d="m1084.03 278.02c-2.57 0.5-4.99-0.19-6.95-2.04-5.59-5.26-11.09-10.6-16.71-15.81-2.36-2.18-2.29-5.88-5.43-7.69-2.52-1.47-4.59-3.75-6.76-5.78-2.33-2.18-4.54-4.49-6.79-6.76q-4.72-4.78-9.43-9.56c-1.42-4.96-6.59-5.71-9.74-8.72-4.77-4.56-9.42-9.25-14.22-13.79-2.62-2.48-5.57-4.62-8.11-7.17-5.38-5.42-10.9-10.71-16.31-16.11-1.28-1.28-1.67-2.93-1.73-5.11 2.52-0.12 4 1.86 5.7 3.38 8.22 7.39 16.42 14.8 24.49 22.36 6.52 6.1 12.85 12.39 19.23 18.63 9.13 8.93 18.52 17.61 27.25 26.91 8.15 8.69 16.23 17.43 24.75 25.76 0.3 0.29 0.44 0.72 0.76 1.5z"/>
	<path class="s1" d="m784.73 917.06c-0.59-2.44-0.93-4.97-0.93-7.5-0.1-37.42-0.14-74.83-0.22-112.24-0.01-3.62-0.14-7.23-0.26-11.44-0.05-0.6 0.58-0.61 0.89-0.65 1.43 0.25 2.56 0.52 4.03 1.07-0.76 2.41-0.96 4.72-0.95 7.08 0.02 8.5-0.31 17.02 0.12 25.5 0.28 5.51 0.08 10.95-0.04 16.43-0.24 10.2-0.35 20.42 0.04 30.6 0.22 5.91 0.26 11.76 0.01 17.67-0.32 7.83 0.35 15.7 0.4 23.55 0.02 2.73-0.45 5.48-0.93 8.18-0.11 0.63-1.15 1.11-2.16 1.75z"/>
	<path class="s1" d="m918.63 1150.18c0.43 1.54 0.07 2.92-1.47 3.72-2.45 1.27-4.76 2.86-7.73 2.67-2.04-0.13-3.55 0.88-5.11 2.17-1.59 1.33-3.55 2.41-5.53 3.02-6.08 1.86-12.28 3.3-18.34 5.21-4.28 1.34-8.5 2.75-13.06 2.6-0.41-0.02-0.87 0.09-1.23 0.29-4.77 2.53-9.92 2.31-15.01 1.87-2.57-0.22-4.57 0.16-6.33 2.07-1.38 1.5-3.25 1.92-5.25 1.92-2.16 0-4.3-0.02-6.07-2.41 0.94-0.7 2.16-1.06 3.4-1.25 1.25-0.19 2.7 0.15 3.77-0.36 4.72-2.24 9.81-2.38 14.82-3.03 1.25-0.16 2.6-0.38 3.67-0.99 2.67-1.52 5.61-1.57 8.49-2.19 5.31-1.15 10.63-2.44 15.86-3.93 2.61-0.74 5.14-1.75 7.83-2.39 4.27-1 8.41-2.59 12.53-4.14 3.35-1.25 6.54-2.91 9.88-4.17 1.35-0.51 2.91-0.46 4.88-0.68z"/>
	<path class="s1" d="m969.87 1124.61c0.62 2.37-0.83 3.88-2.73 5.03-6.36 3.86-12.71 7.73-19.13 11.49-2.56 1.5-5.36 2.6-7.93 4.09-2.06 1.19-4.13 2.09-6.51 2.47-1.43 0.22-2.81 0.91-4.15 1.53-2.06 0.95-4.06 1.2-6.44-0.51 2.88-2.23 5.78-4.71 9.85-5.13 1.99-0.21 3.85-1.67 5.74-2.61 6.06-3.03 12.15-6.01 18.13-9.17 3.18-1.68 6.15-3.71 9.26-5.52 1.09-0.63 2.31-1.06 3.91-1.67z"/>
	<path class="s1" d="m828.99 1173.56c-0.24 4.22-0.46 4.41-3.75 4.72-3.71 0.35-7.41 0.83-11.13 1.16-2.12 0.19-4.29 0.25-4.97-3.02 4.55-0.9 9.16-1.28 13.76-1.79 1.88-0.2 3.72-0.68 6.09-1.07z"/>
	<path class="s1" d="m793.64 1465.06c-0.06-2.2-0.13-4.41-0.11-7.17 2.06-0.47 3.49 0.2 4.08 2.34 0.3 1.09 1.15 2.03 2.12 3.3 0.35 1.67 0.35 3.08 0.32 5.02-0.57 0.52-1.13 0.51-2.19 0-1.02-2.39-2.38-3.23-4.22-3.49z"/>
	<path class="s2" d="m793.5 1465.36c1.98-0.04 3.34 0.8 3.95 3.11-1.15-0.26-2.39-0.95-3.98-1.91-0.27-0.48-0.19-0.69 0.03-1.2z"/>
	<path class="s3" d="m788.47 952.5c0.14-0.41 0.47-0.93 1.07-1.46-0.11 0.44-0.5 0.89-1.07 1.46z"/>
	<g id="Layer 1">
	</g>
</svg>