<svg version="1.2" xmlns="http://www.w3.org/2000/svg" viewBox="188.00000000000003 358 824 943" width="824" height="943">
	<style>
		.s0 { fill: #213726 } 
		.s1 { fill: #ca650b } 
		.s2 { fill: #213826 } 
		.s3 { fill: #213827 } 
	</style>
	<path id="Layer copy 52" class="s0" d="m455.09 1245.81c-27.1-8.05-52.01-18.7-76.2-31.03-66.25-33.76-114.66-84.48-145.43-152.31-19.89-43.84-30.95-89.67-35.15-137.51-3.59-40.91-3.16-81.82-1.27-122.71 1.34-28.85 4.56-57.62 6.9-85.87 5.35-4.07 10.38-2.32 14.96-1.71 17.19 2.27 34.38 4.59 51.43 7.7 31.06 5.66 61.71 13.11 91.6 23.44 35.49 12.27 69 28.4 99.46 50.6 42.38 30.89 73.44 70.76 94.49 118.61 15.91 36.18 24.34 74.19 28.02 113.43 2.58 27.52 2.87 55.09 2.65 82.69-0.22 27.15-0.34 54.3-0.95 81.44-0.48 21.35-1.61 42.69-2.55 64.03-0.18 3.95-0.88 7.89-1.32 11.67-17.92 2.98-81.48-8.36-126.64-22.47z"/>
	<path id="Layer copy 55" class="s1" d="m566.99 381.55c47.47-7.2 89.98 2.13 126.58 31.84 38.66 31.37 59.6 72.35 61.14 122.53 1.25 40.7-10.37 77.34-36.22 108.98-25.8 31.59-58.74 52.15-99.38 57.16-63.47 7.84-115.61-12.92-153.23-66-23.35-32.94-33.09-69.97-29.1-109.87 7.95-79.6 63.81-132.81 130.21-144.64z"/>
	<path id="Layer copy 56" class="s2" d="m759.96 1277.52c-35.59 7.11-70.29 11.73-104.96 10.41-3.25-2.45-2.36-5.29-2.24-7.8 2.44-49.46 13.65-96.75 35.82-141.15 26.51-53.08 67.78-90.71 121.8-114.64 36.05-15.97 73.98-24.86 112.91-30.38 24.37-3.45 48.8-2.96 73.26-3.04 2.09 0 4.19 0.45 6.56 0.72 0.79 11.43-1.39 21.91-3.11 32.29-5.55 33.43-14.04 66.04-29 96.69-32.26 66.13-82.45 112.76-151.24 139.23-19.13 7.36-38.66 13.24-59.8 17.67z"/>
	<path id="Layer copy 57" class="s3" d="m798.8 742.02c38.15-14.38 76.42-23.41 116.89-25.54 0.58 2.42 1.43 4.42 1.49 6.44 1.13 39.84-3.56 78.94-15.59 117.01-12.03 38.06-32.13 71.07-61.87 97.99-11.93 10.79-25.02 19.83-39.15 27.53-28.76 15.7-59.76 24.82-91.54 31.71-4.34 0.94-8.68 1.89-13.06 2.62-5.26 0.88-10.54 1.67-15.84 2.22-7.89 0.81-15.81 1.38-24.19 2.09-0.54-1.92-1.32-3.52-1.4-5.15-2.89-53.19 3.39-104.74 28.2-152.77 16.8-32.52 39.42-60.11 70.24-80.46 14.15-9.34 29.37-16.58 45.82-23.69z"/>
	<path id="Layer copy 111" class="s0" d="m455.09 1245.81c-27.1-8.05-52.01-18.7-76.2-31.03-66.25-33.76-114.66-84.48-145.43-152.31-19.89-43.84-30.95-89.67-35.15-137.51-3.59-40.91-3.16-81.82-1.27-122.71 1.34-28.85 4.56-57.62 6.9-85.87 5.35-4.07 10.38-2.32 14.96-1.71 17.19 2.27 34.38 4.59 51.43 7.7 31.06 5.66 61.71 13.11 91.6 23.44 35.49 12.27 69 28.4 99.46 50.6 42.38 30.89 73.44 70.76 94.49 118.61 15.91 36.18 24.34 74.19 28.02 113.43 2.58 27.52 2.87 55.09 2.65 82.69-0.22 27.15-0.34 54.3-0.95 81.44-0.48 21.35-1.61 42.69-2.55 64.03-0.18 3.95-0.88 7.89-1.32 11.67-17.92 2.98-81.48-8.36-126.64-22.47z"/>
	<path id="Layer copy 114" class="s1" d="m566.99 381.55c47.47-7.2 89.98 2.13 126.58 31.84 38.66 31.37 59.6 72.35 61.14 122.53 1.25 40.7-10.37 77.34-36.22 108.98-25.8 31.59-58.74 52.15-99.38 57.16-63.47 7.84-115.61-12.92-153.23-66-23.35-32.94-33.09-69.97-29.1-109.87 7.95-79.6 63.81-132.81 130.21-144.64z"/>
	<path id="Layer copy 115" class="s2" d="m759.96 1277.52c-35.59 7.11-70.29 11.73-104.96 10.41-3.25-2.45-2.36-5.29-2.24-7.8 2.44-49.46 13.65-96.75 35.82-141.15 26.51-53.08 67.78-90.71 121.8-114.64 36.05-15.97 73.98-24.86 112.91-30.38 24.37-3.45 48.8-2.96 73.26-3.04 2.09 0 4.19 0.45 6.56 0.72 0.79 11.43-1.39 21.91-3.11 32.29-5.55 33.43-14.04 66.04-29 96.69-32.26 66.13-82.45 112.76-151.24 139.23-19.13 7.36-38.66 13.24-59.8 17.67z"/>
	<path id="Layer copy 116" class="s3" d="m798.8 742.02c38.15-14.38 76.42-23.41 116.89-25.54 0.58 2.42 1.43 4.42 1.49 6.44 1.13 39.84-3.56 78.94-15.59 117.01-12.03 38.06-32.13 71.07-61.87 97.99-11.93 10.79-25.02 19.83-39.15 27.53-28.76 15.7-59.76 24.82-91.54 31.71-4.34 0.94-8.68 1.89-13.06 2.62-5.26 0.88-10.54 1.67-15.84 2.22-7.89 0.81-15.81 1.38-24.19 2.09-0.54-1.92-1.32-3.52-1.4-5.15-2.89-53.19 3.39-104.74 28.2-152.77 16.8-32.52 39.42-60.11 70.24-80.46 14.15-9.34 29.37-16.58 45.82-23.69z"/>
	<g id="Layer 1">
	</g>
</svg>