<svg version="1.2" xmlns="http://www.w3.org/2000/svg" viewBox="188.00000000000003 358 824 943" width="824" height="943">
	<style>
		.s0 { fill: #213726 } 
		.s1 { fill: #203826 } 
		.s2 { fill: #ca650b } 
		.s3 { fill: #213826 } 
		.s4 { fill: #213827 } 
		.s5 { fill: #203825 } 
		.s6 { fill: #344536 } 
	</style>
	<path id="Layer copy 52" class="s0" d="m505.83 945.37c-17.56-5.22-33.7-12.12-49.37-20.1-42.92-21.87-74.28-54.73-94.22-98.68-12.88-28.4-20.04-58.09-22.76-89.08-2.33-26.51-2.05-53.01-0.83-79.5 0.87-18.69 2.96-37.33 4.47-55.63 3.47-2.64 6.73-1.51 9.7-1.11 11.13 1.47 22.27 2.97 33.31 4.99 20.13 3.67 39.98 8.49 59.34 15.18 23 7.95 44.71 18.4 64.44 32.78 27.46 20.02 47.58 45.85 61.21 76.85 10.31 23.44 15.78 48.06 18.16 73.48 1.67 17.83 1.86 35.69 1.71 53.57-0.14 17.59-0.21 35.18-0.61 52.76-0.31 13.83-1.04 27.66-1.65 41.48-0.12 2.57-0.57 5.12-0.86 7.56-11.61 1.94-52.78-5.41-82.04-14.55z"/>
	<path id="Layer copy 53" class="s1" d="m577.83 1113.74c-0.23 0.73-0.49 1.44-0.66 2.18-0.89 3.61-3.47 5.52-6.81 6.4-4.36 1.14-8.75 1.06-13.15-0.04-3.86-0.98-6.35-3.21-7.54-7.4-0.12-0.55-0.21-0.68-0.38-0.75-1.1-4.44-2.33-8.86-3.24-13.34-0.48-2.4-1.81-4.08-3.61-5.85-1.09-0.05-2.35-0.15-3.61-0.16q-11.47-0.01-22.94 0.02-0.96 0-1.91 0.06c-2 0.12-3.34 1.12-3.86 3.08-0.98 3.68-1.92 7.38-2.9 11.07-0.49 1.84-0.94 3.7-1.56 5.51-1.6 4.66-5 7.23-9.8 7.93-4.6 0.66-9.09 0.51-13.47-1.5-1.66-0.77-2.63-1.77-3.26-3.38-1.59-4.07-1.64-8.22-0.59-12.38 1.97-7.77 3.96-15.54 6.1-23.26 4.76-17.17 9.61-34.31 14.59-51.94 0.22-0.9 0.26-1.33 0.48-2.01 1.52-4.42 2.88-8.6 4.23-12.78 0.25-0.36 0.49-0.73 0.91-1.54 1.32-2.84 3.07-4.71 5.14-6.35 2.01-1.59 4.14-2.89 6.57-3.74 6.42-2.27 12.93-2.24 19.52-0.98 4.65 0.88 8.47 3.27 11.67 6.7 0.69 0.73 1.37 1.48 2.15 2.49 0.34 0.57 0.57 0.87 0.77 1.27 0.01 0.28 0.11 0.38 0.35 0.64 0.5 0.95 0.92 1.66 1.36 2.62 0.54 1.62 1.07 2.99 1.59 4.61 0.13 0.57 0.27 0.89 0.44 1.5 0.12 0.67 0.2 1.04 0.31 1.41 4.27 15.16 8.65 30.29 12.79 45.49 3.57 13.11 6.86 26.3 10.24 39.77 0 1.76 0.04 3.2 0.08 4.65zm-47.89-78.53c-0.18-0.33-0.32-0.71-0.56-0.99-1.34-1.54-2.64-1.45-3.54 0.32-0.46 0.9-0.78 1.88-1.05 2.86q-3.99 14.52-7.95 29.05c-0.14 0.49-0.27 0.98-0.33 1.48-0.23 1.86 0.62 2.99 2.41 3.18 0.63 0.07 1.27 0.05 1.91 0.05q6.68 0.01 13.37-0.01c0.76 0 1.53 0.02 2.28-0.08 1.63-0.21 2.51-1.26 2.3-2.9-0.18-1.38-0.54-2.74-0.91-4.09-2.56-9.44-5.15-18.88-7.93-28.87z"/>
	<path id="Layer copy 54" class="s1" d="m681.75 1012.64c-0.52 6.77-2.29 13.02-4.03 19.28-5.35 19.26-10.7 38.52-16.22 58.25-0.18 0.74-0.2 1.02-0.22 1.29-0.78 2.42-1.58 4.82-2.33 7.24-1.09 3.52-2.2 7-3.82 10.34-4.2 8.68-11.17 13.15-20.62 14.09q-10.28 1.03-19.68-3.19c-1-0.45-1.94-1.11-2.75-1.84-1.39-1.28-2.65-2.69-4.18-4.31-0.22-0.27-0.29-0.55-0.24-0.79-0.27-0.56-0.58-0.89-1.05-1.38-0.46-0.62-0.77-1.08-1.11-1.82-0.33-1.1-0.62-1.92-0.92-2.72-1.05-2.8-2.1-5.59-3.13-8.61-0.16-0.61-0.33-1.01-0.54-1.69-5.37-18.82-10.69-37.35-16.03-55.87-1.37-4.75-2.8-9.48-4.17-14.43-0.13-0.61-0.29-1.01-0.46-1.68-0.51-2.12-1.04-3.96-1.5-5.81-0.72-2.89-0.69-5.79-0.24-8.74 0.5-3.25 2.51-5.12 5.28-6.41q0.87-0.41 1.8-0.64c4.41-1.06 8.85-1.25 13.26-0.09 3.63 0.96 6.45 3.06 8.12 6.47 0.78 1.59 1.48 3.26 1.93 4.97q4.74 17.93 9.35 35.9c2.94 11.48 5.8 22.99 8.72 34.47 0.35 1.35 0.76 2.72 1.39 3.96 0.99 1.91 3.17 1.95 4.24 0.05 0.74-1.32 1.26-2.8 1.65-4.26q2.41-8.86 4.67-17.75c4.36-17.18 8.66-34.36 13.03-51.53 0.5-1.97 1.11-3.95 1.96-5.78 1.87-4 5.05-6.38 9.51-6.72 2.53-0.19 5.09-0.16 7.63-0.08 4.23 0.13 7.62 1.84 9.8 5.61 0.27 1.31 0.53 2.63 0.9 4.22z"/>
	<path id="Layer copy 55" class="s2" d="m578.33 385.46c30.75-4.67 58.29 1.38 82 20.62 25.04 20.33 38.61 46.87 39.61 79.38 0.81 26.37-6.72 50.11-23.46 70.61-16.72 20.46-38.06 33.78-64.39 37.03-41.12 5.08-74.9-8.37-99.27-42.76-15.13-21.34-21.43-45.33-18.85-71.18 5.15-51.57 41.34-86.04 84.36-93.7z"/>
	<path id="Layer copy 56" class="s3" d="m703.34 965.91c-23.06 4.61-45.54 7.6-68 6.75-2.1-1.59-1.53-3.43-1.45-5.06 1.58-32.04 8.84-62.68 23.21-91.44 17.17-34.39 43.91-58.77 78.91-74.27 23.35-10.35 47.92-16.1 73.14-19.68 15.79-2.24 31.62-1.92 47.46-1.97 1.36 0 2.72 0.29 4.25 0.47 0.52 7.4-0.89 14.19-2.01 20.91-3.6 21.66-9.1 42.79-18.79 62.65-20.9 42.84-53.41 73.04-97.98 90.19-12.39 4.77-25.04 8.58-38.74 11.45z"/>
	<path id="Layer copy 57" class="s4" d="m728.5 618.99c24.72-9.32 49.51-15.17 75.73-16.55 0.38 1.57 0.93 2.87 0.96 4.18 0.74 25.81-2.3 51.14-10.09 75.8-7.8 24.66-20.82 46.04-40.09 63.48-7.72 6.99-16.21 12.85-25.36 17.84-18.63 10.17-38.71 16.07-59.31 20.54-2.81 0.61-5.62 1.23-8.46 1.7-3.4 0.57-6.82 1.08-10.26 1.44-5.11 0.52-10.24 0.89-15.67 1.35-0.35-1.24-0.85-2.28-0.91-3.34-1.87-34.45 2.2-67.85 18.27-98.97 10.89-21.06 25.54-38.94 45.51-52.13 9.16-6.05 19.03-10.74 29.68-15.34z"/>
	<path id="Layer copy 58" class="s2" d="m672.44 1260.32c-0.14 0.86-0.28 1.72-0.5 2.83-0.42 0.26-0.77 0.26-1.36 0.33-1.38-0.06-2.5-0.18-3.82-0.32-0.08-1.07-0.22-2.06-0.23-3.05-0.04-4.33 0-8.67-0.07-13-0.02-1.39-0.21-2.79-0.48-4.15-0.42-2.08-1.88-3.29-3.82-3.89-4.01-1.25-8.54 1.5-9.3 5.65-0.2 1.12-0.19 2.28-0.19 3.43-0.03 4.08 0 8.15-0.02 12.23-0.01 0.86-0.12 1.72-0.2 2.75-1.7 0-3.18 0-4.89 0-0.14-0.7-0.41-1.4-0.41-2.11q-0.06-18.35-0.06-36.7c0-0.61 0.17-1.21 0.28-1.94 1.75-0.4 3.33-0.29 5.13-0.07 0.42 2.58 0.19 4.99 0.24 7.38 0.05 2.39 0.01 4.79 0.01 7.08 0.97 0.48 1.4-0.1 1.85-0.48 4.32-3.65 11.17-3.39 15.22 0.75 0.23 0.16 0.27 0.26 0.41 0.56 1.75 2.4 1.62 5.01 2.24 7.41-0.08 2.63-0.15 5.26-0.18 8.52 0.08 2.68 0.11 4.74 0.15 6.79z"/>
	<path id="Layer copy 59" class="s2" d="m770.95 1263.42c-1.66 0.02-3.04-0.1-4.41-0.21-0.3-0.75-0.55-1.39-0.87-2.21-1 0.64-1.82 1.21-2.69 1.7-3.32 1.91-6.8 2-10.29 0.63-3.26-1.28-5.01-3.83-5.24-7.32-0.23-3.46 1.06-6.21 4.14-7.99 2.97-1.71 6.29-1.89 9.59-2.13 1.5-0.11 3.04 0.17 4.46-0.33 0.43-3.67-0.16-5.17-2.37-6.26-2.41-1.18-5.97-0.79-7.9 0.96-0.74 0.68-1.33 1.51-2.05 2.35-1.13-0.36-2.21-0.68-3.27-1.06-0.35-0.12-0.64-0.39-1.14-0.7 0.9-3.36 3.29-5.24 6.36-6.36 1.3-0.48 2.73-0.61 4.38-0.98 1.66 0.15 3.06 0.24 4.38 0.6 4.14 1.12 6.8 3.73 7.51 8.04 0.28 1.73 0.29 3.51 0.49 5.58 0.02 4.48-0.02 8.63-0.11 12.78-0.02 0.97 0.32 2.05-0.97 2.91zm-6.87-6.26c1.79-1.88 2.33-4.07 1.73-6.78-2.77-0.27-5.4-0.26-8.02 0.19-0.85 0.15-1.71 0.52-2.47 0.95-2.15 1.21-2.79 3.83-1.52 5.91 0.79 1.29 2.05 1.85 3.48 2.03 2.39 0.3 4.52-0.35 6.8-2.3z"/>
	<path id="Layer copy 68" class="s3" d="m868.5 1067.06c-3.67 3.17-7.67 5.86-12.35 7.95 0.5 0.88 0.81 1.52 1.2 2.11q9.26 13.61 18.55 27.19c2 2.93 3.17 6.05 2.95 9.68-0.24 3.74-2.03 6.34-5.49 7.53-2.01 0.7-4.22 0.86-6.35 1.21-2.82 0.46-5.63 0.16-8.38-0.36-4.42-0.84-8.16-2.91-10.63-6.85-1.49-2.37-2.93-4.78-4.39-7.17q-7.05-11.62-14.11-23.22c-0.66-1.08-1.41-2.12-2.19-3.13-1.08-1.43-2.63-2-4.36-2.01-2.55-0.03-4.26 1.18-4.2 3.82 0.03 1.66-0.03 3.32-0.03 4.98 0 7.02 0.02 14.04-0.01 21.06 0 1.14-0.13 2.29-0.33 3.41-0.92 5.14-4.25 8.49-9.42 9.12-2.64 0.32-5.36 0.34-8.01 0.11-6.05-0.52-9.7-4.29-10.32-10.37-0.11-1.14-0.11-2.3-0.11-3.44q-0.02-41.17-0.02-82.34c0-3.06 0.06-6.11 0.8-9.13 2.13-8.75 8.02-13.83 17.08-14.25 7.27-0.33 14.55-0.45 21.82-0.5q6.32-0.03 12.62 0.45c5.39 0.4 10.51 1.9 15.36 4.32 11.35 5.66 17.43 15.01 18.91 27.39 0.73 6.1 0.58 12.24-1.03 18.25-1.37 5.14-3.76 9.73-7.37 14-0.03 0.33-0.19 0.19-0.19 0.19zm-49.71-14.18c0.36 3.87 0.95 4.53 4.54 4.59 3.44 0.06 6.88 0.1 10.32-0.06 9.02-0.41 14.61-6.13 14.89-15.08 0.21-6.6-3.34-12.01-9.33-13.78-5.47-1.61-11.12-1.12-16.7-0.79-2.45 0.15-3.75 2.19-3.71 4.15 0.02 1.02-0.06 2.04-0.06 3.05 0.01 5.74 0.03 11.47 0.05 17.92z"/>
	<path id="Layer copy 69" class="s3" d="m974.48 1036.59c4.37 15.91 8.72 31.5 12.95 47.12 2.07 7.63 3.92 15.31 5.81 22.99 0.65 2.62 0.81 5.3 0.36 7.98-0.58 3.45-2.74 7.02-7.72 7.9-3.43 0.6-6.83 0.84-10.27 0.23q-8.2-1.46-10.32-9.5c-1.07-4.07-2.08-8.15-3.11-12.23-0.19-0.74-0.35-1.49-0.56-2.23-0.91-3.23-1.81-3.97-5.07-4.03-2.17-0.05-4.34-0.02-6.51-0.02q-8.43 0-16.85 0-1.53 0.01-3.07 0.05c-1.88 0.05-3.15 1.06-3.75 2.75-0.65 1.8-1.11 3.66-1.59 5.51-0.84 3.21-1.56 6.45-2.47 9.63-0.46 1.58-1.09 3.15-1.92 4.56-1.49 2.52-3.82 4.15-6.63 4.85-3.88 0.96-7.82 1.2-11.76 0.25-4.64-1.13-7.66-4.69-8-9.55-0.25-3.35 0.34-6.62 1.21-9.83 3.27-12.06 6.49-24.13 9.88-36.15 4.15-14.72 8.43-29.41 12.73-44.09 0.78-2.68 1.72-5.35 2.93-7.86 3.74-7.78 10.05-11.93 18.6-12.87 4.61-0.5 9.17-0.4 13.67 0.76 6.72 1.72 11.61 5.76 14.53 12.01 1.24 2.64 2.14 5.46 3.01 8.25 1.37 4.38 2.58 8.81 3.92 13.52zm-40.1 25.38c-0.53 1.96-1.12 3.91-1.57 5.9-0.38 1.69 0.61 3.02 2.31 3.22 0.88 0.1 1.78 0.08 2.67 0.08q5.54-0.02 11.08-0.06c1.27 0 2.55 0.03 3.82-0.07 1.35-0.11 2.36-1.26 2.21-2.61-0.12-1.13-0.41-2.25-0.71-3.36q-3.68-13.82-7.42-27.63c-0.29-1.09-0.7-2.19-1.24-3.18-0.68-1.27-2.4-1.26-3.09 0.03-0.53 1-0.91 2.1-1.22 3.2-2.25 7.95-4.46 15.91-6.84 24.48z"/>
	<path id="Layer copy 70" class="s3" d="m301.07 1122.56c-3.86 0.82-7.38 0.89-10.93 0.03-4.65-1.12-7.65-3.93-8.92-8.51-1.13-4.05-2.14-8.13-3.22-12.2-0.4-1.47-0.77-2.97-1.32-4.39-0.65-1.68-1.95-2.63-3.82-2.66q-1.34-0.04-2.68-0.05-11.3 0-22.6 0.01-0.57-0.01-1.15 0.01c-3.15 0.13-4.24 0.93-5.08 4.11-1.05 3.94-1.97 7.92-2.94 11.88-0.28 1.11-0.49 2.24-0.82 3.34-1.48 4.92-4.9 7.62-9.89 8.37-2.92 0.44-5.86 0.42-8.78-0.02-5.68-0.84-8.86-4.33-9.1-10.04-0.16-3.61 0.46-7.11 1.41-10.58 4.81-17.58 9.56-35.18 14.4-52.75 2.47-8.97 5.06-17.91 7.65-26.85 0.6-2.08 1.29-4.14 2.12-6.13 3.03-7.19 8.3-11.83 15.96-13.55 5.82-1.31 11.67-1.3 17.43 0.29 6.5 1.79 11.34 5.71 14.14 11.91 1.1 2.43 2.11 4.93 2.83 7.5q10.24 36.64 20.34 73.32c1.18 4.3 2.12 8.67 3.14 13.01 0.5 2.15 0.34 4.27-0.13 6.44-0.77 3.58-2.81 5.92-6.25 7.07-0.48 0.16-0.98 0.26-1.79 0.44zm-40.32-88.54c-1.87-1.05-2.65-0.97-3.32 0.54q-0.86 1.92-1.4 3.95-3.73 13.81-7.4 27.63-0.3 1.11-0.38 2.26c-0.08 1.47 0.73 2.63 2.13 2.64q8.98 0.11 17.95 0c1.16-0.01 2.09-1.22 2.03-2.36-0.04-0.63-0.22-1.25-0.38-1.86-1.79-6.89-3.55-13.79-5.42-20.66-1.06-3.92-2.31-7.8-3.81-12.14z"/>
	<path id="Layer copy 71" class="s4" d="m746.94 1075.01c-5.61 0-10.84-0.01-16.07 0.02-1.26 0.01-2.56 0.06-3.79 0.34-2.33 0.53-3.8 2.19-3.88 4.58-0.11 3.44-0.15 6.89 0.06 10.32 0.21 3.47 2.2 5.23 5.71 5.43 1.53 0.09 3.06 0.06 4.59 0.06 8.42-0.01 16.84-0.03 25.26-0.01q2.1 0.01 4.18 0.34c3.64 0.56 5.91 2.82 7.17 6.14 1.72 4.5 1.43 9.04-0.18 13.47-1.3 3.59-4.24 5.31-7.83 5.95-1.36 0.24-2.79 0.2-4.19 0.21q-20.1 0.05-40.19 0.04c-3.06 0-6.16 0.14-9.09-0.92-2.26-0.82-4.58-1.59-6.66-2.75-2.05-1.14-2.95-3.41-3.85-5.47-1.39-3.16-2.25-6.51-2.51-9.97-0.28-3.56-0.54-7.13-0.55-10.69q-0.07-26.61-0.02-53.21c0.01-6.12 0.29-12.24 1.27-18.3 0.56-3.44 1.71-6.64 3.69-9.54 2.92-4.29 7.09-6.52 12.08-7.29 2.63-0.4 5.32-0.64 7.99-0.65 12.5-0.06 25.01-0.04 37.51 0 1.52 0 3.05 0.19 4.56 0.41 3.79 0.54 6.24 2.85 7.49 6.31 1.62 4.47 1.45 9.07 0.05 13.55-0.93 2.97-3.24 4.86-6.25 5.61-1.83 0.46-3.77 0.64-5.67 0.65-8.42 0.07-16.84 0.03-25.26 0.03-1.02 0-2.04-0.01-3.06 0.04-3.99 0.2-5.83 2.38-6.12 5.59-0.33 3.67-0.27 7.4-0.06 11.08 0.16 2.71 1.74 3.95 4.57 4.2 1.26 0.11 2.54 0.1 3.82 0.11 6.38 0.01 12.76-0.02 19.14 0.02q2.49 0.01 4.95 0.33c4.03 0.53 6.32 3.06 7.28 6.83q1.09 4.31 0.18 8.72c-1.06 5.23-4.06 7.97-9.43 8.33-2.16 0.15-4.34 0.07-6.89 0.09z"/>
	<path id="Layer copy 72" class="s1" d="m477.12 1008.93c0.29 0.59 0.38 1.02 0.61 1.81 0.27 0.74 0.38 1.13 0.5 1.52 0.04 0.78 0.08 1.55 0.23 2.59-0.29 3.31 0.02 6.46-1.69 9.35-0.7-0.07-1.14-0.32-1.38-0.19-0.55 0.29-1.09 0.7-1.48 1.18-2.03 2.5-4.65 3.37-7.81 3.07-1.39-0.14-2.8-0.02-4.2-0.02-3.19 0-6.38 0.11-9.56-0.03-3.8-0.15-6.75 3.15-6.39 6.52 0.03 0.25 0 0.51 0 0.77q0 38.24 0.01 76.48c0 0.76-0.04 1.54 0.09 2.29 0.1 0.6 0.43 1.17 0.66 1.75-0.46 0.82-0.93 1.64-1.88 2.56-0.84 0.11-1.21 0.04-1.55 0.11-0.84 0.18-0.89 0.47-0.33 1.48-0.36 0.31-0.71 0.62-1.49 0.85-0.57-0.07-0.71-0.06-0.97-0.22-0.42-0.19-0.86-0.35-0.99-0.21-0.41 0.43-0.1 0.79 0.2 1.21-0.1 0.13-0.22 0.43-0.22 0.43-0.73 0.08-1.46 0.16-2.53-0.09-2.07-1.94-3.99-1.3-5.87-0.77-0.22 0.07-0.31 0.64-0.46 0.98-0.87-0.14-1.74-0.28-2.84-0.84-0.25-1.25-0.54-1.91-1.33-2.27-1.67-0.75-2.97-1.86-3.92-3.49-0.31-0.52-1.28-0.66-1.94-0.97-0.16-0.29-0.32-0.58-0.16-1.3 1.39-1.62 0.98-3.09 0.98-4.45q0.03-36.09 0.02-72.18 0.01-1.34-0.09-2.67c-0.07-0.94-0.77-1.21-1.58-1.3-0.21-0.38-0.42-0.75-0.47-1.51 0.1-0.83 0.2-1.46-0.06-1.71-1.04-0.97-2.33-1.45-3.78-1.43q-2.84 0.01-5.67 0-4.35 0.01-8.69 0.01c-1.02 0-1.69 0.39-1.87 1.45-0.44 0-0.87 0-1.49-0.42-1.36-2.52-1.81-2.69-4.24-1.92 0 0-0.18-0.1-0.09-0.46 0.2-1.58-0.65-1.58-1.48-1.6-0.35-0.66-0.7-1.31-0.81-2.24 0.44-0.51 0.84-0.78 0.81-0.98-0.12-0.78-0.82-0.6-1.36-0.65-0.96-2.05-0.48-4.21-0.19-6.71 1.35-1.43 1.35-1.43 0.33-2.6-0.04-2.39 1.3-4.14 3.29-5.96 4.58-1.39 8.68-2.02 12.92-1.71 1.64 0.12 3.29 0.13 4.93 0.27 1.38 0.12 2.75 0.48 4.13 0.49 9.03 0.05 18.06 0.03 27.09 0.02 0.89 0 1.85 0.14 2.65-0.15 2.36-0.84 4.77-0.6 7.17-0.62q5.92-0.03 11.83 0c1.9 0.01 3.81-0.19 5.64 0.59 0.65 0.27 1.23-0.1 1.66-0.63 2.32 0.68 3.7 2.42 5.11 4.52z"/>
	<path id="Layer copy 73" class="s5" d="m392.84 1119.87c-0.12-0.02-0.28-0.12-0.36-0.07-3.18 1.9-6.66 2.08-10.25 2.06-12.08-0.08-24.16-0.04-36.24-0.04q-2.1 0.01-4.19-0.03c-4.71-0.13-8.66-1.78-11.39-6.1 0.67-1.77-0.22-2.86-0.59-4.02-1.2-3.77-1.91-7.58-1.9-11.57 0.05-27.11 0.02-54.21 0.03-81.32 0-2.41-0.1-4.8 0.67-7.17 0.51-1.55 0.61-3.22 0.89-4.84 0.35-0.46 0.71-0.93 1.6-1.46 2.16-0.34 3.81-0.49 5.39-0.9 2.74-0.72 5.43-1.13 8.22-0.16 1.07 0.37 2.27 0.44 3.19-0.56 0.42 0.12 0.84 0.25 1.44 0.83 0.52 1.83 1.47 2.24 2.77 2.09 1.92 1.94 2.37 4.46 2.63 7 0.19 1.89 0.14 3.82 0.14 5.73q0 33.46-0.01 66.93c0 1.28-0.08 2.56 0.06 3.82 0.36 3.07 2.25 4.99 5.25 4.98 3.82-0.01 7.65 0.03 11.47 0.04 3.83 0 7.65-0.04 11.48 0 1.39 0.01 2.79 0.14 4.18 0.29 4.63 0.51 7.42 3.27 8.53 7.6 0.9 3.48 0.92 7.08 0.05 10.61-0.52 2.13-1.62 4-3.02 5.97 0.03 0.31-0.04 0.29-0.04 0.29z"/>
	<path id="Layer copy 74" class="s2" d="m722.93 1179.83c0.47 0.53 0.72 0.93 1.14 1.51 2.44 4.88 2.75 6.93 1.8 11.32-3.19 0.47-6.48 0.12-10.38 0.25-2.46 0.03-4.28 0.07-6.1 0.1q-2.25 0-4.48 0c-0.34 3.59 1.06 6.29 4.21 7.69 4.54 2.01 8.4 0.8 11.61-3.02 1.66 0.59 3.53 0.54 4.56 2.57-0.34 0.66-0.7 1.06-1.12 1.66-2.25 2.58-4.9 4.16-8.72 4.8-1.63 0.05-2.64 0.12-3.65 0.04-5.97-0.48-10.23-3.34-12.4-9.03-0.31-0.83-0.58-1.67-0.87-2.51-0.12-1.51-0.35-3.03-0.31-4.54 0.12-4.47 1.53-8.44 5.27-11.88 2.01-1.19 3.66-2.06 5.31-2.93 1.74-0.11 3.51-0.44 5.24-0.28 3.34 0.31 6.31 1.61 8.89 4.25zm-17.96 6.31c-0.03 0.6-0.06 1.2-0.11 1.99 5.14 0.06 10.07 0.12 15 0 0.63-2.21-0.33-3.72-1.47-5.09-1.18-1.41-2.78-2.19-4.63-2.4-3.84-0.43-6.5 1.12-8.79 5.5z"/>
	<path id="Layer copy 75" class="s2" d="m795.46 1201.79c-0.53-2.01-1.19-3.84-0.57-6.09 1.46-4.32 4.54-6.27 8.52-7.06 1.11-0.21 2.26-0.28 4.03-0.43 2.52-0.07 4.42 0.3 6.2-0.26 0.6-3.96-0.74-6.32-4.05-7.14-1.62-0.4-3.27-0.37-4.86 0.33-1.57 0.69-2.89 1.6-3.37 3.36-2.63-0.08-2.63-0.08-5.21-1.58 1.03-2.88 2.21-4.43 4.55-5.68 4.17-2.23 8.53-2.45 12.84-0.59 4.1 1.77 6.26 5.02 6.27 9.57 0.01 6.34 0 12.68-0.05 19.38-1.67 0.36-3.31 0.36-5.14 0.36q-0.42-1.1-0.86-2.26c-5.44 2.91-8.45 3.63-11.86 2.81-2.72-0.65-4.81-2.18-6.44-4.72zm5.21-3.98c0.26 2.35 1.72 3.66 3.9 4.07 2.79 0.53 5.31-0.25 7.41-2.15 1.98-1.79 2.13-4.12 1.97-6.53-2.92-0.52-7.05-0.58-8.89-0.1-2.19 0.57-4.07 1.53-4.39 4.71z"/>
	<path id="Layer copy 77" class="s2" d="m611.93 1195.98c-0.18 3.16-0.36 6.32-0.54 9.59-1.61 0.96-3.33 0.46-5 0.37-0.72-3.14-0.88-15.51-0.36-29.3 1.58-0.38 3.1-0.42 4.94-0.5 0.33-0.04 0.31-0.02 0.4 0.24 0.14 0.8 0.2 1.35 0.18 2.11 0.06 0.5 0.2 1.02 0.33 1.02 0.68 0 1.04-0.42 1.02-1.14-0.03-0.01 0.01 0.03 0.14-0.11 0.31-0.3 0.49-0.46 0.93-0.68 1.04-1.34 2.52-1.25 4.01-1.83 4.03-0.79 7.33 0.27 10.5 2.44 0.4 0.47 0.73 0.74 1.16 1.28 1.94 3.11 2.15 6.37 2.39 9.61-0.05 1.07-0.1 2.13-0.08 3.52 0.03 0.65-0.02 0.99-0.07 1.84 0.05 0.85 0.09 1.19 0.13 1.53-0.09 3.15-0.19 6.3-0.29 9.7-0.97 0.12-1.8 0.27-2.64 0.32-0.88 0.06-1.76 0.02-2.87 0.02-0.13-0.96-0.34-1.8-0.34-2.64-0.04-4.82-0.21-9.65 0.01-14.46 0.16-3.54-1.63-5.7-4.24-7.51-0.5-0.34-1.16-0.53-1.77-0.6-3.39-0.41-7.04 2.05-7.72 5.38-0.35 1.72-0.26 3.52-0.36 5.94 0.04 1.72 0.09 2.79 0.14 3.86z"/>
	<path id="Layer copy 78" class="s2" d="m754.29 1202.77c-4.72 4.86-10.35 4.94-16.25 2.88-3.01-1.05-4.49-2.99-5.56-6.29 0.29-0.21 0.56-0.51 0.89-0.65 1.06-0.42 2.14-0.79 3.4-1.25 0.65 0.78 1.22 1.59 1.91 2.28 2.36 2.38 6.03 2.97 8.81 1.44 1.29-0.71 2.29-1.72 2.23-3.29-0.05-1.54-1.01-2.59-2.39-3.18-0.94-0.4-1.92-0.67-2.9-0.96-1.46-0.44-2.97-0.76-4.4-1.28-1.19-0.43-2.37-0.96-3.43-1.63-4.93-3.14-4.37-9.48-0.95-12.51 5.74-5.08 15.51-3.07 18.52 2.37 0.23 0.42 0.31 0.91 0.51 1.49-1.3 1.08-2.69 1.56-4.36 1.79q-0.75-0.75-1.55-1.55c-1.91-1.91-4.25-2.17-6.74-1.71-0.59 0.11-1.19 0.46-1.68 0.84-1.78 1.4-1.68 3.98 0.22 5.17 0.74 0.46 1.61 0.76 2.46 1.01 1.83 0.53 3.69 0.99 5.97 1.67 0.85 0.33 1.25 0.47 1.81 0.82 3.79 2.12 5.53 5.02 4.81 9.19-0.02 0.12 0.01 0.25-0.11 0.62-0.49 1.07-0.85 1.9-1.22 2.73z"/>
	<path id="Layer copy 79" class="s2" d="m382.72 1197.57c0.86 0.42 1.48 0.98 2.42 1.86 0.68 0.54 1.04 0.76 1.39 0.98 1.74 1.52 3.76 1.78 6.17 1.27 1.02-0.51 1.97-0.7 2.57-1.26 1.77-1.66 1.38-4.34-0.78-5.44-1.12-0.58-2.38-0.88-3.6-1.25-1.94-0.6-3.95-1.03-5.84-1.77-3.11-1.22-4.97-3.52-5.14-6.94-0.18-3.51 1.27-6.23 4.35-7.92 3.95-2.16 8.1-2.41 12.11-0.35 2.21 1.13 4.35 2.65 4.66 5.76-0.08 0.25-0.31 0.26-0.63 0.36-0.92 0.39-1.52 0.67-2.12 0.95-0.55-0.04-1.11-0.08-2.01-0.48-1.11-0.99-1.78-1.83-2.66-2.21-2.17-0.96-4.4-1.01-6.43 0.46-1.96 1.43-1.85 4.2 0.33 5.25 1.43 0.69 3.09 0.92 4.64 1.35 1.2 0.39 2.41 0.75 3.59 1.18 5.34 1.94 7.55 6.12 6.34 10.85-0.3 0.75-0.61 1.15-0.86 1.58-1.34 2.35-3.37 3.76-5.95 4.41-3.53 0.9-7.06 0.95-10.47-0.46-2.81-1.16-4.93-3.05-5.61-6.11 0.74-1.45 2.24-1.29 3.53-2.07z"/>
	<path id="Layer copy 80" class="s2" d="m764.59 1202.73c-0.01-0.24-0.1-0.44-0.49-0.93-2.34-4.46-3.54-8.77-2.99-13.46 0.59-1.62 1.15-3.26 1.77-4.87 0.83-2.1 2.13-3.88 4.26-5.59 2.07-0.81 3.72-1.4 5.4-1.92 2.24-0.7 4.48-0.57 6.78-0.08 3.28 0.69 5.74 2.61 8.04 4.85 0.34 0.86 0.69 1.71 0.73 2.94-1.73 0.76-3.02 1.75-4.55 1.56-5.78-6.58-12.5-5.84-15.32 1.82-1.05 3.18-1.26 6.08 0.15 9.2 1.09 3.13 3.25 4.64 6.17 5.2 4 0.76 6.72-1.31 9.15-4.37 1.35 0.43 2.69 0.75 3.93 1.29 0.45 0.2 0.66 0.95 0.8 1.64-0.49 0.61-0.78 1.02-1.09 1.42-2.72 3.57-6.36 5.25-10.82 5.34-4.47 0.08-8.35-1.52-11.92-4.04z"/>
	<path id="Layer copy 81" class="s2" d="m449.91 1179.89c-0.04 0.82-0.09 1.64-0.13 3.04 0.04 1.17 0.09 1.74 0.14 2.32q-0.06 8.2-0.14 16.4c-0.01 1.37-0.07 2.75-0.11 4.22-1.67 0.61-3.17 0.26-4.99 0.07-0.43-1.68-0.58-3.32-0.59-4.96-0.03-11.14-0.03-22.27-0.13-33.76 0.03-1.1 0.13-1.85 0.63-2.87 1.67-0.34 2.96-0.41 4.25-0.47 1.17 0.82 0.74 2.08 0.88 3.82 0.06 4.49 0.13 8.34 0.19 12.19z"/>
	<path id="Layer copy 82" class="s5" d="m419.72 1033.23c0.85-0.26 1.55 0.01 1.62 0.95q0.1 1.33 0.09 2.67 0.01 36.09-0.02 72.18c0 1.36 0.41 2.83-0.96 4.2-0.43-1.97-0.66-4.12-0.66-6.27q-0.03-33.63-0.02-67.26c0-2.04-0.06-4.08-0.05-6.47z"/>
	<path id="Layer copy 83" class="s5" d="m399.57 1029.77c-0.17-1.14 0.5-1.53 1.52-1.53q4.34 0 8.69-0.01 2.83 0.01 5.67 0c1.45-0.02 2.74 0.46 3.78 1.43 0.26 0.25 0.16 0.88 0.03 1.5-1.46-1.01-2.96-1.34-4.67-1.31-4.89 0.06-9.78 0-15.02-0.08z"/>
	<path id="Layer copy 84" class="s6" d="m347.69 1003.52c-0.7 1.17-1.9 1.1-2.97 0.73-2.79-0.97-5.48-0.56-8.22 0.16-1.58 0.41-3.23 0.56-5.18 0.82 0.85-1.48 2.53-1.98 4.26-2.29 3.99-0.7 7.98-0.95 12.11 0.58z"/>
	<path id="Layer copy 85" class="s5" d="m420.56 1115.04c0.69 0.05 1.66 0.19 1.97 0.71 0.95 1.63 2.25 2.74 3.92 3.49 0.79 0.36 1.08 1.02 1.1 2.13-2.41-0.09-4.36-1.3-6.12-3.5-0.34-0.82-0.58-1.18-0.82-1.54-0.02-0.35-0.04-0.69-0.05-1.29z"/>
	<path id="Layer copy 86" class="s5" d="m430.95 1122.44c-0.18-0.43-0.09-1 0.13-1.07 1.88-0.53 3.8-1.17 5.6 0.73-1.75 0.33-3.57 0.38-5.73 0.34z"/>
	<path id="Layer copy 87" class="s5" d="m393.64 1027.55c2.28-0.97 2.73-0.8 3.9 1.61-1.43 0.13-2.7-0.41-3.9-1.61z"/>
	<path id="Layer copy 88" class="s6" d="m352.01 1006.38c-1.19 0.38-2.14-0.03-2.51-1.68 0.77 0.29 1.59 0.87 2.51 1.68z"/>
	<path id="Layer copy 89" class="s5" d="m443.19 1120.13c-0.8-0.97-0.75-1.26 0.09-1.44 0.34-0.07 0.71 0 1.36 0.05-0.21 0.48-0.7 0.92-1.45 1.39z"/>
	<path id="Layer copy 90" class="s5" d="m390.55 1012.3c1.17 0.98 1.17 0.98-0.1 2.09-0.17-0.6-0.11-1.24 0.1-2.09z"/>
	<path id="Layer copy 91" class="s5" d="m391.98 1025.51c0.77-0.2 1.62-0.2 1.37 1.29-0.53-0.18-0.91-0.63-1.37-1.29z"/>
	<path id="Layer copy 92" class="s5" d="m390.55 1021.67c0.55-0.2 1.25-0.38 1.37 0.4 0.03 0.2-0.37 0.47-0.79 0.75-0.35-0.27-0.47-0.58-0.58-1.15z"/>
	<path id="Layer copy 93" class="s2" d="m569.55 1196.59c-0.19-1.49-0.5-2.97-0.55-4.46-0.16-4.39 0.82-8.46 4.12-12.19 1-0.98 1.67-1.62 2.34-2.26 0 0-0.08-0.04 0.22-0.07 4.24-2.08 8.34-2.83 12.66-1.52 1.32 0.4 2.58 0.97 3.99 1.65 0.51 0.41 0.89 0.65 1.27 0.88 0.06 0.11 0.09 0.25 0.18 0.33 4.68 4.59 5.93 10.14 4.53 16.9-0.09 0.77-0.11 1.04-0.31 1.49-0.56 1.1-0.95 2.02-1.55 3.09-0.99 0.99-1.7 1.9-2.55 2.67-6.53 5.91-19.11 4.99-23.34-4.46-0.31-0.7-0.67-1.37-1.01-2.05zm21.53-11.97c-0.7-0.73-1.3-1.62-2.12-2.17-5.75-3.86-11.98-0.58-13.41 4.86-0.72 2.75-0.69 5.59 0.13 8.33 0.81 2.72 2.54 4.78 5.35 5.53 5.64 1.52 10.26-1.83 11.33-6.34 0.8-3.38 0.43-6.58-1.28-10.21z"/>
	<path id="Layer copy 94" class="s2" d="m473.73 1241.24c-0.22-0.41-0.19-0.74-0.14-1.32 0.19-0.42 0.44-0.56 0.54-0.77 2.48-5.14 10.37-6.81 16.03-4.54 2.05 0.81 3.58 2.3 5.13 4.52 1.57 2.9 0.98 5.6 1.33 8.17q-0.06 5.52-0.13 11.05c-0.02 1.51-0.09 3.01-0.14 4.66-1.77 0.6-3.38 0.41-5.13 0.24-0.13-0.77-0.26-1.5-0.41-2.32-0.33 0.07-0.78 0.03-1 0.24-2.71 2.54-5.97 3.3-9.54 2.91-5.25-0.59-8.74-4.7-8.26-9.62 0.33-3.51 3.09-6.64 7.04-7.65 2.08-0.53 4.26-0.71 6.4-0.96 1.13-0.12 2.29-0.03 4.02-0.09 0.75-0.29 0.9-0.54 1.06-0.79 0.39-2.69-0.46-4.84-3.07-5.82-2.63-0.99-5.25-0.81-7.49 1.11-0.75 0.65-1.35 1.48-2.19 2.4-1.23-0.43-2.51-0.89-4.05-1.42zm4.95 16.37q4.42 3.42 8.7 0.66c2.82-1.82 3.76-4.18 3.03-7.97-2.33-0.15-4.73-0.18-7.1 0.14-0.99 0.13-1.98 0.49-2.89 0.89-1.5 0.67-2.44 1.84-2.44 3.54 0 0.75 0.22 1.49 0.7 2.74z"/>
	<path id="Layer copy 95" class="s2" d="m523.47 1255.36c0.94-0.24 0.97-1.09 1.12-1.8 0.75-3.49 3.06-5.47 6.28-6.54 2.43-0.8 4.94-1.16 7.51-1.17 1.49 0 3.05 0.32 4.67-0.48-0.06-1-0.02-2.01-0.19-2.98-0.24-1.32-1.06-2.27-2.24-2.93-2.64-1.49-6.71-0.93-8.81 1.28-0.53 0.54-0.95 1.17-1.51 1.88-1.6-0.48-3.2-0.8-4.56-1.84 0.53-2.31 2.4-3.61 3.7-5.3 0.07-0.1 0.17-0.2 0.27-0.23 4.79-1.71 9.55-2.74 14.28 0.25 3.03 1.91 4.74 4.55 4.8 8.13q0.12 6.5 0.04 12.99c-0.02 2.13 0.2 4.29-0.34 6.57-1.76 0.23-3.35 0.36-4.95-0.05-0.2-0.79-0.38-1.5-0.62-2.47-0.65 0.49-1.14 0.85-1.62 1.23-3.16 2.54-6.75 2.76-10.48 1.78-3.06-0.81-5.07-2.81-6.03-5.84-0.22-0.73-0.45-1.45-0.99-2.3-0.32-0.13-0.33-0.18-0.33-0.18zm12.95 4.11c0.73-0.22 1.49-0.35 2.18-0.66 3.68-1.63 4.82-3.84 4.29-8.2-2.73-0.53-6.64-0.49-8.6 0.16-0.83 0.28-1.69 0.62-2.39 1.13-2.47 1.8-2.15 5.69 0.6 6.93 1 0.46 2.2 0.47 3.92 0.64z"/>
	<path id="Layer copy 97" class="s2" d="m605.13 1250.36c0 1.39-0.13 2.8 0.04 4.17 0.29 2.39 1.8 3.81 4.16 4.35 5.46 1.23 8.71-2.96 8.9-6.89 0.2-4.2 0.1-8.4 0.12-12.61 0.01-1.51 0-3.02 0-4.44 2.36-0.68 2.36-0.68 5.18-0.3 0.17 0.63 0.52 1.33 0.52 2.04q0.09 12.61 0.1 25.21c0 0.36-0.18 0.72-0.32 1.21-1.72 0.56-3.44 0.35-5.2 0.09-0.16-0.83-0.3-1.56-0.49-2.5-0.51 0.31-0.95 0.51-1.3 0.81-3.45 2.89-7.31 3.3-11.48 1.96-2.61-0.83-4.42-2.56-5.23-5.14-0.54-1.68-0.98-3.47-1.02-5.22-0.12-5.72-0.03-11.46-0.01-17.19 0.01-0.35 0.18-0.71 0.34-1.33 0.81-0.08 1.66-0.21 2.51-0.24 0.75-0.02 1.51 0.07 2.39 0.12 1.01 3.04 0.22 6.11 0.59 9.76 0.08 2.5 0.14 4.32 0.2 6.14z"/>
	<path id="Layer copy 98" class="s2" d="m544.55 1178.08c0.94 1.04 1.87 2.07 3.06 3.48 0.45 0.84 0.63 1.3 0.89 1.93-0.89 0.4-1.66 0.81-2.47 1.11-0.81 0.3-1.66 0.5-2.52 0.75-0.68-0.79-1.21-1.5-1.84-2.11-2.59-2.55-5.85-3.13-9.13-1.62-2.21 1.02-3.68 2.67-4.38 5.3-0.3 1.08-0.44 1.96-0.71 3.08-0.56 2.34-0.04 4.33 0.72 6.21 2.47 6.13 9.95 7.27 14.24 2.22 0.4-0.48 0.76-0.99 1.22-1.59 1.74 0.58 3.41 1.12 5.1 1.71 0.02 0.04 0.04 0.13-0.04 0.31-0.15 0.58-0.21 0.97-0.49 1.52-0.61 0.65-0.98 1.17-1.39 1.64-2.82 3.26-6.37 4.76-10.69 4.81-3.57 0.05-6.66-1.16-9.63-2.93-2.05-2.17-3.73-4.56-4.76-7.9-0.26-0.85-0.42-1.24-0.58-1.63 0.17-2.58 0.34-5.16 0.63-8.27 0.58-1.64 1.05-2.74 1.51-3.84 0.97-1.06 1.93-2.11 3.27-3.48 2.38-1.3 4.38-2.29 6.38-3.28 3.26 0 6.53-0.1 9.99 1.66 0.82 0.48 1.22 0.7 1.62 0.92z"/>
	<path id="Layer copy 99" class="s2" d="m591.97 1239.02c0.03 0.66 0.2 1.39-0.53 1.7-1.15 0.5-2.36 0.87-3.67 1.34-0.52-0.52-0.99-0.92-1.37-1.39-1.89-2.32-4.36-2.42-6.98-1.8-1.51 0.36-2.52 1.59-2.59 2.95-0.08 1.49 0.78 2.46 2 2.97 1.52 0.65 3.14 1.05 4.71 1.57 1.57 0.51 3.23 0.87 4.69 1.59 5.83 2.9 6.4 10.1 1.28 14.11-3.6 2.8-12.73 3.17-16.78-1.04-1.07-1.12-2.01-2.3-2.41-4.06 0.76-0.42 1.49-0.88 2.26-1.23 0.68-0.3 1.42-0.48 2.17-0.72 0.62 0.8 1.1 1.56 1.71 2.19 2.14 2.21 5.8 2.84 8.49 1.52 1.36-0.66 2.31-1.65 2.26-3.24-0.04-1.39-0.78-2.44-2.08-2.95-1.41-0.56-2.88-1-4.33-1.47-1.58-0.51-3.22-0.86-4.73-1.52-5.41-2.36-6.38-7.49-3.38-12.39 0.67-1.09 1.92-2.24 3.1-2.54 2.82-0.7 5.7-1.48 8.68-0.77 1.91 0.45 3.62 1.19 4.97 2.68 0.68 0.75 1.4 1.48 2.3 2.36 0.2 0.15 0.26 0.12 0.23 0.14z"/>
	<path id="Layer copy 100" class="s2" d="m669.83 1163.5c0.7 0.48 1.07 0.94 1.52 1.62-0.08 1.2-0.23 2.19-0.41 3.32-1.08 0-2.06-0.04-3.04 0.01-2.7 0.14-3.99 1.29-4.28 3.92-0.12 1.1-0.02 2.23-0.02 3.4 2.21 0.92 4.46 0 6.53 0.7 1.02 1.41 0.71 2.87 0.32 4.47-2.08 0.9-4.33-0.04-6.59 0.76-0.09 0.75-0.29 1.6-0.29 2.46q-0.05 8.78-0.06 17.56c0 1.25 0 2.51 0 3.87-1.91 0.66-3.6 0.45-5.52 0.16-0.55-7.76 0.11-15.38-0.51-23.48-0.4-0.59-0.66-0.66-0.93-0.74-1.09-0.11-2.19-0.21-3.36-0.32-0.5-1.54-0.28-2.99-0.17-4.71 1.24-0.12 2.43-0.23 4.06-0.5 0.49-0.23 0.59-0.32 0.58-0.39-0.04-0.17-0.13-0.34-0.19-0.5 0.25-2.61 0.21-5.24 1.28-7.75 0.63-1.49 1.51-2.39 3.07-2.95 2.52-0.92 5.01-1.6 8.01-0.91z"/>
	<path id="Layer copy 101" class="s2" d="m683.64 1194.25q-0.1 3.98-0.22 7.96c-0.04 1.12-0.11 2.23-0.17 3.51-1.89 0.41-3.6 0.4-5.29 0.03-0.65-3.03-0.87-19.42 0.11-29.44 1.34-0.22 2.16-0.27 2.98-0.31 0.54 0.08 1.07 0.16 1.88 0.55 0.37 0.98 0.47 1.65 0.65 2.89 1.51-2.24 3.54-2.72 5.3-3.65 1.6-0.09 3.24-0.83 4.87 0.52 0.47 1.46 0.26 3.05 0.11 4.91-0.81 0.07-1.51 0.14-2.83 0.2-5.65 0.85-6.65 2.64-7.18 6.43q-0.02 0.18 0 0.37c-0.11 0.71-0.22 1.41-0.32 2.61 0.04 1.48 0.08 2.45 0.11 3.42z"/>
	<path id="Layer copy 102" class="s2" d="m518.36 1233.54c0.58 0.02 0.85 0.1 1.33 0.15 1.41 1.79 0.59 3.61 0.34 5.43-7.39 0.77-8.38 1.47-9.77 7.47-0.01 4.49 0.02 8.34 0.06 12.19-0.1 1.38-0.19 2.76-0.29 4.32-0.96 0.11-1.82 0.27-2.67 0.3-0.88 0.02-1.76-0.08-2.81-0.13-0.67-3.19-0.16-6.36-0.26-9.49-0.11-3.18-0.1-6.36-0.07-9.54 0.04-3.16-0.1-6.32 0.21-9.53 1.96-0.52 3.7-0.54 5.61 0.39 0.22 1.09 0.28 1.65 0.41 2.78 0.64-1.03 1-1.59 1.35-2.14 2.02-0.93 3.88-2.29 6.56-2.2z"/>
	<path id="Layer copy 103" class="s2" d="m561.08 1205.97c-1.35 0.16-2.42 0.11-4.07-0.06-0.77-1.61-0.97-3.1-1.17-4.58 0.04-6.15 0.08-12.29 0.05-18.79 0.01-1.93 0.07-3.51 0.17-5.08 0.07-1.14 0.9-1.29 2.42-1.31 1.42 0 2.23 0.01 3.04 0.02 0.1 4.33 0.19 8.65 0.29 13.58 0.06 0.94 0.11 1.28 0.16 1.63-0.07 3.55-0.12 7.1-0.23 10.65-0.04 1.25-0.25 2.49-0.66 3.94z"/>
	<path id="Layer copy 104" class="s2" d="m586.89 1170.7c-0.88 0.43-1.75 0.87-3.16 1.29-1.32-0.04-2.12-0.07-2.91-0.09-0.08-1.29 1.09-1.91 1.85-3.28 1.34-1.81 2.4-3.25 3.46-4.69 1.93 0.05 3.86 0.09 5.71 0.42-1.71 2.31-3.33 4.33-4.95 6.35z"/>
	<path id="Layer copy 105" class="s2" d="m557.02 1163.93c1.79-0.38 3.46-0.36 4.76 1.23 1.29 1.58 1.28 3.21-0.13 4.68-0.9 0.94-1.96 1.54-3.73 1.31-0.83-0.33-1.24-0.5-1.64-0.68-0.7-1.04-1.39-2.09-1.2-3.82 0.72-1.16 1.33-1.94 1.94-2.72z"/>
	<path id="Layer copy 106" class="s2" d="m464.1 1258.41c-0.65 0.8-1.2 1.32-1.74 1.86-4.77 4.71-10.76 5.2-16.26 1.33-0.48-0.34-0.97-0.67-1.84-1.28-0.11 5.26-0.21 10.05-0.31 14.93-1.91 0.69-3.59 0.52-5.25 0.21-0.54-3.4-0.55-36.98-0.01-40.83 1.51-0.56 3.13-0.32 4.96-0.23 0.28 0.89 0.57 1.79 0.94 2.95 0.73-0.55 1.3-1.02 1.91-1.43 5.43-3.77 12.71-2.64 16.69 2.6 0.7 0.9 1.31 1.87 2.13 3.02 1.4 4.25 1.83 8.33 0.58 12.44-0.43 1.42-1.13 2.77-1.8 4.43zm-12.33-19.6c-3.61 0.4-6.19 2.22-7.33 5.72-1.07 3.25-0.83 6.53 0.44 9.69 1.07 2.66 3.03 4.31 5.95 4.72 4.53 0.63 8.58-2.18 9.56-6.75 0.51-2.39 0.43-4.82-0.32-7.15-1.19-3.71-3.55-6.09-8.3-6.23z"/>
	<path id="Layer copy 107" class="s2" d="m740.95 1257.12c-0.07 1.14-0.17 2.28-0.21 3.42-0.04 1.14 0.05 2.3-0.04 3.44-0.57 7.14-4.11 11.35-12.06 12.37-2.29 0.29-4.56 0-6.79-0.7-3.48-1.1-6.08-3.1-7.38-6.58 1.39-1.42 1.39-1.42 4.35-2.5 0.39 0.53 0.79 1.14 1.26 1.69 2.92 3.44 8 4.18 11.75 1.74q2.38-1.54 2.89-4.31 0.2-1.13 0.16-2.28c-0.02-0.99-0.14-1.97-0.25-3.31-0.91 0.49-1.56 0.79-2.16 1.17-7.3 4.55-14.76 0.52-17.67-4.87-2.85-5.26-2.65-10.53-0.12-15.75 1.91-3.92 5.27-6.1 9.77-7.04 0.84-0.09 1.41-0.06 2.54 0.01 3.22 0.41 5.35 1.9 7.68 3.77 0.14-1.26 0.24-2.11 0.34-2.97 1.74 0 3.47 0 5.43 0 0.11 1.12 0.21 2.08 0.37 3.36 0.03 6.04 0 11.76 0 17.98 0.06 0.79 0.1 1.08 0.14 1.36zm-8.25-15.9c-0.38-0.33-0.73-0.73-1.15-1-5.05-3.16-10.72-0.91-12.28 4.83-0.69 2.54-0.57 5.05 0.22 7.51 1.22 3.8 4.8 6.02 8.6 5.3 3.4-0.64 5.79-2.54 6.68-6 0.94-3.63 0.41-7.05-2.07-10.64z"/>
	<path id="Layer copy 108" class="s2" d="m706.71 1242.59c0.4 1.29 0.66 2.41 0.83 3.54 0.55 3.76 0 7.34-1.86 10.68-3.94 7.1-10.92 8.17-15.86 6.98-6.6-1.58-11-7.03-11.08-13.72-0.02-1.76 0.16-3.55 0.51-5.28 1.09-5.5 4.51-8.93 9.81-10.57 0.48-0.15 0.97-0.28 1.7-0.55 1.26-0.1 2.28-0.1 3.29-0.02 4.58 0.38 8.27 2.37 10.93 6.14 0.58 0.82 1.03 1.74 1.73 2.8zm-22.14 5.91c0.11 1.27 0.1 2.57 0.36 3.8 0.6 2.92 2.09 5.27 5.06 6.21 3.82 1.2 8.44 0.51 10.77-4.72 1.31-2.92 1.25-5.95 0.27-8.97-1.23-3.8-4.16-6.01-7.93-6.01-3.61 0-6.83 2.38-7.98 6.01-0.3 0.96-0.35 2-0.55 3.68z"/>
	<path id="Layer copy 109" class="s2" d="m781.39 1234.18c1.13 0.09 2.27 0.19 3.6 0.3q0.23 1.48 0.45 2.91c0.24-0.05 0.57 0 0.7-0.15 1.52-1.6 3.21-2.9 5.44-3.36 1.34-0.27 1.33-0.3 3.84 0.4 0.62 1.54 0.36 3.13-0.22 5.03-0.06 0.31-0.1 0.21-0.1 0.21-0.88-0.11-1.77-0.35-2.64-0.3-3.28 0.2-5.76 2.24-6.51 5.45-0.37 1.59-0.52 3.26-0.57 4.89-0.1 3.43-0.06 6.86-0.1 10.29-0.01 0.99-0.09 1.99-0.15 3.11-1.67 0.66-3.26 0.41-4.72 0.27-0.22-0.23-0.32-0.31-0.4-0.41-0.07-0.1-0.15-0.22-0.15-0.33-0.03-9.13-0.04-18.27 0.25-27.77 0.62-0.42 0.95-0.48 1.28-0.54z"/>
	<path id="Layer copy 111" class="s0" d="m505.83 945.37c-17.56-5.22-33.7-12.12-49.37-20.1-42.92-21.87-74.28-54.73-94.22-98.68-12.88-28.4-20.04-58.09-22.76-89.08-2.33-26.51-2.05-53.01-0.83-79.5 0.87-18.69 2.96-37.33 4.47-55.63 3.47-2.64 6.73-1.51 9.7-1.11 11.13 1.47 22.27 2.97 33.31 4.99 20.13 3.67 39.98 8.49 59.34 15.18 23 7.95 44.71 18.4 64.44 32.78 27.46 20.02 47.58 45.85 61.21 76.85 10.31 23.44 15.78 48.06 18.16 73.48 1.67 17.83 1.86 35.69 1.71 53.57-0.14 17.59-0.21 35.18-0.61 52.76-0.31 13.83-1.04 27.66-1.65 41.48-0.12 2.57-0.57 5.12-0.86 7.56-11.61 1.94-52.78-5.41-82.04-14.55z"/>
	<path id="Layer copy 112" class="s1" d="m577.83 1113.74c-0.23 0.73-0.49 1.44-0.66 2.18-0.89 3.61-3.47 5.52-6.81 6.4-4.36 1.14-8.75 1.06-13.15-0.04-3.86-0.98-6.35-3.21-7.54-7.4-0.12-0.55-0.21-0.68-0.38-0.75-1.1-4.44-2.33-8.86-3.24-13.34-0.48-2.4-1.81-4.08-3.61-5.85-1.09-0.05-2.35-0.15-3.61-0.16q-11.47-0.01-22.94 0.02-0.96 0-1.91 0.06c-2 0.12-3.34 1.12-3.86 3.08-0.98 3.68-1.92 7.38-2.9 11.07-0.49 1.84-0.94 3.7-1.56 5.51-1.6 4.66-5 7.23-9.8 7.93-4.6 0.66-9.09 0.51-13.47-1.5-1.66-0.77-2.63-1.77-3.26-3.38-1.59-4.07-1.64-8.22-0.59-12.38 1.97-7.77 3.96-15.54 6.1-23.26 4.76-17.17 9.61-34.31 14.59-51.94 0.22-0.9 0.26-1.33 0.48-2.01 1.52-4.42 2.88-8.6 4.23-12.78 0.25-0.36 0.49-0.73 0.91-1.54 1.32-2.84 3.07-4.71 5.14-6.35 2.01-1.59 4.14-2.89 6.57-3.74 6.42-2.27 12.93-2.24 19.52-0.98 4.65 0.88 8.47 3.27 11.67 6.7 0.69 0.73 1.37 1.48 2.15 2.49 0.34 0.57 0.57 0.87 0.77 1.27 0.01 0.28 0.11 0.38 0.35 0.64 0.5 0.95 0.92 1.66 1.36 2.62 0.54 1.62 1.07 2.99 1.59 4.61 0.13 0.57 0.27 0.89 0.44 1.5 0.12 0.67 0.2 1.04 0.31 1.41 4.27 15.16 8.65 30.29 12.79 45.49 3.57 13.11 6.86 26.3 10.24 39.77 0 1.76 0.04 3.2 0.08 4.65zm-47.89-78.53c-0.18-0.33-0.32-0.71-0.56-0.99-1.34-1.54-2.64-1.45-3.54 0.32-0.46 0.9-0.78 1.88-1.05 2.86q-3.99 14.52-7.95 29.05c-0.14 0.49-0.27 0.98-0.33 1.48-0.23 1.86 0.62 2.99 2.41 3.18 0.63 0.07 1.27 0.05 1.91 0.05q6.68 0.01 13.37-0.01c0.76 0 1.53 0.02 2.28-0.08 1.63-0.21 2.51-1.26 2.3-2.9-0.18-1.38-0.54-2.74-0.91-4.09-2.56-9.44-5.15-18.88-7.93-28.87z"/>
	<path id="Layer copy 113" class="s1" d="m681.75 1012.64c-0.52 6.77-2.29 13.02-4.03 19.28-5.35 19.26-10.7 38.52-16.22 58.25-0.18 0.74-0.2 1.02-0.22 1.29-0.78 2.42-1.58 4.82-2.33 7.24-1.09 3.52-2.2 7-3.82 10.34-4.2 8.68-11.17 13.15-20.62 14.09q-10.28 1.03-19.68-3.19c-1-0.45-1.94-1.11-2.75-1.84-1.39-1.28-2.65-2.69-4.18-4.31-0.22-0.27-0.29-0.55-0.24-0.79-0.27-0.56-0.58-0.89-1.05-1.38-0.46-0.62-0.77-1.08-1.11-1.82-0.33-1.1-0.62-1.92-0.92-2.72-1.05-2.8-2.1-5.59-3.13-8.61-0.16-0.61-0.33-1.01-0.54-1.69-5.37-18.82-10.69-37.35-16.03-55.87-1.37-4.75-2.8-9.48-4.17-14.43-0.13-0.61-0.29-1.01-0.46-1.68-0.51-2.12-1.04-3.96-1.5-5.81-0.72-2.89-0.69-5.79-0.24-8.74 0.5-3.25 2.51-5.12 5.28-6.41q0.87-0.41 1.8-0.64c4.41-1.06 8.85-1.25 13.26-0.09 3.63 0.96 6.45 3.06 8.12 6.47 0.78 1.59 1.48 3.26 1.93 4.97q4.74 17.93 9.35 35.9c2.94 11.48 5.8 22.99 8.72 34.47 0.35 1.35 0.76 2.72 1.39 3.96 0.99 1.91 3.17 1.95 4.24 0.05 0.74-1.32 1.26-2.8 1.65-4.26q2.41-8.86 4.67-17.75c4.36-17.18 8.66-34.36 13.03-51.53 0.5-1.97 1.11-3.95 1.96-5.78 1.87-4 5.05-6.38 9.51-6.72 2.53-0.19 5.09-0.16 7.63-0.08 4.23 0.13 7.62 1.84 9.8 5.61 0.27 1.31 0.53 2.63 0.9 4.22z"/>
	<path id="Layer copy 114" class="s2" d="m578.33 385.46c30.75-4.67 58.29 1.38 82 20.62 25.04 20.33 38.61 46.87 39.61 79.38 0.81 26.37-6.72 50.11-23.46 70.61-16.72 20.46-38.06 33.78-64.39 37.03-41.12 5.08-74.9-8.37-99.27-42.76-15.13-21.34-21.43-45.33-18.85-71.18 5.15-51.57 41.34-86.04 84.36-93.7z"/>
	<path id="Layer copy 115" class="s3" d="m703.34 965.91c-23.06 4.61-45.54 7.6-68 6.75-2.1-1.59-1.53-3.43-1.45-5.06 1.58-32.04 8.84-62.68 23.21-91.44 17.17-34.39 43.91-58.77 78.91-74.27 23.35-10.35 47.92-16.1 73.14-19.68 15.79-2.24 31.62-1.92 47.46-1.97 1.36 0 2.72 0.29 4.25 0.47 0.52 7.4-0.89 14.19-2.01 20.91-3.6 21.66-9.1 42.79-18.79 62.65-20.9 42.84-53.41 73.04-97.98 90.19-12.39 4.77-25.04 8.58-38.74 11.45z"/>
	<path id="Layer copy 116" class="s4" d="m728.5 618.99c24.72-9.32 49.51-15.17 75.73-16.55 0.38 1.57 0.93 2.87 0.96 4.18 0.74 25.81-2.3 51.14-10.09 75.8-7.8 24.66-20.82 46.04-40.09 63.48-7.72 6.99-16.21 12.85-25.36 17.84-18.63 10.17-38.71 16.07-59.31 20.54-2.81 0.61-5.62 1.23-8.46 1.7-3.4 0.57-6.82 1.08-10.26 1.44-5.11 0.52-10.24 0.89-15.67 1.35-0.35-1.24-0.85-2.28-0.91-3.34-1.87-34.45 2.2-67.85 18.27-98.97 10.89-21.06 25.54-38.94 45.51-52.13 9.16-6.05 19.03-10.74 29.68-15.34z"/>
	<path id="Layer copy 117" class="s2" d="m672.44 1260.32c-0.14 0.86-0.28 1.72-0.5 2.83-0.42 0.26-0.77 0.26-1.36 0.33-1.38-0.06-2.5-0.18-3.82-0.32-0.08-1.07-0.22-2.06-0.23-3.05-0.04-4.33 0-8.67-0.07-13-0.02-1.39-0.21-2.79-0.48-4.15-0.42-2.08-1.88-3.29-3.82-3.89-4.01-1.25-8.54 1.5-9.3 5.65-0.2 1.12-0.19 2.28-0.19 3.43-0.03 4.08 0 8.15-0.02 12.23-0.01 0.86-0.12 1.72-0.2 2.75-1.7 0-3.18 0-4.89 0-0.14-0.7-0.41-1.4-0.41-2.11q-0.06-18.35-0.06-36.7c0-0.61 0.17-1.21 0.28-1.94 1.75-0.4 3.33-0.29 5.13-0.07 0.42 2.58 0.19 4.99 0.24 7.38 0.05 2.39 0.01 4.79 0.01 7.08 0.97 0.48 1.4-0.1 1.85-0.48 4.32-3.65 11.17-3.39 15.22 0.75 0.23 0.16 0.27 0.26 0.41 0.56 1.75 2.4 1.62 5.01 2.24 7.41-0.08 2.63-0.15 5.26-0.18 8.52 0.08 2.68 0.11 4.74 0.15 6.79z"/>
	<path id="Layer copy 118" class="s2" d="m770.95 1263.42c-1.66 0.02-3.04-0.1-4.41-0.21-0.3-0.75-0.55-1.39-0.87-2.21-1 0.64-1.82 1.21-2.69 1.7-3.32 1.91-6.8 2-10.29 0.63-3.26-1.28-5.01-3.83-5.24-7.32-0.23-3.46 1.06-6.21 4.14-7.99 2.97-1.71 6.29-1.89 9.59-2.13 1.5-0.11 3.04 0.17 4.46-0.33 0.43-3.67-0.16-5.17-2.37-6.26-2.41-1.18-5.97-0.79-7.9 0.96-0.74 0.68-1.33 1.51-2.05 2.35-1.13-0.36-2.21-0.68-3.27-1.06-0.35-0.12-0.64-0.39-1.14-0.7 0.9-3.36 3.29-5.24 6.36-6.36 1.3-0.48 2.73-0.61 4.38-0.98 1.66 0.15 3.06 0.24 4.38 0.6 4.14 1.12 6.8 3.73 7.51 8.04 0.28 1.73 0.29 3.51 0.49 5.58 0.02 4.48-0.02 8.63-0.11 12.78-0.02 0.97 0.32 2.05-0.97 2.91zm-6.87-6.26c1.79-1.88 2.33-4.07 1.73-6.78-2.77-0.27-5.4-0.26-8.02 0.19-0.85 0.15-1.71 0.52-2.47 0.95-2.15 1.21-2.79 3.83-1.52 5.91 0.79 1.29 2.05 1.85 3.48 2.03 2.39 0.3 4.52-0.35 6.8-2.3z"/>
	<path id="Layer copy 119" class="s3" d="m868.5 1067.06c-3.67 3.17-7.67 5.86-12.35 7.95 0.5 0.88 0.81 1.52 1.2 2.11q9.26 13.61 18.55 27.19c2 2.93 3.17 6.05 2.95 9.68-0.24 3.74-2.03 6.34-5.49 7.53-2.01 0.7-4.22 0.86-6.35 1.21-2.82 0.46-5.63 0.16-8.38-0.36-4.42-0.84-8.16-2.91-10.63-6.85-1.49-2.37-2.93-4.78-4.39-7.17q-7.05-11.62-14.11-23.22c-0.66-1.08-1.41-2.12-2.19-3.13-1.08-1.43-2.63-2-4.36-2.01-2.55-0.03-4.26 1.18-4.2 3.82 0.03 1.66-0.03 3.32-0.03 4.98 0 7.02 0.02 14.04-0.01 21.06 0 1.14-0.13 2.29-0.33 3.41-0.92 5.14-4.25 8.49-9.42 9.12-2.64 0.32-5.36 0.34-8.01 0.11-6.05-0.52-9.7-4.29-10.32-10.37-0.11-1.14-0.11-2.3-0.11-3.44q-0.02-41.17-0.02-82.34c0-3.06 0.06-6.11 0.8-9.13 2.13-8.75 8.02-13.83 17.08-14.25 7.27-0.33 14.55-0.45 21.82-0.5q6.32-0.03 12.62 0.45c5.39 0.4 10.51 1.9 15.36 4.32 11.35 5.66 17.43 15.01 18.91 27.39 0.73 6.1 0.58 12.24-1.03 18.25-1.37 5.14-3.76 9.73-7.37 14-0.03 0.33-0.19 0.19-0.19 0.19zm-49.71-14.18c0.36 3.87 0.95 4.53 4.54 4.59 3.44 0.06 6.88 0.1 10.32-0.06 9.02-0.41 14.61-6.13 14.89-15.08 0.21-6.6-3.34-12.01-9.33-13.78-5.47-1.61-11.12-1.12-16.7-0.79-2.45 0.15-3.75 2.19-3.71 4.15 0.02 1.02-0.06 2.04-0.06 3.05 0.01 5.74 0.03 11.47 0.05 17.92z"/>
	<path id="Layer copy 120" class="s3" d="m974.48 1036.59c4.37 15.91 8.72 31.5 12.95 47.12 2.07 7.63 3.92 15.31 5.81 22.99 0.65 2.62 0.81 5.3 0.36 7.98-0.58 3.45-2.74 7.02-7.72 7.9-3.43 0.6-6.83 0.84-10.27 0.23q-8.2-1.46-10.32-9.5c-1.07-4.07-2.08-8.15-3.11-12.23-0.19-0.74-0.35-1.49-0.56-2.23-0.91-3.23-1.81-3.97-5.07-4.03-2.17-0.05-4.34-0.02-6.51-0.02q-8.43 0-16.85 0-1.53 0.01-3.07 0.05c-1.88 0.05-3.15 1.06-3.75 2.75-0.65 1.8-1.11 3.66-1.59 5.51-0.84 3.21-1.56 6.45-2.47 9.63-0.46 1.58-1.09 3.15-1.92 4.56-1.49 2.52-3.82 4.15-6.63 4.85-3.88 0.96-7.82 1.2-11.76 0.25-4.64-1.13-7.66-4.69-8-9.55-0.25-3.35 0.34-6.62 1.21-9.83 3.27-12.06 6.49-24.13 9.88-36.15 4.15-14.72 8.43-29.41 12.73-44.09 0.78-2.68 1.72-5.35 2.93-7.86 3.74-7.78 10.05-11.93 18.6-12.87 4.61-0.5 9.17-0.4 13.67 0.76 6.72 1.72 11.61 5.76 14.53 12.01 1.24 2.64 2.14 5.46 3.01 8.25 1.37 4.38 2.58 8.81 3.92 13.52zm-40.1 25.38c-0.53 1.96-1.12 3.91-1.57 5.9-0.38 1.69 0.61 3.02 2.31 3.22 0.88 0.1 1.78 0.08 2.67 0.08q5.54-0.02 11.08-0.06c1.27 0 2.55 0.03 3.82-0.07 1.35-0.11 2.36-1.26 2.21-2.61-0.12-1.13-0.41-2.25-0.71-3.36q-3.68-13.82-7.42-27.63c-0.29-1.09-0.7-2.19-1.24-3.18-0.68-1.27-2.4-1.26-3.09 0.03-0.53 1-0.91 2.1-1.22 3.2-2.25 7.95-4.46 15.91-6.84 24.48z"/>
	<path id="Layer copy 121" class="s3" d="m301.07 1122.56c-3.86 0.82-7.38 0.89-10.93 0.03-4.65-1.12-7.65-3.93-8.92-8.51-1.13-4.05-2.14-8.13-3.22-12.2-0.4-1.47-0.77-2.97-1.32-4.39-0.65-1.68-1.95-2.63-3.82-2.66q-1.34-0.04-2.68-0.05-11.3 0-22.6 0.01-0.57-0.01-1.15 0.01c-3.15 0.13-4.24 0.93-5.08 4.11-1.05 3.94-1.97 7.92-2.94 11.88-0.28 1.11-0.49 2.24-0.82 3.34-1.48 4.92-4.9 7.62-9.89 8.37-2.92 0.44-5.86 0.42-8.78-0.02-5.68-0.84-8.86-4.33-9.1-10.04-0.16-3.61 0.46-7.11 1.41-10.58 4.81-17.58 9.56-35.18 14.4-52.75 2.47-8.97 5.06-17.91 7.65-26.85 0.6-2.08 1.29-4.14 2.12-6.13 3.03-7.19 8.3-11.83 15.96-13.55 5.82-1.31 11.67-1.3 17.43 0.29 6.5 1.79 11.34 5.71 14.14 11.91 1.1 2.43 2.11 4.93 2.83 7.5q10.24 36.64 20.34 73.32c1.18 4.3 2.12 8.67 3.14 13.01 0.5 2.15 0.34 4.27-0.13 6.44-0.77 3.58-2.81 5.92-6.25 7.07-0.48 0.16-0.98 0.26-1.79 0.44zm-40.32-88.54c-1.87-1.05-2.65-0.97-3.32 0.54q-0.86 1.92-1.4 3.95-3.73 13.81-7.4 27.63-0.3 1.11-0.38 2.26c-0.08 1.47 0.73 2.63 2.13 2.64q8.98 0.11 17.95 0c1.16-0.01 2.09-1.22 2.03-2.36-0.04-0.63-0.22-1.25-0.38-1.86-1.79-6.89-3.55-13.79-5.42-20.66-1.06-3.92-2.31-7.8-3.81-12.14z"/>
	<path id="Layer copy 122" class="s4" d="m746.94 1075.01c-5.61 0-10.84-0.01-16.07 0.02-1.26 0.01-2.56 0.06-3.79 0.34-2.33 0.53-3.8 2.19-3.88 4.58-0.11 3.44-0.15 6.89 0.06 10.32 0.21 3.47 2.2 5.23 5.71 5.43 1.53 0.09 3.06 0.06 4.59 0.06 8.42-0.01 16.84-0.03 25.26-0.01q2.1 0.01 4.18 0.34c3.64 0.56 5.91 2.82 7.17 6.14 1.72 4.5 1.43 9.04-0.18 13.47-1.3 3.59-4.24 5.31-7.83 5.95-1.36 0.24-2.79 0.2-4.19 0.21q-20.1 0.05-40.19 0.04c-3.06 0-6.16 0.14-9.09-0.92-2.26-0.82-4.58-1.59-6.66-2.75-2.05-1.14-2.95-3.41-3.85-5.47-1.39-3.16-2.25-6.51-2.51-9.97-0.28-3.56-0.54-7.13-0.55-10.69q-0.07-26.61-0.02-53.21c0.01-6.12 0.29-12.24 1.27-18.3 0.56-3.44 1.71-6.64 3.69-9.54 2.92-4.29 7.09-6.52 12.08-7.29 2.63-0.4 5.32-0.64 7.99-0.65 12.5-0.06 25.01-0.04 37.51 0 1.52 0 3.05 0.19 4.56 0.41 3.79 0.54 6.24 2.85 7.49 6.31 1.62 4.47 1.45 9.07 0.05 13.55-0.93 2.97-3.24 4.86-6.25 5.61-1.83 0.46-3.77 0.64-5.67 0.65-8.42 0.07-16.84 0.03-25.26 0.03-1.02 0-2.04-0.01-3.06 0.04-3.99 0.2-5.83 2.38-6.12 5.59-0.33 3.67-0.27 7.4-0.06 11.08 0.16 2.71 1.74 3.95 4.57 4.2 1.26 0.11 2.54 0.1 3.82 0.11 6.38 0.01 12.76-0.02 19.14 0.02q2.49 0.01 4.95 0.33c4.03 0.53 6.32 3.06 7.28 6.83q1.09 4.31 0.18 8.72c-1.06 5.23-4.06 7.97-9.43 8.33-2.16 0.15-4.34 0.07-6.89 0.09z"/>
	<path id="Layer copy 123" class="s1" d="m477.12 1008.93c0.29 0.59 0.38 1.02 0.61 1.81 0.27 0.74 0.38 1.13 0.5 1.52 0.04 0.78 0.08 1.55 0.23 2.59-0.29 3.31 0.02 6.46-1.69 9.35-0.7-0.07-1.14-0.32-1.38-0.19-0.55 0.29-1.09 0.7-1.48 1.18-2.03 2.5-4.65 3.37-7.81 3.07-1.39-0.14-2.8-0.02-4.2-0.02-3.19 0-6.38 0.11-9.56-0.03-3.8-0.15-6.75 3.15-6.39 6.52 0.03 0.25 0 0.51 0 0.77q0 38.24 0.01 76.48c0 0.76-0.04 1.54 0.09 2.29 0.1 0.6 0.43 1.17 0.66 1.75-0.46 0.82-0.93 1.64-1.88 2.56-0.84 0.11-1.21 0.04-1.55 0.11-0.84 0.18-0.89 0.47-0.33 1.48-0.36 0.31-0.71 0.62-1.49 0.85-0.57-0.07-0.71-0.06-0.97-0.22-0.42-0.19-0.86-0.35-0.99-0.21-0.41 0.43-0.1 0.79 0.2 1.21-0.1 0.13-0.22 0.43-0.22 0.43-0.73 0.08-1.46 0.16-2.53-0.09-2.07-1.94-3.99-1.3-5.87-0.77-0.22 0.07-0.31 0.64-0.46 0.98-0.87-0.14-1.74-0.28-2.84-0.84-0.25-1.25-0.54-1.91-1.33-2.27-1.67-0.75-2.97-1.86-3.92-3.49-0.31-0.52-1.28-0.66-1.94-0.97-0.16-0.29-0.32-0.58-0.16-1.3 1.39-1.62 0.98-3.09 0.98-4.45q0.03-36.09 0.02-72.18 0.01-1.34-0.09-2.67c-0.07-0.94-0.77-1.21-1.58-1.3-0.21-0.38-0.42-0.75-0.47-1.51 0.1-0.83 0.2-1.46-0.06-1.71-1.04-0.97-2.33-1.45-3.78-1.43q-2.84 0.01-5.67 0-4.35 0.01-8.69 0.01c-1.02 0-1.69 0.39-1.87 1.45-0.44 0-0.87 0-1.49-0.42-1.36-2.52-1.81-2.69-4.24-1.92 0 0-0.18-0.1-0.09-0.46 0.2-1.58-0.65-1.58-1.48-1.6-0.35-0.66-0.7-1.31-0.81-2.24 0.44-0.51 0.84-0.78 0.81-0.98-0.12-0.78-0.82-0.6-1.36-0.65-0.96-2.05-0.48-4.21-0.19-6.71 1.35-1.43 1.35-1.43 0.33-2.6-0.04-2.39 1.3-4.14 3.29-5.96 4.58-1.39 8.68-2.02 12.92-1.71 1.64 0.12 3.29 0.13 4.93 0.27 1.38 0.12 2.75 0.48 4.13 0.49 9.03 0.05 18.06 0.03 27.09 0.02 0.89 0 1.85 0.14 2.65-0.15 2.36-0.84 4.77-0.6 7.17-0.62q5.92-0.03 11.83 0c1.9 0.01 3.81-0.19 5.64 0.59 0.65 0.27 1.23-0.1 1.66-0.63 2.32 0.68 3.7 2.42 5.11 4.52z"/>
	<path id="Layer copy 124" class="s5" d="m392.84 1119.87c-0.12-0.02-0.28-0.12-0.36-0.07-3.18 1.9-6.66 2.08-10.25 2.06-12.08-0.08-24.16-0.04-36.24-0.04q-2.1 0.01-4.19-0.03c-4.71-0.13-8.66-1.78-11.39-6.1 0.67-1.77-0.22-2.86-0.59-4.02-1.2-3.77-1.91-7.58-1.9-11.57 0.05-27.11 0.02-54.21 0.03-81.32 0-2.41-0.1-4.8 0.67-7.17 0.51-1.55 0.61-3.22 0.89-4.84 0.35-0.46 0.71-0.93 1.6-1.46 2.16-0.34 3.81-0.49 5.39-0.9 2.74-0.72 5.43-1.13 8.22-0.16 1.07 0.37 2.27 0.44 3.19-0.56 0.42 0.12 0.84 0.25 1.44 0.83 0.52 1.83 1.47 2.24 2.77 2.09 1.92 1.94 2.37 4.46 2.63 7 0.19 1.89 0.14 3.82 0.14 5.73q0 33.46-0.01 66.93c0 1.28-0.08 2.56 0.06 3.82 0.36 3.07 2.25 4.99 5.25 4.98 3.82-0.01 7.65 0.03 11.47 0.04 3.83 0 7.65-0.04 11.48 0 1.39 0.01 2.79 0.14 4.18 0.29 4.63 0.51 7.42 3.27 8.53 7.6 0.9 3.48 0.92 7.08 0.05 10.61-0.52 2.13-1.62 4-3.02 5.97 0.03 0.31-0.04 0.29-0.04 0.29z"/>
	<path id="Layer copy 125" class="s2" d="m481.93 1179.83c0.47 0.53 0.72 0.93 1.14 1.51 2.44 4.88 2.75 6.93 1.8 11.32-3.19 0.47-6.48 0.12-10.38 0.25-2.46 0.03-4.28 0.07-6.1 0.1q-2.25 0-4.48 0c-0.34 3.59 1.06 6.29 4.21 7.69 4.54 2.01 8.4 0.8 11.61-3.02 1.66 0.59 3.53 0.54 4.56 2.57-0.34 0.66-0.7 1.06-1.12 1.66-2.25 2.58-4.9 4.16-8.72 4.8-1.63 0.05-2.64 0.12-3.65 0.04-5.97-0.48-10.23-3.34-12.4-9.03-0.31-0.83-0.58-1.67-0.87-2.51-0.12-1.51-0.35-3.03-0.31-4.54 0.12-4.47 1.53-8.44 5.27-11.88 2.01-1.19 3.66-2.06 5.31-2.93 1.74-0.11 3.51-0.44 5.24-0.28 3.34 0.31 6.31 1.61 8.89 4.25zm-17.96 6.31c-0.03 0.6-0.06 1.2-0.11 1.99 5.14 0.06 10.07 0.12 15 0 0.63-2.21-0.33-3.72-1.47-5.09-1.18-1.41-2.78-2.19-4.63-2.4-3.84-0.43-6.5 1.12-8.79 5.5z"/>
	<path id="Layer copy 127" class="s2" d="m433.51 1180.26c0.48 0.52 0.72 0.93 1.14 1.51 2.44 4.88 2.76 6.92 1.8 11.31-3.19 0.48-6.47 0.13-10.38 0.26-2.46 0.03-4.28 0.06-6.1 0.1q-2.25 0-4.48 0c-0.33 3.59 1.06 6.28 4.21 7.68 4.54 2.01 8.4 0.81 11.62-3.02 1.65 0.59 3.52 0.55 4.55 2.58-0.34 0.66-0.7 1.06-1.11 1.66-2.25 2.58-4.91 4.15-8.73 4.79-1.62 0.06-2.64 0.13-3.65 0.05-5.97-0.48-10.22-3.34-12.4-9.04-0.31-0.82-0.58-1.67-0.87-2.5-0.11-1.52-0.35-3.03-0.31-4.54 0.12-4.48 1.54-8.44 5.27-11.89 2.01-1.19 3.66-2.06 5.31-2.92 1.75-0.11 3.52-0.45 5.24-0.29 3.34 0.31 6.31 1.62 8.89 4.26zm-17.96 6.31c-0.03 0.6-0.06 1.19-0.1 1.98 5.13 0.07 10.06 0.13 14.99 0.01 0.63-2.21-0.33-3.72-1.47-5.09-1.18-1.41-2.78-2.2-4.63-2.4-3.84-0.43-6.5 1.11-8.79 5.5z"/>
	<path id="Layer copy 126" class="s2" d="m795.46 1201.79c-0.53-2.01-1.19-3.84-0.57-6.09 1.46-4.32 4.54-6.27 8.52-7.06 1.11-0.21 2.26-0.28 4.03-0.43 2.52-0.07 4.42 0.3 6.2-0.26 0.6-3.96-0.74-6.32-4.05-7.14-1.62-0.4-3.27-0.37-4.86 0.33-1.57 0.69-2.89 1.6-3.37 3.36-2.63-0.08-2.63-0.08-5.21-1.58 1.03-2.88 2.21-4.43 4.55-5.68 4.17-2.23 8.53-2.45 12.84-0.59 4.1 1.77 6.26 5.02 6.27 9.57 0.01 6.34 0 12.68-0.05 19.38-1.67 0.36-3.31 0.36-5.14 0.36q-0.42-1.1-0.86-2.26c-5.44 2.91-8.45 3.63-11.86 2.81-2.72-0.65-4.81-2.18-6.44-4.72zm5.21-3.98c0.26 2.35 1.72 3.66 3.9 4.07 2.79 0.53 5.31-0.25 7.41-2.15 1.98-1.79 2.13-4.12 1.97-6.53-2.92-0.52-7.05-0.58-8.89-0.1-2.19 0.57-4.07 1.53-4.39 4.71z"/>
	<path id="Layer copy 128" class="s2" d="m611.93 1195.98c-0.18 3.16-0.36 6.32-0.54 9.59-1.61 0.96-3.33 0.46-5 0.37-0.72-3.14-0.88-15.51-0.36-29.3 1.58-0.38 3.1-0.42 4.94-0.5 0.33-0.04 0.31-0.02 0.4 0.24 0.14 0.8 0.2 1.35 0.18 2.11 0.06 0.5 0.2 1.02 0.33 1.02 0.68 0 1.04-0.42 1.02-1.14-0.03-0.01 0.01 0.03 0.14-0.11 0.31-0.3 0.49-0.46 0.93-0.68 1.04-1.34 2.52-1.25 4.01-1.83 4.03-0.79 7.33 0.27 10.5 2.44 0.4 0.47 0.73 0.74 1.16 1.28 1.94 3.11 2.15 6.37 2.39 9.61-0.05 1.07-0.1 2.13-0.08 3.52 0.03 0.65-0.02 0.99-0.07 1.84 0.05 0.85 0.09 1.19 0.13 1.53-0.09 3.15-0.19 6.3-0.29 9.7-0.97 0.12-1.8 0.27-2.64 0.32-0.88 0.06-1.76 0.02-2.87 0.02-0.13-0.96-0.34-1.8-0.34-2.64-0.04-4.82-0.21-9.65 0.01-14.46 0.16-3.54-1.63-5.7-4.24-7.51-0.5-0.34-1.16-0.53-1.77-0.6-3.39-0.41-7.04 2.05-7.72 5.38-0.35 1.72-0.26 3.52-0.36 5.94 0.04 1.72 0.09 2.79 0.14 3.86z"/>
	<path id="Layer copy 129" class="s2" d="m754.29 1202.77c-4.72 4.86-10.35 4.94-16.25 2.88-3.01-1.05-4.49-2.99-5.56-6.29 0.29-0.21 0.56-0.51 0.89-0.65 1.06-0.42 2.14-0.79 3.4-1.25 0.65 0.78 1.22 1.59 1.91 2.28 2.36 2.38 6.03 2.97 8.81 1.44 1.29-0.71 2.29-1.72 2.23-3.29-0.05-1.54-1.01-2.59-2.39-3.18-0.94-0.4-1.92-0.67-2.9-0.96-1.46-0.44-2.97-0.76-4.4-1.28-1.19-0.43-2.37-0.96-3.43-1.63-4.93-3.14-4.37-9.48-0.95-12.51 5.74-5.08 15.51-3.07 18.52 2.37 0.23 0.42 0.31 0.91 0.51 1.49-1.3 1.08-2.69 1.56-4.36 1.79q-0.75-0.75-1.55-1.55c-1.91-1.91-4.25-2.17-6.74-1.71-0.59 0.11-1.19 0.46-1.68 0.84-1.78 1.4-1.68 3.98 0.22 5.17 0.74 0.46 1.61 0.76 2.46 1.01 1.83 0.53 3.69 0.99 5.97 1.67 0.85 0.33 1.25 0.47 1.81 0.82 3.79 2.12 5.53 5.02 4.81 9.19-0.02 0.12 0.01 0.25-0.11 0.62-0.49 1.07-0.85 1.9-1.22 2.73z"/>
	<path id="Layer copy 130" class="s2" d="m382.72 1197.57c0.86 0.42 1.48 0.98 2.42 1.86 0.68 0.54 1.04 0.76 1.39 0.98 1.74 1.52 3.76 1.78 6.17 1.27 1.02-0.51 1.97-0.7 2.57-1.26 1.77-1.66 1.38-4.34-0.78-5.44-1.12-0.58-2.38-0.88-3.6-1.25-1.94-0.6-3.95-1.03-5.84-1.77-3.11-1.22-4.97-3.52-5.14-6.94-0.18-3.51 1.27-6.23 4.35-7.92 3.95-2.16 8.1-2.41 12.11-0.35 2.21 1.13 4.35 2.65 4.66 5.76-0.08 0.25-0.31 0.26-0.63 0.36-0.92 0.39-1.52 0.67-2.12 0.95-0.55-0.04-1.11-0.08-2.01-0.48-1.11-0.99-1.78-1.83-2.66-2.21-2.17-0.96-4.4-1.01-6.43 0.46-1.96 1.43-1.85 4.2 0.33 5.25 1.43 0.69 3.09 0.92 4.64 1.35 1.2 0.39 2.41 0.75 3.59 1.18 5.34 1.94 7.55 6.12 6.34 10.85-0.3 0.75-0.61 1.15-0.86 1.58-1.34 2.35-3.37 3.76-5.95 4.41-3.53 0.9-7.06 0.95-10.47-0.46-2.81-1.16-4.93-3.05-5.61-6.11 0.74-1.45 2.24-1.29 3.53-2.07z"/>
	<path id="Layer copy 131" class="s2" d="m764.59 1202.73c-0.01-0.24-0.1-0.44-0.49-0.93-2.34-4.46-3.54-8.77-2.99-13.46 0.59-1.62 1.15-3.26 1.77-4.87 0.83-2.1 2.13-3.88 4.26-5.59 2.07-0.81 3.72-1.4 5.4-1.92 2.24-0.7 4.48-0.57 6.78-0.08 3.28 0.69 5.74 2.61 8.04 4.85 0.34 0.86 0.69 1.71 0.73 2.94-1.73 0.76-3.02 1.75-4.55 1.56-5.78-6.58-12.5-5.84-15.32 1.82-1.05 3.18-1.26 6.08 0.15 9.2 1.09 3.13 3.25 4.64 6.17 5.2 4 0.76 6.72-1.31 9.15-4.37 1.35 0.43 2.69 0.75 3.93 1.29 0.45 0.2 0.66 0.95 0.8 1.64-0.49 0.61-0.78 1.02-1.09 1.42-2.72 3.57-6.36 5.25-10.82 5.34-4.47 0.08-8.35-1.52-11.92-4.04z"/>
	<path id="Layer copy 132" class="s2" d="m449.91 1179.89c-0.04 0.82-0.09 1.64-0.13 3.04 0.04 1.17 0.09 1.74 0.14 2.32q-0.06 8.2-0.14 16.4c-0.01 1.37-0.07 2.75-0.11 4.22-1.67 0.61-3.17 0.26-4.99 0.07-0.43-1.68-0.58-3.32-0.59-4.96-0.03-11.14-0.03-22.27-0.13-33.76 0.03-1.1 0.13-1.85 0.63-2.87 1.67-0.34 2.96-0.41 4.25-0.47 1.17 0.82 0.74 2.08 0.88 3.82 0.06 4.49 0.13 8.34 0.19 12.19z"/>
	<path id="Layer copy 133" class="s5" d="m419.72 1033.23c0.85-0.26 1.55 0.01 1.62 0.95q0.1 1.33 0.09 2.67 0.01 36.09-0.02 72.18c0 1.36 0.41 2.83-0.96 4.2-0.43-1.97-0.66-4.12-0.66-6.27q-0.03-33.63-0.02-67.26c0-2.04-0.06-4.08-0.05-6.47z"/>
	<path id="Layer copy 134" class="s5" d="m399.57 1029.77c-0.17-1.14 0.5-1.53 1.52-1.53q4.34 0 8.69-0.01 2.83 0.01 5.67 0c1.45-0.02 2.74 0.46 3.78 1.43 0.26 0.25 0.16 0.88 0.03 1.5-1.46-1.01-2.96-1.34-4.67-1.31-4.89 0.06-9.78 0-15.02-0.08z"/>
	<path id="Layer copy 135" class="s6" d="m347.69 1003.52c-0.7 1.17-1.9 1.1-2.97 0.73-2.79-0.97-5.48-0.56-8.22 0.16-1.58 0.41-3.23 0.56-5.18 0.82 0.85-1.48 2.53-1.98 4.26-2.29 3.99-0.7 7.98-0.95 12.11 0.58z"/>
	<path id="Layer copy 136" class="s5" d="m420.56 1115.04c0.69 0.05 1.66 0.19 1.97 0.71 0.95 1.63 2.25 2.74 3.92 3.49 0.79 0.36 1.08 1.02 1.1 2.13-2.41-0.09-4.36-1.3-6.12-3.5-0.34-0.82-0.58-1.18-0.82-1.54-0.02-0.35-0.04-0.69-0.05-1.29z"/>
	<path id="Layer copy 137" class="s5" d="m430.95 1122.44c-0.18-0.43-0.09-1 0.13-1.07 1.88-0.53 3.8-1.17 5.6 0.73-1.75 0.33-3.57 0.38-5.73 0.34z"/>
	<path id="Layer copy 138" class="s5" d="m393.64 1027.55c2.28-0.97 2.73-0.8 3.9 1.61-1.43 0.13-2.7-0.41-3.9-1.61z"/>
	<path id="Layer copy 139" class="s6" d="m352.01 1006.38c-1.19 0.38-2.14-0.03-2.51-1.68 0.77 0.29 1.59 0.87 2.51 1.68z"/>
	<path id="Layer copy 140" class="s5" d="m443.19 1120.13c-0.8-0.97-0.75-1.26 0.09-1.44 0.34-0.07 0.71 0 1.36 0.05-0.21 0.48-0.7 0.92-1.45 1.39z"/>
	<path id="Layer copy 141" class="s5" d="m390.55 1012.3c1.17 0.98 1.17 0.98-0.1 2.09-0.17-0.6-0.11-1.24 0.1-2.09z"/>
	<path id="Layer copy 142" class="s5" d="m391.98 1025.51c0.77-0.2 1.62-0.2 1.37 1.29-0.53-0.18-0.91-0.63-1.37-1.29z"/>
	<path id="Layer copy 143" class="s5" d="m390.55 1021.67c0.55-0.2 1.25-0.38 1.37 0.4 0.03 0.2-0.37 0.47-0.79 0.75-0.35-0.27-0.47-0.58-0.58-1.15z"/>
	<path id="Layer copy 144" class="s2" d="m569.55 1196.59c-0.19-1.49-0.5-2.97-0.55-4.46-0.16-4.39 0.82-8.46 4.12-12.19 1-0.98 1.67-1.62 2.34-2.26 0 0-0.08-0.04 0.22-0.07 4.24-2.08 8.34-2.83 12.66-1.52 1.32 0.4 2.58 0.97 3.99 1.65 0.51 0.41 0.89 0.65 1.27 0.88 0.06 0.11 0.09 0.25 0.18 0.33 4.68 4.59 5.93 10.14 4.53 16.9-0.09 0.77-0.11 1.04-0.31 1.49-0.56 1.1-0.95 2.02-1.55 3.09-0.99 0.99-1.7 1.9-2.55 2.67-6.53 5.91-19.11 4.99-23.34-4.46-0.31-0.7-0.67-1.37-1.01-2.05zm21.53-11.97c-0.7-0.73-1.3-1.62-2.12-2.17-5.75-3.86-11.98-0.58-13.41 4.86-0.72 2.75-0.69 5.59 0.13 8.33 0.81 2.72 2.54 4.78 5.35 5.53 5.64 1.52 10.26-1.83 11.33-6.34 0.8-3.38 0.43-6.58-1.28-10.21z"/>
	<path id="Layer copy 145" class="s2" d="m473.73 1241.24c-0.22-0.41-0.19-0.74-0.14-1.32 0.19-0.42 0.44-0.56 0.54-0.77 2.48-5.14 10.37-6.81 16.03-4.54 2.05 0.81 3.58 2.3 5.13 4.52 1.57 2.9 0.98 5.6 1.33 8.17q-0.06 5.52-0.13 11.05c-0.02 1.51-0.09 3.01-0.14 4.66-1.77 0.6-3.38 0.41-5.13 0.24-0.13-0.77-0.26-1.5-0.41-2.32-0.33 0.07-0.78 0.03-1 0.24-2.71 2.54-5.97 3.3-9.54 2.91-5.25-0.59-8.74-4.7-8.26-9.62 0.33-3.51 3.09-6.64 7.04-7.65 2.08-0.53 4.26-0.71 6.4-0.96 1.13-0.12 2.29-0.03 4.02-0.09 0.75-0.29 0.9-0.54 1.06-0.79 0.39-2.69-0.46-4.84-3.07-5.82-2.63-0.99-5.25-0.81-7.49 1.11-0.75 0.65-1.35 1.48-2.19 2.4-1.23-0.43-2.51-0.89-4.05-1.42zm4.95 16.37q4.42 3.42 8.7 0.66c2.82-1.82 3.76-4.18 3.03-7.97-2.33-0.15-4.73-0.18-7.1 0.14-0.99 0.13-1.98 0.49-2.89 0.89-1.5 0.67-2.44 1.84-2.44 3.54 0 0.75 0.22 1.49 0.7 2.74z"/>
	<path id="Layer copy 146" class="s2" d="m523.47 1255.36c0.94-0.24 0.97-1.09 1.12-1.8 0.75-3.49 3.06-5.47 6.28-6.54 2.43-0.8 4.94-1.16 7.51-1.17 1.49 0 3.05 0.32 4.67-0.48-0.06-1-0.02-2.01-0.19-2.98-0.24-1.32-1.06-2.27-2.24-2.93-2.64-1.49-6.71-0.93-8.81 1.28-0.53 0.54-0.95 1.17-1.51 1.88-1.6-0.48-3.2-0.8-4.56-1.84 0.53-2.31 2.4-3.61 3.7-5.3 0.07-0.1 0.17-0.2 0.27-0.23 4.79-1.71 9.55-2.74 14.28 0.25 3.03 1.91 4.74 4.55 4.8 8.13q0.12 6.5 0.04 12.99c-0.02 2.13 0.2 4.29-0.34 6.57-1.76 0.23-3.35 0.36-4.95-0.05-0.2-0.79-0.38-1.5-0.62-2.47-0.65 0.49-1.14 0.85-1.62 1.23-3.16 2.54-6.75 2.76-10.48 1.78-3.06-0.81-5.07-2.81-6.03-5.84-0.22-0.73-0.45-1.45-0.99-2.3-0.32-0.13-0.33-0.18-0.33-0.18zm12.95 4.11c0.73-0.22 1.49-0.35 2.18-0.66 3.68-1.63 4.82-3.84 4.29-8.2-2.73-0.53-6.64-0.49-8.6 0.16-0.83 0.28-1.69 0.62-2.39 1.13-2.47 1.8-2.15 5.69 0.6 6.93 1 0.46 2.2 0.47 3.92 0.64z"/>
	<path id="Layer copy 148" class="s2" d="m605.13 1250.36c0 1.39-0.13 2.8 0.04 4.17 0.29 2.39 1.8 3.81 4.16 4.35 5.46 1.23 8.71-2.96 8.9-6.89 0.2-4.2 0.1-8.4 0.12-12.61 0.01-1.51 0-3.02 0-4.44 2.36-0.68 2.36-0.68 5.18-0.3 0.17 0.63 0.52 1.33 0.52 2.04q0.09 12.61 0.1 25.21c0 0.36-0.18 0.72-0.32 1.21-1.72 0.56-3.44 0.35-5.2 0.09-0.16-0.83-0.3-1.56-0.49-2.5-0.51 0.31-0.95 0.51-1.3 0.81-3.45 2.89-7.31 3.3-11.48 1.96-2.61-0.83-4.42-2.56-5.23-5.14-0.54-1.68-0.98-3.47-1.02-5.22-0.12-5.72-0.03-11.46-0.01-17.19 0.01-0.35 0.18-0.71 0.34-1.33 0.81-0.08 1.66-0.21 2.51-0.24 0.75-0.02 1.51 0.07 2.39 0.12 1.01 3.04 0.22 6.11 0.59 9.76 0.08 2.5 0.14 4.32 0.2 6.14z"/>
	<path id="Layer copy 149" class="s2" d="m544.55 1178.08c0.94 1.04 1.87 2.07 3.06 3.48 0.45 0.84 0.63 1.3 0.89 1.93-0.89 0.4-1.66 0.81-2.47 1.11-0.81 0.3-1.66 0.5-2.52 0.75-0.68-0.79-1.21-1.5-1.84-2.11-2.59-2.55-5.85-3.13-9.13-1.62-2.21 1.02-3.68 2.67-4.38 5.3-0.3 1.08-0.44 1.96-0.71 3.08-0.56 2.34-0.04 4.33 0.72 6.21 2.47 6.13 9.95 7.27 14.24 2.22 0.4-0.48 0.76-0.99 1.22-1.59 1.74 0.58 3.41 1.12 5.1 1.71 0.02 0.04 0.04 0.13-0.04 0.31-0.15 0.58-0.21 0.97-0.49 1.52-0.61 0.65-0.98 1.17-1.39 1.64-2.82 3.26-6.37 4.76-10.69 4.81-3.57 0.05-6.66-1.16-9.63-2.93-2.05-2.17-3.73-4.56-4.76-7.9-0.26-0.85-0.42-1.24-0.58-1.63 0.17-2.58 0.34-5.16 0.63-8.27 0.58-1.64 1.05-2.74 1.51-3.84 0.97-1.06 1.93-2.11 3.27-3.48 2.38-1.3 4.38-2.29 6.38-3.28 3.26 0 6.53-0.1 9.99 1.66 0.82 0.48 1.22 0.7 1.62 0.92z"/>
	<path id="Layer copy 162" class="s2" d="m512.55 1178.08c0.94 1.04 1.87 2.07 3.06 3.48 0.45 0.84 0.63 1.3 0.89 1.93-0.89 0.4-1.66 0.81-2.47 1.11-0.81 0.3-1.66 0.5-2.52 0.75-0.68-0.79-1.21-1.5-1.84-2.11-2.59-2.55-5.85-3.13-9.13-1.62-2.21 1.02-3.68 2.67-4.38 5.3-0.3 1.08-0.44 1.96-0.71 3.08-0.56 2.34-0.04 4.33 0.72 6.21 2.47 6.13 9.95 7.27 14.24 2.22 0.4-0.48 0.76-0.99 1.22-1.59 1.74 0.58 3.41 1.12 5.1 1.71 0.02 0.04 0.04 0.13-0.04 0.31-0.15 0.58-0.21 0.97-0.49 1.52-0.61 0.65-0.98 1.17-1.39 1.64-2.82 3.26-6.37 4.76-10.69 4.81-3.57 0.05-6.66-1.16-9.63-2.93-2.05-2.17-3.73-4.56-4.76-7.9-0.26-0.85-0.42-1.24-0.58-1.63 0.17-2.58 0.34-5.16 0.63-8.27 0.58-1.64 1.05-2.74 1.51-3.84 0.97-1.06 1.93-2.11 3.27-3.48 2.38-1.3 4.38-2.29 6.38-3.28 3.26 0 6.53-0.1 9.99 1.66 0.82 0.48 1.22 0.7 1.62 0.92z"/>
	<path id="Layer copy 150" class="s2" d="m591.97 1239.02c0.03 0.66 0.2 1.39-0.53 1.7-1.15 0.5-2.36 0.87-3.67 1.34-0.52-0.52-0.99-0.92-1.37-1.39-1.89-2.32-4.36-2.42-6.98-1.8-1.51 0.36-2.52 1.59-2.59 2.95-0.08 1.49 0.78 2.46 2 2.97 1.52 0.65 3.14 1.05 4.71 1.57 1.57 0.51 3.23 0.87 4.69 1.59 5.83 2.9 6.4 10.1 1.28 14.11-3.6 2.8-12.73 3.17-16.78-1.04-1.07-1.12-2.01-2.3-2.41-4.06 0.76-0.42 1.49-0.88 2.26-1.23 0.68-0.3 1.42-0.48 2.17-0.72 0.62 0.8 1.1 1.56 1.71 2.19 2.14 2.21 5.8 2.84 8.49 1.52 1.36-0.66 2.31-1.65 2.26-3.24-0.04-1.39-0.78-2.44-2.08-2.95-1.41-0.56-2.88-1-4.33-1.47-1.58-0.51-3.22-0.86-4.73-1.52-5.41-2.36-6.38-7.49-3.38-12.39 0.67-1.09 1.92-2.24 3.1-2.54 2.82-0.7 5.7-1.48 8.68-0.77 1.91 0.45 3.62 1.19 4.97 2.68 0.68 0.75 1.4 1.48 2.3 2.36 0.2 0.15 0.26 0.12 0.23 0.14z"/>
	<path id="Layer copy 151" class="s2" d="m669.83 1163.5c0.7 0.48 1.07 0.94 1.52 1.62-0.08 1.2-0.23 2.19-0.41 3.32-1.08 0-2.06-0.04-3.04 0.01-2.7 0.14-3.99 1.29-4.28 3.92-0.12 1.1-0.02 2.23-0.02 3.4 2.21 0.92 4.46 0 6.53 0.7 1.02 1.41 0.71 2.87 0.32 4.47-2.08 0.9-4.33-0.04-6.59 0.76-0.09 0.75-0.29 1.6-0.29 2.46q-0.05 8.78-0.06 17.56c0 1.25 0 2.51 0 3.87-1.91 0.66-3.6 0.45-5.52 0.16-0.55-7.76 0.11-15.38-0.51-23.48-0.4-0.59-0.66-0.66-0.93-0.74-1.09-0.11-2.19-0.21-3.36-0.32-0.5-1.54-0.28-2.99-0.17-4.71 1.24-0.12 2.43-0.23 4.06-0.5 0.49-0.23 0.59-0.32 0.58-0.39-0.04-0.17-0.13-0.34-0.19-0.5 0.25-2.61 0.21-5.24 1.28-7.75 0.63-1.49 1.51-2.39 3.07-2.95 2.52-0.92 5.01-1.6 8.01-0.91z"/>
	<path id="Layer copy 152" class="s2" d="m683.64 1194.25q-0.1 3.98-0.22 7.96c-0.04 1.12-0.11 2.23-0.17 3.51-1.89 0.41-3.6 0.4-5.29 0.03-0.65-3.03-0.87-19.42 0.11-29.44 1.34-0.22 2.16-0.27 2.98-0.31 0.54 0.08 1.07 0.16 1.88 0.55 0.37 0.98 0.47 1.65 0.65 2.89 1.51-2.24 3.54-2.72 5.3-3.65 1.6-0.09 3.24-0.83 4.87 0.52 0.47 1.46 0.26 3.05 0.11 4.91-0.81 0.07-1.51 0.14-2.83 0.2-5.65 0.85-6.65 2.64-7.18 6.43q-0.02 0.18 0 0.37c-0.11 0.71-0.22 1.41-0.32 2.61 0.04 1.48 0.08 2.45 0.11 3.42z"/>
	<path id="Layer copy 153" class="s2" d="m518.36 1233.54c0.58 0.02 0.85 0.1 1.33 0.15 1.41 1.79 0.59 3.61 0.34 5.43-7.39 0.77-8.38 1.47-9.77 7.47-0.01 4.49 0.02 8.34 0.06 12.19-0.1 1.38-0.19 2.76-0.29 4.32-0.96 0.11-1.82 0.27-2.67 0.3-0.88 0.02-1.76-0.08-2.81-0.13-0.67-3.19-0.16-6.36-0.26-9.49-0.11-3.18-0.1-6.36-0.07-9.54 0.04-3.16-0.1-6.32 0.21-9.53 1.96-0.52 3.7-0.54 5.61 0.39 0.22 1.09 0.28 1.65 0.41 2.78 0.64-1.03 1-1.59 1.35-2.14 2.02-0.93 3.88-2.29 6.56-2.2z"/>
	<path id="Layer copy 154" class="s2" d="m561.08 1205.97c-1.35 0.16-2.42 0.11-4.07-0.06-0.77-1.61-0.97-3.1-1.17-4.58 0.04-6.15 0.08-12.29 0.05-18.79 0.01-1.93 0.07-3.51 0.17-5.08 0.07-1.14 0.9-1.29 2.42-1.31 1.42 0 2.23 0.01 3.04 0.02 0.1 4.33 0.19 8.65 0.29 13.58 0.06 0.94 0.11 1.28 0.16 1.63-0.07 3.55-0.12 7.1-0.23 10.65-0.04 1.25-0.25 2.49-0.66 3.94z"/>
	<path id="Layer copy 155" class="s2" d="m586.89 1170.7c-0.88 0.43-1.75 0.87-3.16 1.29-1.32-0.04-2.12-0.07-2.91-0.09-0.08-1.29 1.09-1.91 1.85-3.28 1.34-1.81 2.4-3.25 3.46-4.69 1.93 0.05 3.86 0.09 5.71 0.42-1.71 2.31-3.33 4.33-4.95 6.35z"/>
	<path id="Layer copy 156" class="s2" d="m557.02 1163.93c1.79-0.38 3.46-0.36 4.76 1.23 1.29 1.58 1.28 3.21-0.13 4.68-0.9 0.94-1.96 1.54-3.73 1.31-0.83-0.33-1.24-0.5-1.64-0.68-0.7-1.04-1.39-2.09-1.2-3.82 0.72-1.16 1.33-1.94 1.94-2.72z"/>
	<path id="Layer copy 157" class="s2" d="m464.1 1258.41c-0.65 0.8-1.2 1.32-1.74 1.86-4.77 4.71-10.76 5.2-16.26 1.33-0.48-0.34-0.97-0.67-1.84-1.28-0.11 5.26-0.21 10.05-0.31 14.93-1.91 0.69-3.59 0.52-5.25 0.21-0.54-3.4-0.55-36.98-0.01-40.83 1.51-0.56 3.13-0.32 4.96-0.23 0.28 0.89 0.57 1.79 0.94 2.95 0.73-0.55 1.3-1.02 1.91-1.43 5.43-3.77 12.71-2.64 16.69 2.6 0.7 0.9 1.31 1.87 2.13 3.02 1.4 4.25 1.83 8.33 0.58 12.44-0.43 1.42-1.13 2.77-1.8 4.43zm-12.33-19.6c-3.61 0.4-6.19 2.22-7.33 5.72-1.07 3.25-0.83 6.53 0.44 9.69 1.07 2.66 3.03 4.31 5.95 4.72 4.53 0.63 8.58-2.18 9.56-6.75 0.51-2.39 0.43-4.82-0.32-7.15-1.19-3.71-3.55-6.09-8.3-6.23z"/>
	<path id="Layer copy 158" class="s2" d="m740.95 1257.12c-0.07 1.14-0.17 2.28-0.21 3.42-0.04 1.14 0.05 2.3-0.04 3.44-0.57 7.14-4.11 11.35-12.06 12.37-2.29 0.29-4.56 0-6.79-0.7-3.48-1.1-6.08-3.1-7.38-6.58 1.39-1.42 1.39-1.42 4.35-2.5 0.39 0.53 0.79 1.14 1.26 1.69 2.92 3.44 8 4.18 11.75 1.74q2.38-1.54 2.89-4.31 0.2-1.13 0.16-2.28c-0.02-0.99-0.14-1.97-0.25-3.31-0.91 0.49-1.56 0.79-2.16 1.17-7.3 4.55-14.76 0.52-17.67-4.87-2.85-5.26-2.65-10.53-0.12-15.75 1.91-3.92 5.27-6.1 9.77-7.04 0.84-0.09 1.41-0.06 2.54 0.01 3.22 0.41 5.35 1.9 7.68 3.77 0.14-1.26 0.24-2.11 0.34-2.97 1.74 0 3.47 0 5.43 0 0.11 1.12 0.21 2.08 0.37 3.36 0.03 6.04 0 11.76 0 17.98 0.06 0.79 0.1 1.08 0.14 1.36zm-8.25-15.9c-0.38-0.33-0.73-0.73-1.15-1-5.05-3.16-10.72-0.91-12.28 4.83-0.69 2.54-0.57 5.05 0.22 7.51 1.22 3.8 4.8 6.02 8.6 5.3 3.4-0.64 5.79-2.54 6.68-6 0.94-3.63 0.41-7.05-2.07-10.64z"/>
	<path id="Layer copy 159" class="s2" d="m706.71 1242.59c0.4 1.29 0.66 2.41 0.83 3.54 0.55 3.76 0 7.34-1.86 10.68-3.94 7.1-10.92 8.17-15.86 6.98-6.6-1.58-11-7.03-11.08-13.72-0.02-1.76 0.16-3.55 0.51-5.28 1.09-5.5 4.51-8.93 9.81-10.57 0.48-0.15 0.97-0.28 1.7-0.55 1.26-0.1 2.28-0.1 3.29-0.02 4.58 0.38 8.27 2.37 10.93 6.14 0.58 0.82 1.03 1.74 1.73 2.8zm-22.14 5.91c0.11 1.27 0.1 2.57 0.36 3.8 0.6 2.92 2.09 5.27 5.06 6.21 3.82 1.2 8.44 0.51 10.77-4.72 1.31-2.92 1.25-5.95 0.27-8.97-1.23-3.8-4.16-6.01-7.93-6.01-3.61 0-6.83 2.38-7.98 6.01-0.3 0.96-0.35 2-0.55 3.68z"/>
	<path id="Layer copy 160" class="s2" d="m781.39 1234.18c1.13 0.09 2.27 0.19 3.6 0.3q0.23 1.48 0.45 2.91c0.24-0.05 0.57 0 0.7-0.15 1.52-1.6 3.21-2.9 5.44-3.36 1.34-0.27 1.33-0.3 3.84 0.4 0.62 1.54 0.36 3.13-0.22 5.03-0.06 0.31-0.1 0.21-0.1 0.21-0.88-0.11-1.77-0.35-2.64-0.3-3.28 0.2-5.76 2.24-6.51 5.45-0.37 1.59-0.52 3.26-0.57 4.89-0.1 3.43-0.06 6.86-0.1 10.29-0.01 0.99-0.09 1.99-0.15 3.11-1.67 0.66-3.26 0.41-4.72 0.27-0.22-0.23-0.32-0.31-0.4-0.41-0.07-0.1-0.15-0.22-0.15-0.33-0.03-9.13-0.04-18.27 0.25-27.77 0.62-0.42 0.95-0.48 1.28-0.54z"/>
	<g id="Layer 1">
	</g>
</svg>