<svg version="1.2" xmlns="http://www.w3.org/2000/svg" viewBox="0 0 1640 544" width="1640" height="544">
	<style>
		.s0 { fill: #213726 } 
		.s1 { fill: #203826 } 
		.s2 { fill: #ca650b } 
		.s3 { fill: #213826 } 
		.s4 { fill: #213827 } 
		.s5 { fill: #203825 } 
		.s6 { fill: #344536 } 
	</style>
	<path id="Layer copy" class="s0" d="m134.67 398.13c-11.48-3.42-22.04-7.93-32.3-13.16-28.08-14.3-48.59-35.8-61.64-64.55-8.43-18.58-13.11-38.01-14.9-58.29-1.52-17.34-1.34-34.68-0.53-52.01 0.56-12.23 1.93-24.42 2.92-36.4 2.27-1.72 4.4-0.98 6.34-0.72 7.29 0.96 14.57 1.95 21.8 3.26 13.17 2.4 26.16 5.56 38.82 9.94 15.05 5.2 29.25 12.03 42.16 21.44 17.96 13.1 31.13 30 40.05 50.28 6.75 15.33 10.32 31.45 11.88 48.08 1.09 11.66 1.21 23.35 1.12 35.04-0.09 11.51-0.14 23.02-0.4 34.52-0.21 9.05-0.68 18.1-1.08 27.14-0.08 1.68-0.38 3.35-0.56 4.95-7.6 1.26-34.54-3.54-53.68-9.52z"/>
	<path id="Layer copy 2" class="s1" d="m1007.93 288.89c-0.33 1.07-0.71 2.13-0.98 3.21-1.3 5.35-5.12 8.17-10.06 9.46-6.44 1.69-12.92 1.58-19.44-0.06-5.71-1.43-9.38-4.74-11.14-10.93-0.18-0.82-0.31-1.01-0.57-1.11-1.62-6.57-3.43-13.09-4.78-19.72-0.71-3.55-2.68-6.03-5.33-8.64-1.61-0.07-3.48-0.23-5.35-0.24q-16.95-0.01-33.9 0.02-1.42 0.01-2.83 0.1c-2.95 0.18-4.93 1.66-5.7 4.55-1.45 5.45-2.84 10.91-4.28 16.36-0.73 2.73-1.4 5.48-2.31 8.14-2.37 6.9-7.39 10.7-14.49 11.73-6.8 0.98-13.44 0.75-19.9-2.22-2.47-1.13-3.89-2.62-4.82-4.99-2.37-6.02-2.43-12.16-0.87-18.31 2.9-11.48 5.85-22.96 9.01-34.38 7.03-25.37 14.2-50.71 21.56-76.76 0.33-1.34 0.39-1.98 0.71-2.98 2.25-6.54 4.25-12.71 6.26-18.89 0.36-0.54 0.71-1.08 1.33-2.27 1.96-4.21 4.54-6.96 7.61-9.39 2.98-2.36 6.12-4.27 9.71-5.54 9.48-3.35 19.12-3.3 28.85-1.45 6.88 1.31 12.52 4.84 17.26 9.91 1.02 1.09 2.02 2.19 3.18 3.69 0.49 0.83 0.83 1.28 1.13 1.88 0.01 0.41 0.16 0.55 0.52 0.93 0.73 1.41 1.36 2.46 2 3.88 0.8 2.4 1.59 4.41 2.36 6.81 0.19 0.85 0.39 1.31 0.64 2.22 0.19 0.98 0.31 1.54 0.46 2.08 6.32 22.41 12.8 44.77 18.91 67.24 5.28 19.38 10.14 38.88 15.13 58.79 0.01 2.6 0.06 4.74 0.12 6.88zm-70.78-116.08c-0.27-0.49-0.48-1.05-0.84-1.47-1.98-2.28-3.89-2.14-5.22 0.47-0.68 1.33-1.16 2.78-1.55 4.23q-5.91 21.46-11.76 42.94c-0.2 0.72-0.39 1.46-0.48 2.2-0.34 2.75 0.91 4.41 3.56 4.7 0.93 0.1 1.88 0.07 2.82 0.07q9.88 0 19.76-0.01c1.12-0.01 2.26 0.02 3.38-0.13 2.4-0.31 3.71-1.86 3.39-4.29-0.26-2.04-0.8-4.05-1.34-6.04-3.79-13.96-7.61-27.91-11.72-42.67z"/>
	<path id="Layer copy 3" class="s1" d="m1161.54 139.44c-0.76 10.01-3.38 19.25-5.95 28.5-7.91 28.47-15.82 56.95-23.97 86.11-0.27 1.09-0.3 1.5-0.33 1.91-1.15 3.56-2.34 7.12-3.45 10.7-1.61 5.19-3.26 10.34-5.64 15.27-6.21 12.83-16.51 19.45-30.49 20.83-10.12 1.01-19.82-0.54-29.09-4.72-1.46-0.66-2.87-1.62-4.06-2.72-2.05-1.88-3.91-3.97-6.18-6.36-0.32-0.39-0.42-0.82-0.36-1.17-0.39-0.83-0.86-1.32-1.54-2.04-0.68-0.92-1.14-1.59-1.65-2.69-0.48-1.63-0.91-2.83-1.35-4.03-1.55-4.13-3.11-8.25-4.63-12.71-0.23-0.91-0.49-1.5-0.8-2.51-7.93-27.82-15.8-55.21-23.7-82.59-2.02-7.01-4.13-14-6.16-21.32-0.19-0.9-0.43-1.48-0.68-2.48-0.76-3.14-1.54-5.85-2.22-8.6-1.05-4.27-1.02-8.55-0.35-12.91 0.74-4.8 3.7-7.56 7.8-9.48q1.28-0.6 2.66-0.93c6.53-1.57 13.08-1.86 19.61-0.14 5.37 1.41 9.53 4.52 12 9.56 1.16 2.35 2.18 4.83 2.85 7.35q7.01 26.51 13.82 53.06c4.35 16.97 8.57 33.98 12.9 50.96 0.5 1.99 1.11 4.02 2.05 5.84 1.46 2.84 4.68 2.89 6.26 0.08 1.09-1.95 1.86-4.13 2.45-6.3q3.56-13.09 6.9-26.24c6.44-25.38 12.8-50.78 19.26-76.16 0.74-2.91 1.63-5.83 2.89-8.54 2.76-5.91 7.47-9.44 14.06-9.94 3.74-0.28 7.52-0.24 11.28-0.12 6.25 0.2 11.26 2.73 14.49 8.29 0.39 1.95 0.77 3.9 1.32 6.24z"/>
	<path id="Layer copy 4" class="s2" d="m182.1 31.81c20.12-3.06 38.14 0.9 53.65 13.49 16.39 13.3 25.26 30.67 25.92 51.93 0.53 17.26-4.4 32.79-15.35 46.2-10.94 13.39-24.9 22.1-42.13 24.23-26.9 3.32-49-5.48-64.95-27.98-9.89-13.96-14.02-29.66-12.33-46.57 3.37-33.74 27.05-56.29 55.19-61.3z"/>
	<path id="Layer copy 5" class="s3" d="m263.89 411.57c-15.08 3.01-29.79 4.97-44.49 4.41-1.37-1.04-1-2.24-0.94-3.31 1.03-20.96 5.78-41.01 15.18-59.82 11.23-22.5 28.73-38.45 51.62-48.6 15.28-6.76 31.36-10.53 47.86-12.87 10.33-1.46 20.69-1.25 31.05-1.29 0.89 0 1.78 0.19 2.78 0.31 0.34 4.84-0.59 9.28-1.32 13.68-2.35 14.17-5.95 27.99-12.29 40.98-13.67 28.03-34.94 47.8-64.1 59.02-8.11 3.12-16.39 5.61-25.35 7.49z"/>
	<path id="Layer copy 6" class="s4" d="m280.36 184.59c16.17-6.09 32.39-9.92 49.54-10.82 0.25 1.02 0.61 1.87 0.63 2.73 0.48 16.88-1.51 33.46-6.61 49.59-5.09 16.13-13.62 30.12-26.22 41.53-5.06 4.58-10.61 8.41-16.59 11.68-12.2 6.65-25.33 10.51-38.8 13.43-1.84 0.4-3.68 0.81-5.54 1.12-2.23 0.37-4.47 0.7-6.71 0.94-3.35 0.34-6.71 0.58-10.26 0.88-0.22-0.81-0.55-1.49-0.59-2.18-1.22-22.54 1.44-44.4 11.95-64.75 7.12-13.79 16.71-25.48 29.78-34.11 5.99-3.96 12.44-7.02 19.42-10.04z"/>
	<path id="Layer copy 7" class="s2" d="m1109.35 505.56c-0.21 1.27-0.41 2.54-0.73 4.18-0.63 0.37-1.14 0.38-2.02 0.48-2.03-0.08-3.7-0.26-5.64-0.47-0.13-1.58-0.33-3.05-0.35-4.51-0.05-6.4 0.01-12.81-0.1-19.21-0.03-2.05-0.31-4.13-0.71-6.14-0.62-3.08-2.77-4.86-5.64-5.75-5.93-1.85-12.63 2.22-13.75 8.35-0.3 1.66-0.28 3.38-0.29 5.07-0.03 6.03 0 12.06-0.03 18.08 0 1.27-0.18 2.54-0.29 4.06-2.51 0-4.7 0-7.22 0-0.21-1.02-0.61-2.07-0.61-3.12q-0.09-27.12-0.08-54.24c0-0.9 0.24-1.79 0.4-2.87 2.59-0.59 4.93-0.43 7.58-0.1 0.62 3.81 0.28 7.37 0.36 10.9 0.08 3.54 0.02 7.08 0.02 10.47 1.43 0.72 2.06-0.14 2.73-0.71 6.38-5.4 16.51-5.01 22.49 1.1 0.34 0.25 0.41 0.39 0.62 0.83 2.58 3.55 2.39 7.42 3.3 10.96-0.11 3.89-0.21 7.78-0.25 12.59 0.11 3.96 0.16 7.01 0.21 10.05z"/>
	<path id="Layer copy 8" class="s2" d="m1254.97 510.14c-2.46 0.02-4.5-0.15-6.53-0.31-0.44-1.11-0.81-2.06-1.28-3.27-1.48 0.94-2.69 1.78-3.97 2.52-4.91 2.81-10.07 2.95-15.22 0.92-4.82-1.89-7.4-5.66-7.74-10.81-0.35-5.13 1.57-9.19 6.12-11.82 4.39-2.53 9.3-2.79 14.18-3.15 2.21-0.17 4.49 0.25 6.59-0.48 0.62-5.42-0.25-7.64-3.51-9.25-3.56-1.76-8.82-1.17-11.68 1.42-1.09 0.99-1.96 2.23-3.02 3.46-1.67-0.53-3.27-1-4.84-1.56-0.52-0.18-0.95-0.58-1.69-1.04 1.34-4.97 4.87-7.75 9.41-9.4 1.92-0.7 4.03-0.9 6.48-1.44 2.44 0.21 4.51 0.35 6.47 0.88 6.11 1.66 10.05 5.51 11.1 11.89 0.42 2.55 0.42 5.18 0.72 8.25 0.03 6.61-0.03 12.75-0.16 18.89-0.03 1.42 0.47 3.03-1.43 4.3zm-10.16-9.26c2.65-2.78 3.45-6.01 2.56-10.03-4.1-0.39-7.99-0.38-11.86 0.29-1.26 0.22-2.52 0.77-3.65 1.4-3.17 1.79-4.13 5.66-2.25 8.74 1.18 1.91 3.03 2.74 5.15 3 3.53 0.44 6.68-0.52 10.05-3.4z"/>
	<path id="Layer copy 9" class="s3" d="m1437.6 219.89c-5.44 4.68-11.34 8.66-18.27 11.74 0.74 1.3 1.2 2.26 1.78 3.12q13.69 20.12 27.41 40.2c2.96 4.32 4.69 8.94 4.36 14.31-0.34 5.52-2.99 9.36-8.1 11.13-2.98 1.03-6.25 1.26-9.4 1.78-4.16 0.69-8.32 0.24-12.39-0.53-6.53-1.24-12.05-4.31-15.7-10.12-2.2-3.51-4.34-7.07-6.49-10.61-6.95-11.44-13.89-22.89-20.86-34.31-0.98-1.61-2.09-3.14-3.23-4.64-1.61-2.1-3.89-2.94-6.45-2.97-3.76-0.03-6.29 1.75-6.21 5.65 0.05 2.45-0.04 4.9-0.04 7.36-0.01 10.38 0.02 20.75-0.01 31.13-0.01 1.69-0.2 3.39-0.5 5.05-1.36 7.6-6.27 12.54-13.92 13.47-3.9 0.48-7.92 0.51-11.84 0.17-8.95-0.77-14.34-6.35-15.25-15.33-0.17-1.69-0.17-3.39-0.17-5.09q-0.03-60.86-0.02-121.71c0-4.52 0.08-9.03 1.17-13.49 3.15-12.93 11.85-20.45 25.25-21.07 10.75-0.49 21.51-0.66 32.26-0.73 6.22-0.04 12.45 0.19 18.65 0.65 7.97 0.6 15.53 2.82 22.71 6.4 16.78 8.36 25.76 22.19 27.95 40.49 1.08 9.01 0.86 18.08-1.52 26.97-2.03 7.6-5.56 14.38-10.91 20.7-0.04 0.48-0.26 0.28-0.26 0.28zm-73.49-20.97c0.53 5.73 1.4 6.7 6.71 6.79 5.08 0.09 10.17 0.14 15.25-0.09 13.34-0.6 21.6-9.06 22.02-22.3 0.3-9.75-4.94-17.74-13.79-20.35-8.09-2.39-16.44-1.66-24.69-1.17-3.62 0.21-5.55 3.24-5.49 6.13 0.03 1.5-0.08 3.01-0.08 4.51 0.01 8.48 0.04 16.95 0.07 26.48z"/>
	<path id="Layer copy 10" class="s3" d="m1594.25 174.84c6.45 23.52 12.89 46.56 19.14 69.66 3.05 11.27 5.79 22.63 8.58 33.97 0.96 3.88 1.2 7.84 0.53 11.8-0.86 5.1-4.04 10.38-11.41 11.68-5.06 0.89-10.1 1.24-15.18 0.34q-12.12-2.16-15.25-14.04c-1.58-6.01-3.07-12.05-4.6-18.08-0.28-1.09-0.51-2.2-0.82-3.29-1.35-4.77-2.69-5.87-7.5-5.97-3.21-0.07-6.42-0.02-9.63-0.02q-12.45-0.01-24.9 0-2.27 0.01-4.53 0.08c-2.79 0.06-4.66 1.56-5.55 4.06-0.96 2.66-1.64 5.41-2.35 8.14-1.24 4.74-2.3 9.53-3.66 14.24-0.67 2.33-1.6 4.65-2.83 6.73-2.2 3.73-5.64 6.15-9.8 7.18-5.73 1.42-11.56 1.77-17.38 0.36-6.87-1.66-11.32-6.93-11.84-14.11-0.35-4.96 0.51-9.79 1.8-14.54 4.84-17.82 9.59-35.66 14.61-53.43 6.13-21.76 12.46-43.47 18.81-65.17 1.15-3.96 2.55-7.91 4.33-11.62 5.52-11.49 14.86-17.64 27.49-19.01 6.82-0.75 13.56-0.6 20.22 1.11 9.92 2.55 17.15 8.51 21.47 17.75 1.83 3.91 3.16 8.07 4.45 12.2 2.02 6.47 3.81 13.02 5.8 19.98zm-59.28 37.52c-0.78 2.9-1.66 5.79-2.32 8.72-0.56 2.49 0.9 4.47 3.41 4.76 1.3 0.16 2.63 0.12 3.95 0.12q8.19-0.03 16.38-0.08c1.88-0.01 3.77 0.03 5.64-0.11 2.01-0.16 3.49-1.87 3.27-3.86-0.18-1.67-0.61-3.33-1.05-4.96q-5.44-20.44-10.96-40.85c-0.44-1.62-1.04-3.23-1.83-4.7-1.02-1.88-3.56-1.86-4.58 0.05-0.79 1.47-1.34 3.1-1.8 4.72-3.32 11.76-6.59 23.53-10.11 36.19z"/>
	<path id="Layer copy 11" class="s3" d="m598.84 301.91c-5.7 1.22-10.9 1.32-16.15 0.06-6.87-1.66-11.3-5.82-13.19-12.58-1.68-5.99-3.16-12.03-4.76-18.03-0.58-2.18-1.13-4.39-1.95-6.49-0.96-2.49-2.89-3.89-5.65-3.94-1.32-0.02-2.64-0.07-3.96-0.07q-16.7 0-33.4 0.01-0.85-0.01-1.7 0.02c-4.66 0.2-6.26 1.37-7.52 6.07-1.55 5.83-2.9 11.71-4.34 17.56-0.4 1.65-0.73 3.32-1.22 4.94-2.18 7.28-7.23 11.26-14.61 12.38-4.31 0.65-8.66 0.61-12.98-0.03-8.4-1.25-13.09-6.41-13.45-14.85-0.23-5.33 0.69-10.51 2.09-15.63 7.11-25.99 14.13-52 21.28-77.98 3.65-13.26 7.48-26.47 11.31-39.68 0.89-3.07 1.9-6.13 3.14-9.07 4.47-10.63 12.26-17.48 23.58-20.03 8.61-1.94 17.25-1.92 25.76 0.43 9.61 2.65 16.77 8.44 20.91 17.61 1.62 3.59 3.12 7.29 4.18 11.08q15.14 54.16 30.07 108.38c1.75 6.36 3.13 12.81 4.64 19.23 0.74 3.17 0.51 6.31-0.19 9.51-1.14 5.31-4.15 8.76-9.24 10.46-0.71 0.24-1.46 0.38-2.65 0.64zm-59.6-130.87c-2.76-1.55-3.91-1.43-4.91 0.8-0.84 1.88-1.53 3.85-2.07 5.84q-5.51 20.41-10.93 40.85c-0.29 1.08-0.49 2.21-0.56 3.33-0.12 2.17 1.08 3.89 3.15 3.91q13.27 0.15 26.53 0c1.71-0.01 3.09-1.8 3-3.49-0.05-0.93-0.32-1.85-0.56-2.75-2.65-10.19-5.25-20.38-8.01-30.54-1.58-5.8-3.41-11.52-5.64-17.95z"/>
	<path id="Layer copy 12" class="s4" d="m1257.91 231.64c-8.29 0-16.02-0.03-23.75 0.03-1.88 0.01-3.79 0.09-5.61 0.5-3.44 0.78-5.62 3.24-5.73 6.76-0.17 5.09-0.23 10.2 0.08 15.27 0.31 5.12 3.25 7.72 8.44 8.02 2.26 0.13 4.53 0.08 6.79 0.08 12.45 0 24.89-0.04 37.34-0.01 2.06 0.01 4.14 0.19 6.18 0.5 5.38 0.83 8.73 4.18 10.6 9.08 2.53 6.65 2.1 13.36-0.27 19.91-1.93 5.31-6.26 7.85-11.57 8.79-2.02 0.37-4.14 0.31-6.21 0.31q-29.7 0.08-59.4 0.07c-4.52-0.01-9.1 0.2-13.44-1.37-3.34-1.2-6.76-2.34-9.84-4.06-3.03-1.69-4.36-5.03-5.7-8.08-2.05-4.68-3.31-9.63-3.71-14.73-0.4-5.27-0.78-10.55-0.8-15.82q-0.11-39.32-0.03-78.64c0.02-9.05 0.42-18.09 1.87-27.06 0.83-5.09 2.53-9.81 5.46-14.1 4.32-6.34 10.48-9.64 17.85-10.77 3.9-0.6 7.87-0.94 11.82-0.96 18.48-0.1 36.96-0.06 55.44 0 2.25 0 4.51 0.28 6.74 0.6 5.6 0.81 9.22 4.21 11.08 9.34 2.39 6.6 2.13 13.4 0.06 20.01-1.37 4.4-4.79 7.2-9.23 8.31-2.71 0.67-5.58 0.93-8.38 0.96-12.44 0.09-24.89 0.03-37.34 0.04-1.51 0-3.02-0.02-4.52 0.06-5.91 0.3-8.63 3.52-9.05 8.26-0.48 5.42-0.4 10.93-0.08 16.38 0.23 4 2.56 5.84 6.74 6.2 1.87 0.16 3.77 0.16 5.65 0.16 9.43 0.02 18.86-0.02 28.29 0.04q3.68 0.01 7.32 0.49c5.96 0.78 9.34 4.51 10.76 10.09 1.08 4.25 1.15 8.56 0.27 12.9-1.57 7.72-6 11.77-13.94 12.3-3.2 0.22-6.41 0.11-10.18 0.14z"/>
	<path id="Layer copy 13" class="s1" d="m859.07 133.96c0.43 0.87 0.56 1.51 0.91 2.67 0.39 1.1 0.56 1.68 0.73 2.26 0.06 1.14 0.12 2.28 0.34 3.82-0.43 4.89 0.03 9.55-2.5 13.82-1.03-0.11-1.68-0.47-2.04-0.28-0.81 0.43-1.6 1.03-2.18 1.74-3.01 3.71-6.88 4.99-11.55 4.54-2.05-0.2-4.14-0.03-6.21-0.03-4.71 0-9.43 0.16-14.13-0.04-5.62-0.23-9.98 4.66-9.45 9.64 0.04 0.37 0.01 0.75 0.01 1.13q0 56.52 0.01 113.05c0 1.13-0.06 2.28 0.13 3.38 0.16 0.9 0.65 1.73 0.99 2.6-0.7 1.2-1.39 2.41-2.79 3.78-1.24 0.16-1.78 0.06-2.29 0.16-1.24 0.27-1.32 0.7-0.49 2.19-0.53 0.46-1.05 0.92-2.21 1.26-0.83-0.11-1.04-0.09-1.42-0.33-0.62-0.28-1.28-0.52-1.47-0.32-0.61 0.64-0.15 1.18 0.29 1.8-0.14 0.19-0.32 0.64-0.32 0.64-1.07 0.12-2.15 0.23-3.74-0.14-3.05-2.87-5.89-1.92-8.67-1.13-0.34 0.09-0.46 0.94-0.68 1.44-1.29-0.2-2.57-0.41-4.2-1.24-0.37-1.84-0.8-2.82-1.97-3.35-2.47-1.12-4.39-2.76-5.79-5.16-0.46-0.77-1.89-0.97-2.88-1.44-0.23-0.42-0.46-0.85-0.22-1.91 2.05-2.41 1.44-4.58 1.45-6.58q0.04-53.35 0.02-106.7c0-1.31-0.02-2.63-0.12-3.94-0.12-1.4-1.15-1.8-2.35-1.93-0.31-0.56-0.62-1.11-0.69-2.23 0.15-1.23 0.3-2.16-0.09-2.52-1.54-1.44-3.44-2.15-5.59-2.12-2.79 0.02-5.59-0.01-8.38 0q-6.42 0.01-12.85 0.01c-1.49 0-2.49 0.58-2.76 2.14-0.64 0-1.28 0-2.19-0.62-2.02-3.72-2.69-3.97-6.28-2.84 0 0-0.26-0.14-0.14-0.67 0.31-2.34-0.95-2.34-2.18-2.36-0.51-0.98-1.03-1.95-1.19-3.32 0.65-0.75 1.23-1.15 1.19-1.44-0.18-1.16-1.21-0.89-2-0.97-1.43-3.03-0.72-6.22-0.29-9.92 2-2.11 2-2.11 0.49-3.84-0.05-3.54 1.92-6.12 4.87-8.81 6.75-2.06 12.83-2.98 19.09-2.53 2.42 0.18 4.86 0.2 7.29 0.4 2.04 0.17 4.07 0.72 6.1 0.73 13.35 0.06 26.7 0.04 40.04 0.02 1.32 0 2.74 0.21 3.92-0.21 3.49-1.25 7.06-0.89 10.61-0.92q8.74-0.05 17.48 0c2.8 0.01 5.63-0.28 8.34 0.86 0.96 0.41 1.81-0.13 2.44-0.93 3.44 1.02 5.48 3.59 7.56 6.69z"/>
	<path id="Layer copy 14" class="s5" d="m734.5 297.95c-0.19-0.04-0.43-0.18-0.54-0.11-4.7 2.82-9.84 3.08-15.15 3.04-17.86-0.11-35.71-0.05-53.57-0.05-2.07 0-4.13 0.01-6.2-0.04-6.95-0.19-12.8-2.64-16.82-9.02 0.98-2.62-0.33-4.23-0.88-5.95-1.77-5.57-2.82-11.2-2.81-17.1 0.07-40.07 0.04-80.13 0.05-120.2 0-3.56-0.15-7.1 0.99-10.6 0.74-2.28 0.89-4.76 1.31-7.15 0.53-0.69 1.05-1.37 2.37-2.16 3.19-0.5 5.63-0.72 7.96-1.33 4.06-1.07 8.03-1.67 12.15-0.24 1.58 0.56 3.36 0.65 4.72-0.83 0.62 0.18 1.25 0.37 2.14 1.23 0.76 2.7 2.15 3.31 4.07 3.09 2.85 2.86 3.51 6.59 3.9 10.34 0.28 2.81 0.21 5.65 0.21 8.47q0 49.47-0.02 98.94c0 1.89-0.12 3.79 0.1 5.65 0.52 4.53 3.32 7.37 7.75 7.36 5.65-0.01 11.31 0.05 16.96 0.06 5.65 0 11.31-0.06 16.96-0.01 2.06 0.02 4.13 0.21 6.19 0.44 6.84 0.76 10.95 4.83 12.6 11.22 1.33 5.15 1.36 10.47 0.08 15.69-0.77 3.15-2.4 5.91-4.47 8.83 0.05 0.45-0.05 0.43-0.05 0.43z"/>
	<path id="Layer copy 15" class="s2" d="m1183.98 386.58c0.7 0.78 1.07 1.38 1.68 2.23 3.61 7.22 4.08 10.23 2.67 16.72-4.71 0.71-9.57 0.19-15.35 0.38-3.63 0.05-6.32 0.1-9.01 0.15q-3.33 0-6.63 0c-0.49 5.3 1.57 9.29 6.23 11.36 6.71 2.97 12.42 1.19 17.17-4.46 2.45 0.87 5.21 0.8 6.73 3.81-0.51 0.97-1.04 1.56-1.65 2.45-3.33 3.81-7.24 6.14-12.9 7.08-2.4 0.08-3.9 0.19-5.39 0.07-8.82-0.71-15.11-4.93-18.33-13.36-0.46-1.22-0.86-2.47-1.29-3.7-0.16-2.24-0.52-4.48-0.46-6.7 0.18-6.62 2.28-12.48 7.79-17.58 2.98-1.76 5.42-3.04 7.85-4.32 2.59-0.17 5.2-0.66 7.75-0.42 4.94 0.46 9.33 2.39 13.14 6.29zm-26.54 9.32c-0.05 0.89-0.1 1.77-0.16 2.94 7.59 0.09 14.88 0.18 22.16 0.01 0.94-3.27-0.48-5.5-2.17-7.52-1.75-2.09-4.11-3.25-6.84-3.56-5.68-0.63-9.62 1.66-12.99 8.13z"/>
	<path id="Layer copy 16" class="s2" d="m1291.19 419.04c-0.78-2.97-1.75-5.69-0.84-9.01 2.16-6.39 6.72-9.27 12.59-10.42 1.65-0.33 3.34-0.43 5.96-0.64 3.72-0.11 6.53 0.43 9.17-0.39 0.88-5.85-1.1-9.34-5.99-10.55-2.39-0.6-4.83-0.55-7.18 0.48-2.32 1.02-4.27 2.37-4.99 4.97-3.88-0.12-3.88-0.12-7.7-2.33 1.53-4.26 3.27-6.56 6.73-8.41 6.17-3.29 12.61-3.62 18.98-0.87 6.06 2.62 9.25 7.43 9.26 14.14 0.02 9.38 0 18.75-0.06 28.66-2.48 0.53-4.9 0.53-7.61 0.53q-0.62-1.63-1.27-3.35c-8.04 4.32-12.49 5.38-17.53 4.17-4.01-0.97-7.1-3.23-9.52-6.98zm7.7-5.89c0.39 3.48 2.55 5.41 5.77 6.02 4.12 0.78 7.84-0.36 10.95-3.18 2.93-2.65 3.15-6.09 2.91-9.65-4.31-0.77-10.41-0.86-13.13-0.15-3.25 0.85-6.02 2.26-6.5 6.96z"/>
	<path id="Layer copy 19" class="s2" d="m1230.34 420.48c-6.98 7.19-15.3 7.3-24.02 4.26-4.45-1.56-6.65-4.41-8.22-9.3 0.42-0.31 0.82-0.75 1.32-0.95 1.56-0.63 3.15-1.17 5.02-1.85 0.96 1.15 1.81 2.34 2.83 3.37 3.49 3.51 8.91 4.38 13.01 2.12 1.91-1.05 3.4-2.54 3.31-4.86-0.09-2.28-1.49-3.83-3.54-4.7-1.38-0.59-2.84-0.99-4.29-1.42-2.16-0.64-4.38-1.12-6.5-1.89-1.75-0.63-3.5-1.41-5.07-2.41-7.29-4.64-6.45-14.01-1.4-18.49 8.48-7.52 22.91-4.53 27.36 3.5 0.34 0.62 0.47 1.35 0.76 2.21-1.91 1.59-3.97 2.3-6.45 2.64-0.72-0.73-1.5-1.52-2.28-2.3-2.82-2.81-6.28-3.21-9.96-2.52-0.88 0.16-1.77 0.68-2.48 1.24-2.64 2.07-2.5 5.88 0.32 7.64 1.09 0.69 2.38 1.13 3.63 1.49 2.71 0.79 5.46 1.46 8.84 2.47 1.24 0.5 1.84 0.71 2.66 1.22 5.61 3.13 8.17 7.41 7.12 13.58-0.03 0.18 0.01 0.38-0.16 0.92-0.73 1.58-1.27 2.81-1.81 4.03z"/>
	<path id="Layer copy 21" class="s2" d="m1245.56 420.42c-0.01-0.35-0.15-0.65-0.72-1.38-3.47-6.58-5.23-12.96-4.42-19.88 0.87-2.4 1.69-4.82 2.62-7.2 1.22-3.11 3.14-5.74 6.29-8.27 3.06-1.19 5.5-2.07 7.98-2.84 3.32-1.03 6.63-0.84 10.03-0.12 4.84 1.03 8.48 3.86 11.88 7.17 0.51 1.27 1.02 2.54 1.09 4.35-2.57 1.13-4.47 2.6-6.73 2.3-8.55-9.71-18.48-8.63-22.66 2.69-1.55 4.72-1.86 9 0.23 13.61 1.62 4.62 4.81 6.85 9.13 7.68 5.9 1.13 9.92-1.93 13.51-6.45 2 0.63 3.98 1.1 5.81 1.91 0.67 0.29 0.98 1.39 1.18 2.42-0.72 0.89-1.15 1.5-1.6 2.1-4.03 5.27-9.41 7.76-16 7.88-6.61 0.13-12.33-2.24-17.62-5.97z"/>
	<path id="Layer copy 23" class="s5" d="m774.23 169.88c1.25-0.39 2.28 0.01 2.4 1.41 0.1 1.31 0.12 2.63 0.12 3.94q0.02 53.35-0.02 106.7c-0.01 2 0.6 4.17-1.43 6.21-0.63-2.92-0.97-6.1-0.97-9.28-0.04-33.14-0.02-66.28-0.03-99.42 0-3.01-0.08-6.02-0.07-9.56z"/>
	<path id="Layer copy 24" class="s5" d="m744.44 164.76c-0.25-1.68 0.75-2.26 2.24-2.26q6.43 0 12.85-0.01c2.79-0.01 5.59 0.02 8.38 0 2.15-0.03 4.05 0.68 5.59 2.12 0.39 0.36 0.24 1.29 0.05 2.2-2.17-1.48-4.38-1.97-6.91-1.93-7.23 0.09-14.46 0.01-22.2-0.12z"/>
	<path id="Layer copy 25" class="s6" d="m667.76 125.96c-1.04 1.73-2.82 1.64-4.4 1.08-4.12-1.43-8.09-0.83-12.15 0.24-2.33 0.61-4.77 0.83-7.65 1.21 1.25-2.18 3.74-2.93 6.29-3.38 5.9-1.04 11.79-1.41 17.91 0.85z"/>
	<path id="Layer copy 26" class="s5" d="m775.47 290.81c1.02 0.08 2.45 0.28 2.91 1.05 1.4 2.4 3.32 4.04 5.79 5.16 1.17 0.53 1.6 1.51 1.63 3.14-3.56-0.13-6.45-1.92-9.05-5.17-0.49-1.22-0.85-1.75-1.2-2.28-0.04-0.51-0.07-1.02-0.08-1.9z"/>
	<path id="Layer copy 27" class="s5" d="m790.83 301.75c-0.27-0.64-0.15-1.49 0.19-1.58 2.78-0.79 5.62-1.74 8.27 1.07-2.59 0.49-5.28 0.57-8.46 0.51z"/>
	<path id="Layer copy 28" class="s5" d="m735.67 161.49c3.37-1.44 4.04-1.19 5.77 2.38-2.12 0.18-4-0.61-5.77-2.38z"/>
	<path id="Layer copy 29" class="s6" d="m674.14 130.19c-1.77 0.56-3.16-0.05-3.72-2.49 1.15 0.44 2.35 1.29 3.72 2.49z"/>
	<path id="Layer copy 30" class="s5" d="m808.92 298.33c-1.19-1.43-1.11-1.86 0.13-2.13 0.51-0.1 1.05 0 2.01 0.08-0.31 0.71-1.04 1.35-2.14 2.05z"/>
	<path id="Layer copy 31" class="s5" d="m731.11 138.95c1.73 1.44 1.73 1.44-0.14 3.08-0.26-0.88-0.18-1.84 0.14-3.08z"/>
	<path id="Layer copy 32" class="s5" d="m733.23 158.47c1.13-0.3 2.39-0.3 2.01 1.9-0.77-0.26-1.34-0.92-2.01-1.9z"/>
	<path id="Layer copy 33" class="s5" d="m731.11 152.79c0.81-0.29 1.84-0.56 2.02 0.6 0.04 0.29-0.54 0.69-1.17 1.1-0.51-0.4-0.69-0.86-0.85-1.7z"/>
	<path id="Layer copy 35" class="s2" d="m815.63 477.35c-0.33-0.61-0.28-1.09-0.21-1.95 0.29-0.62 0.64-0.84 0.8-1.15 3.66-7.58 15.33-10.06 23.7-6.71 3.02 1.21 5.29 3.41 7.58 6.69 2.32 4.29 1.45 8.27 1.96 12.07q-0.08 8.17-0.19 16.34c-0.03 2.23-0.13 4.46-0.21 6.89-2.61 0.89-4.99 0.6-7.57 0.35-0.2-1.14-0.4-2.22-0.61-3.43-0.49 0.11-1.16 0.05-1.49 0.36-4 3.75-8.82 4.88-14.09 4.3-7.76-0.87-12.92-6.95-12.22-14.22 0.5-5.19 4.57-9.81 10.42-11.3 3.07-0.79 6.28-1.06 9.45-1.42 1.67-0.19 3.38-0.05 5.94-0.14 1.11-0.44 1.34-0.81 1.58-1.17 0.57-3.98-0.69-7.15-4.55-8.61-3.88-1.46-7.76-1.19-11.07 1.65-1.11 0.96-2 2.18-3.23 3.55-1.82-0.64-3.72-1.31-5.99-2.1zm7.31 24.2q6.55 5.05 12.86 0.97c4.17-2.7 5.56-6.17 4.49-11.78-3.45-0.21-6.99-0.26-10.5 0.21-1.46 0.19-2.92 0.72-4.28 1.32-2.21 0.98-3.61 2.71-3.6 5.23 0 1.1 0.33 2.2 1.03 4.05z"/>
	<path id="Layer copy 36" class="s2" d="m889.15 498.23c1.39-0.37 1.43-1.62 1.65-2.67 1.11-5.15 4.53-8.09 9.29-9.67 3.6-1.18 7.3-1.72 11.1-1.72 2.21-0.01 4.51 0.47 6.91-0.72-0.09-1.47-0.04-2.96-0.29-4.4-0.35-1.96-1.57-3.36-3.31-4.34-3.9-2.2-9.91-1.36-13.03 1.89-0.77 0.81-1.4 1.75-2.23 2.79-2.36-0.71-4.72-1.18-6.73-2.71 0.78-3.43 3.54-5.35 5.46-7.85 0.11-0.14 0.25-0.29 0.41-0.34 7.08-2.53 14.11-4.04 21.1 0.38 4.48 2.82 7 6.72 7.1 12.02q0.17 9.6 0.06 19.2c-0.04 3.14 0.3 6.34-0.5 9.7-2.61 0.35-4.96 0.54-7.32-0.07-0.29-1.17-0.56-2.21-0.92-3.64-0.95 0.72-1.68 1.25-2.39 1.81-4.68 3.75-9.98 4.08-15.49 2.62-4.52-1.19-7.5-4.14-8.91-8.63-0.34-1.07-0.67-2.14-1.47-3.4-0.47-0.18-0.49-0.25-0.49-0.25zm19.14 6.06c1.08-0.31 2.21-0.51 3.22-0.97 5.45-2.41 7.13-5.68 6.35-12.12-4.05-0.78-9.82-0.73-12.72 0.24-1.23 0.41-2.5 0.91-3.53 1.67-3.65 2.66-3.18 8.4 0.89 10.25 1.48 0.67 3.25 0.68 5.79 0.93z"/>
	<path id="Layer copy 38" class="s2" d="m1009.86 490.82c0 2.06-0.2 4.15 0.05 6.18 0.44 3.53 2.67 5.62 6.16 6.42 8.06 1.83 12.86-4.37 13.14-10.18 0.3-6.2 0.15-12.42 0.19-18.63 0.01-2.24 0-4.47 0-6.57 3.49-1.01 3.49-1.01 7.65-0.45 0.25 0.93 0.77 1.97 0.78 3.02q0.13 18.63 0.14 37.26c0 0.54-0.27 1.07-0.47 1.79-2.54 0.83-5.09 0.52-7.68 0.13-0.24-1.22-0.45-2.3-0.73-3.69-0.75 0.46-1.4 0.76-1.93 1.2-5.1 4.27-10.8 4.88-16.96 2.9-3.86-1.24-6.53-3.8-7.74-7.61-0.79-2.48-1.45-5.12-1.5-7.71-0.17-8.46-0.05-16.93-0.01-25.4 0-0.53 0.26-1.06 0.5-1.97 1.2-0.12 2.45-0.31 3.7-0.35 1.11-0.04 2.23 0.1 3.54 0.17 1.5 4.48 0.32 9.02 0.87 14.43 0.11 3.69 0.21 6.38 0.3 9.06z"/>
	<path id="Layer copy 40" class="s2" d="m990.4 474.07c0.05 0.97 0.3 2.05-0.78 2.51-1.71 0.73-3.49 1.29-5.42 1.99-0.77-0.78-1.47-1.37-2.04-2.07-2.79-3.43-6.44-3.57-10.3-2.65-2.24 0.52-3.73 2.35-3.84 4.36-0.12 2.2 1.15 3.63 2.96 4.39 2.25 0.95 4.64 1.55 6.97 2.31 2.32 0.76 4.77 1.29 6.93 2.36 8.62 4.28 9.46 14.93 1.88 20.85-5.31 4.15-18.8 4.69-24.79-1.54-1.58-1.65-2.97-3.39-3.57-5.99 1.13-0.63 2.2-1.31 3.35-1.82 1-0.45 2.09-0.71 3.2-1.07 0.92 1.19 1.63 2.3 2.53 3.23 3.17 3.27 8.57 4.21 12.55 2.26 2-0.98 3.42-2.44 3.34-4.79-0.07-2.06-1.15-3.62-3.07-4.37-2.1-0.83-4.26-1.47-6.41-2.17-2.33-0.75-4.76-1.27-6.99-2.24-8-3.49-9.43-11.08-5-18.31 1-1.62 2.84-3.32 4.6-3.76 4.15-1.03 8.41-2.19 12.82-1.15 2.82 0.67 5.36 1.77 7.34 3.97 1.01 1.11 2.07 2.18 3.4 3.49 0.29 0.22 0.39 0.18 0.34 0.21z"/>
	<path id="Layer copy 41" class="s2" d="m1105.5 362.44c1.02 0.7 1.57 1.38 2.24 2.39-0.11 1.78-0.34 3.23-0.6 4.91-1.6 0-3.06-0.07-4.5 0.01-3.98 0.22-5.89 1.92-6.33 5.79-0.18 1.64-0.03 3.31-0.03 5.03 3.28 1.36 6.6 0.01 9.65 1.04 1.51 2.09 1.06 4.25 0.48 6.6-3.08 1.34-6.41-0.05-9.74 1.13-0.14 1.11-0.42 2.37-0.43 3.63-0.06 8.65-0.07 17.31-0.09 25.96 0 1.86 0 3.71 0 5.73-2.83 0.97-5.32 0.66-8.15 0.23-0.82-11.47 0.16-22.73-0.76-34.7-0.59-0.87-0.99-0.99-1.38-1.1-1.61-0.16-3.23-0.31-4.97-0.48-0.73-2.27-0.41-4.42-0.24-6.96 1.83-0.17 3.59-0.34 6-0.73 0.72-0.35 0.87-0.48 0.85-0.58-0.05-0.26-0.18-0.5-0.28-0.75 0.37-3.85 0.32-7.74 1.89-11.44 0.94-2.21 2.24-3.54 4.54-4.37 3.73-1.36 7.4-2.36 11.85-1.34z"/>
	<path id="Layer copy 42" class="s2" d="m1125.91 407.89q-0.16 5.88-0.33 11.77c-0.05 1.65-0.16 3.29-0.25 5.18-2.8 0.61-5.31 0.6-7.82 0.04-0.95-4.48-1.28-28.7 0.16-43.5 1.99-0.34 3.2-0.4 4.41-0.47 0.79 0.12 1.58 0.24 2.78 0.81 0.55 1.45 0.7 2.45 0.96 4.28 2.23-3.31 5.23-4.03 7.84-5.39 2.35-0.14 4.79-1.23 7.19 0.77 0.69 2.14 0.38 4.5 0.16 7.25-1.19 0.11-2.24 0.2-4.18 0.3-8.35 1.25-9.84 3.9-10.62 9.49-0.03 0.19 0 0.38 0.01 0.56-0.16 1.04-0.32 2.08-0.47 3.86 0.06 2.18 0.11 3.61 0.16 5.05z"/>
	<path id="Layer copy 43" class="s2" d="m881.6 465.96c0.85 0.04 1.25 0.15 1.96 0.22 2.08 2.65 0.87 5.35 0.5 8.03-10.91 1.14-12.39 2.18-14.43 11.05-0.03 6.63 0.03 12.33 0.08 18.02-0.14 2.03-0.27 4.07-0.43 6.39-1.42 0.16-2.68 0.39-3.94 0.43-1.3 0.04-2.61-0.11-4.16-0.19-0.99-4.72-0.24-9.4-0.39-14.03-0.15-4.7-0.14-9.4-0.09-14.1 0.06-4.66-0.15-9.34 0.3-14.08 2.91-0.78 5.47-0.8 8.29 0.57 0.33 1.61 0.43 2.44 0.61 4.11 0.96-1.52 1.48-2.34 2-3.17 2.98-1.37 5.74-3.37 9.7-3.25z"/>
	<path id="Layer copy 47" class="s2" d="m801.39 502.73c-0.96 1.18-1.77 1.96-2.57 2.75-7.05 6.96-15.91 7.69-24.03 1.97-0.71-0.51-1.43-1-2.73-1.9-0.16 7.78-0.31 14.85-0.45 22.07-2.83 1.03-5.31 0.77-7.76 0.31-0.81-5.02-0.82-54.67-0.01-60.35 2.22-0.83 4.62-0.47 7.33-0.34 0.41 1.31 0.83 2.64 1.38 4.36 1.08-0.81 1.93-1.5 2.82-2.12 8.03-5.56 18.79-3.9 24.68 3.84 1.03 1.34 1.93 2.77 3.15 4.47 2.07 6.29 2.7 12.32 0.86 18.38-0.65 2.12-1.67 4.11-2.67 6.56zm-18.22-28.98c-5.35 0.6-9.15 3.29-10.84 8.46-1.58 4.8-1.22 9.66 0.65 14.32 1.58 3.94 4.48 6.37 8.8 6.98 6.69 0.93 12.69-3.22 14.13-9.97 0.76-3.54 0.64-7.13-0.47-10.58-1.76-5.48-5.25-8.99-12.27-9.21z"/>
	<path id="Layer copy 48" class="s2" d="m1210.61 500.83c-0.1 1.68-0.24 3.36-0.3 5.04-0.05 1.7 0.08 3.4-0.06 5.08-0.84 10.57-6.07 16.8-17.83 18.29-3.38 0.44-6.74 0-10.04-1.03-5.14-1.62-8.98-4.58-10.9-9.73 2.05-2.09 2.05-2.09 6.43-3.69 0.58 0.79 1.17 1.69 1.86 2.51 4.31 5.07 11.82 6.17 17.37 2.56 2.33-1.51 3.77-3.65 4.27-6.38 0.2-1.1 0.27-2.24 0.24-3.37-0.03-1.45-0.21-2.9-0.37-4.89-1.34 0.73-2.3 1.18-3.2 1.74-10.78 6.72-21.81 0.77-26.12-7.2-4.21-7.77-3.91-15.57-0.17-23.28 2.82-5.8 7.78-9.02 14.45-10.41 1.22-0.13 2.08-0.09 3.74 0.01 4.76 0.61 7.92 2.82 11.35 5.58 0.22-1.86 0.36-3.12 0.51-4.39 2.57 0 5.13 0 8.03 0 0.16 1.65 0.3 3.07 0.54 4.97 0.05 8.92 0.01 17.37 0 26.57 0.1 1.17 0.15 1.6 0.2 2.02zm-12.19-23.51c-0.56-0.5-1.07-1.08-1.7-1.48-7.46-4.68-15.85-1.35-18.15 7.14-1.01 3.75-0.85 7.46 0.32 11.1 1.81 5.62 7.11 8.9 12.73 7.84 5.01-0.96 8.55-3.77 9.87-8.88 1.38-5.37 0.59-10.42-3.07-15.72z"/>
	<path id="Layer copy 49" class="s2" d="m1160 479.34c0.6 1.92 0.99 3.56 1.23 5.23 0.82 5.56 0 10.86-2.74 15.79-5.82 10.5-16.15 12.07-23.45 10.32-9.76-2.34-16.26-10.39-16.38-20.27-0.03-2.61 0.25-5.26 0.75-7.82 1.62-8.13 6.67-13.2 14.51-15.61 0.71-0.23 1.44-0.42 2.52-0.82 1.86-0.14 3.36-0.15 4.86-0.03 6.76 0.55 12.21 3.5 16.15 9.07 0.86 1.22 1.53 2.58 2.55 4.14zm-32.72 8.74c0.16 1.88 0.15 3.79 0.53 5.62 0.89 4.32 3.1 7.79 7.48 9.17 5.65 1.78 12.48 0.76 15.93-6.97 1.92-4.31 1.84-8.8 0.4-13.26-1.83-5.62-6.15-8.88-11.73-8.88-5.34-0.01-10.1 3.51-11.8 8.88-0.45 1.42-0.52 2.96-0.81 5.44z"/>
	<path id="Layer copy 50" class="s2" d="m1270.4 466.91c1.67 0.14 3.35 0.28 5.31 0.45q0.34 2.18 0.67 4.29c0.35-0.06 0.84 0 1.04-0.21 2.25-2.37 4.75-4.28 8.04-4.96 1.97-0.41 1.96-0.45 5.68 0.58 0.9 2.28 0.52 4.63-0.33 7.44-0.1 0.46-0.15 0.31-0.15 0.31-1.3-0.16-2.61-0.52-3.9-0.45-4.84 0.3-8.52 3.31-9.62 8.05-0.55 2.36-0.77 4.82-0.85 7.24-0.15 5.07-0.09 10.13-0.15 15.2-0.01 1.48-0.13 2.95-0.21 4.6-2.48 0.99-4.83 0.61-6.98 0.4-0.33-0.34-0.48-0.46-0.59-0.61-0.1-0.14-0.23-0.32-0.23-0.48-0.03-13.5-0.05-27 0.37-41.04 0.92-0.63 1.41-0.72 1.9-0.81z"/>
	<path id="Layer copy 51" class="s5" d="m804.93 303.41c-0.03 0.58-0.24 0.91-0.73 1.26-0.89-0.41-1.35-0.95-0.74-1.59 0.19-0.2 0.85 0.04 1.47 0.33z"/>
	<path class="s0" d="m134.67 398.13c-11.48-3.42-22.04-7.93-32.3-13.16-28.08-14.3-48.59-35.8-61.64-64.55-8.43-18.58-13.11-38.01-14.9-58.29-1.52-17.34-1.34-34.68-0.53-52.01 0.56-12.23 1.93-24.42 2.92-36.4 2.27-1.72 4.4-0.98 6.34-0.72 7.29 0.96 14.57 1.95 21.8 3.26 13.17 2.4 26.16 5.56 38.82 9.94 15.05 5.2 29.25 12.03 42.16 21.44 17.96 13.1 31.13 30 40.05 50.28 6.75 15.33 10.32 31.45 11.88 48.08 1.09 11.66 1.21 23.35 1.12 35.04-0.09 11.51-0.14 23.02-0.4 34.52-0.21 9.05-0.68 18.1-1.08 27.14-0.08 1.68-0.38 3.35-0.56 4.95-7.6 1.26-34.54-3.54-53.68-9.52z"/>
	<path class="s1" d="m1007.93 288.89c-0.33 1.07-0.71 2.13-0.98 3.21-1.3 5.35-5.12 8.17-10.06 9.46-6.44 1.69-12.92 1.58-19.44-0.06-5.71-1.43-9.38-4.74-11.14-10.93-0.18-0.82-0.31-1.01-0.57-1.11-1.62-6.57-3.43-13.09-4.78-19.72-0.71-3.55-2.68-6.03-5.33-8.64-1.61-0.07-3.48-0.23-5.35-0.24q-16.95-0.01-33.9 0.02-1.42 0.01-2.83 0.1c-2.95 0.18-4.93 1.66-5.7 4.55-1.45 5.45-2.84 10.91-4.28 16.36-0.73 2.73-1.4 5.48-2.31 8.14-2.37 6.9-7.39 10.7-14.49 11.73-6.8 0.98-13.44 0.75-19.9-2.22-2.47-1.13-3.89-2.62-4.82-4.99-2.37-6.02-2.43-12.16-0.87-18.31 2.9-11.48 5.85-22.96 9.01-34.38 7.03-25.37 14.2-50.71 21.56-76.76 0.33-1.34 0.39-1.98 0.71-2.98 2.25-6.54 4.25-12.71 6.26-18.89 0.36-0.54 0.71-1.08 1.33-2.27 1.96-4.21 4.54-6.96 7.61-9.39 2.98-2.36 6.12-4.27 9.71-5.54 9.48-3.35 19.12-3.3 28.85-1.45 6.88 1.31 12.52 4.84 17.26 9.91 1.02 1.09 2.02 2.19 3.18 3.69 0.49 0.83 0.83 1.28 1.13 1.88 0.01 0.41 0.16 0.55 0.52 0.93 0.73 1.41 1.36 2.46 2 3.88 0.8 2.4 1.59 4.41 2.36 6.81 0.19 0.85 0.39 1.31 0.64 2.22 0.19 0.98 0.31 1.54 0.46 2.08 6.32 22.41 12.8 44.77 18.91 67.24 5.28 19.38 10.14 38.88 15.13 58.79 0.01 2.6 0.06 4.74 0.12 6.88zm-70.78-116.08c-0.27-0.49-0.48-1.05-0.84-1.47-1.98-2.28-3.89-2.14-5.22 0.47-0.68 1.33-1.16 2.78-1.55 4.23q-5.91 21.46-11.76 42.94c-0.2 0.72-0.39 1.46-0.48 2.2-0.34 2.75 0.91 4.41 3.56 4.7 0.93 0.1 1.88 0.07 2.82 0.07q9.88 0 19.76-0.01c1.12-0.01 2.26 0.02 3.38-0.13 2.4-0.31 3.71-1.86 3.39-4.29-0.26-2.04-0.8-4.05-1.34-6.04-3.79-13.96-7.61-27.91-11.72-42.67z"/>
	<path class="s1" d="m1161.54 139.44c-0.76 10.01-3.38 19.25-5.95 28.5-7.91 28.47-15.82 56.95-23.97 86.11-0.27 1.09-0.3 1.5-0.33 1.91-1.15 3.56-2.34 7.12-3.45 10.7-1.61 5.19-3.26 10.34-5.64 15.27-6.21 12.83-16.51 19.45-30.49 20.83-10.12 1.01-19.82-0.54-29.09-4.72-1.46-0.66-2.87-1.62-4.06-2.72-2.05-1.88-3.91-3.97-6.18-6.36-0.32-0.39-0.42-0.82-0.36-1.17-0.39-0.83-0.86-1.32-1.54-2.04-0.68-0.92-1.14-1.59-1.65-2.69-0.48-1.63-0.91-2.83-1.35-4.03-1.55-4.13-3.11-8.25-4.63-12.71-0.23-0.91-0.49-1.5-0.8-2.51-7.93-27.82-15.8-55.21-23.7-82.59-2.02-7.01-4.13-14-6.16-21.32-0.19-0.9-0.43-1.48-0.68-2.48-0.76-3.14-1.54-5.85-2.22-8.6-1.05-4.27-1.02-8.55-0.35-12.91 0.74-4.8 3.7-7.56 7.8-9.48q1.28-0.6 2.66-0.93c6.53-1.57 13.08-1.86 19.61-0.14 5.37 1.41 9.53 4.52 12 9.56 1.16 2.35 2.18 4.83 2.85 7.35q7.01 26.51 13.82 53.06c4.35 16.97 8.57 33.98 12.9 50.96 0.5 1.99 1.11 4.02 2.05 5.84 1.46 2.84 4.68 2.89 6.26 0.08 1.09-1.95 1.86-4.13 2.45-6.3q3.56-13.09 6.9-26.24c6.44-25.38 12.8-50.78 19.26-76.16 0.74-2.91 1.63-5.83 2.89-8.54 2.76-5.91 7.47-9.44 14.06-9.94 3.74-0.28 7.52-0.24 11.28-0.12 6.25 0.2 11.26 2.73 14.49 8.29 0.39 1.95 0.77 3.9 1.32 6.24z"/>
	<path class="s2" d="m182.1 31.81c20.12-3.06 38.14 0.9 53.65 13.49 16.39 13.3 25.26 30.67 25.92 51.93 0.53 17.26-4.4 32.79-15.35 46.2-10.94 13.39-24.9 22.1-42.13 24.23-26.9 3.32-49-5.48-64.95-27.98-9.89-13.96-14.02-29.66-12.33-46.57 3.37-33.74 27.05-56.29 55.19-61.3z"/>
	<path class="s3" d="m263.89 411.57c-15.08 3.01-29.79 4.97-44.49 4.41-1.37-1.04-1-2.24-0.94-3.31 1.03-20.96 5.78-41.01 15.18-59.82 11.23-22.5 28.73-38.45 51.62-48.6 15.28-6.76 31.36-10.53 47.86-12.87 10.33-1.46 20.69-1.25 31.05-1.29 0.89 0 1.78 0.19 2.78 0.31 0.34 4.84-0.59 9.28-1.32 13.68-2.35 14.17-5.95 27.99-12.29 40.98-13.67 28.03-34.94 47.8-64.1 59.02-8.11 3.12-16.39 5.61-25.35 7.49z"/>
	<path class="s4" d="m280.36 184.59c16.17-6.09 32.39-9.92 49.54-10.82 0.25 1.02 0.61 1.87 0.63 2.73 0.48 16.88-1.51 33.46-6.61 49.59-5.09 16.13-13.62 30.12-26.22 41.53-5.06 4.58-10.61 8.41-16.59 11.68-12.2 6.65-25.33 10.51-38.8 13.43-1.84 0.4-3.68 0.81-5.54 1.12-2.23 0.37-4.47 0.7-6.71 0.94-3.35 0.34-6.71 0.58-10.26 0.88-0.22-0.81-0.55-1.49-0.59-2.18-1.22-22.54 1.44-44.4 11.95-64.75 7.12-13.79 16.71-25.48 29.78-34.11 5.99-3.96 12.44-7.02 19.42-10.04z"/>
	<path class="s2" d="m1109.35 505.56c-0.21 1.27-0.41 2.54-0.73 4.18-0.63 0.37-1.14 0.38-2.02 0.48-2.03-0.08-3.7-0.26-5.64-0.47-0.13-1.58-0.33-3.05-0.35-4.51-0.05-6.4 0.01-12.81-0.1-19.21-0.03-2.05-0.31-4.13-0.71-6.14-0.62-3.08-2.77-4.86-5.64-5.75-5.93-1.85-12.63 2.22-13.75 8.35-0.3 1.66-0.28 3.38-0.29 5.07-0.03 6.03 0 12.06-0.03 18.08 0 1.27-0.18 2.54-0.29 4.06-2.51 0-4.7 0-7.22 0-0.21-1.02-0.61-2.07-0.61-3.12q-0.09-27.12-0.08-54.24c0-0.9 0.24-1.79 0.4-2.87 2.59-0.59 4.93-0.43 7.58-0.1 0.62 3.81 0.28 7.37 0.36 10.9 0.08 3.54 0.02 7.08 0.02 10.47 1.43 0.72 2.06-0.14 2.73-0.71 6.38-5.4 16.51-5.01 22.49 1.1 0.34 0.25 0.41 0.39 0.62 0.83 2.58 3.55 2.39 7.42 3.3 10.96-0.11 3.89-0.21 7.78-0.25 12.59 0.11 3.96 0.16 7.01 0.21 10.05z"/>
	<path class="s2" d="m1254.97 510.14c-2.46 0.02-4.5-0.15-6.53-0.31-0.44-1.11-0.81-2.06-1.28-3.27-1.48 0.94-2.69 1.78-3.97 2.52-4.91 2.81-10.07 2.95-15.22 0.92-4.82-1.89-7.4-5.66-7.74-10.81-0.35-5.13 1.57-9.19 6.12-11.82 4.39-2.53 9.3-2.79 14.18-3.15 2.21-0.17 4.49 0.25 6.59-0.48 0.62-5.42-0.25-7.64-3.51-9.25-3.56-1.76-8.82-1.17-11.68 1.42-1.09 0.99-1.96 2.23-3.02 3.46-1.67-0.53-3.27-1-4.84-1.56-0.52-0.18-0.95-0.58-1.69-1.04 1.34-4.97 4.87-7.75 9.41-9.4 1.92-0.7 4.03-0.9 6.48-1.44 2.44 0.21 4.51 0.35 6.47 0.88 6.11 1.66 10.05 5.51 11.1 11.89 0.42 2.55 0.42 5.18 0.72 8.25 0.03 6.61-0.03 12.75-0.16 18.89-0.03 1.42 0.47 3.03-1.43 4.3zm-10.16-9.26c2.65-2.78 3.45-6.01 2.56-10.03-4.1-0.39-7.99-0.38-11.86 0.29-1.26 0.22-2.52 0.77-3.65 1.4-3.17 1.79-4.13 5.66-2.25 8.74 1.18 1.91 3.03 2.74 5.15 3 3.53 0.44 6.68-0.52 10.05-3.4z"/>
	<path class="s3" d="m1437.6 219.89c-5.44 4.68-11.34 8.66-18.27 11.74 0.74 1.3 1.2 2.26 1.78 3.12q13.69 20.12 27.41 40.2c2.96 4.32 4.69 8.94 4.36 14.31-0.34 5.52-2.99 9.36-8.1 11.13-2.98 1.03-6.25 1.26-9.4 1.78-4.16 0.69-8.32 0.24-12.39-0.53-6.53-1.24-12.05-4.31-15.7-10.12-2.2-3.51-4.34-7.07-6.49-10.61-6.95-11.44-13.89-22.89-20.86-34.31-0.98-1.61-2.09-3.14-3.23-4.64-1.61-2.1-3.89-2.94-6.45-2.97-3.76-0.03-6.29 1.75-6.21 5.65 0.05 2.45-0.04 4.9-0.04 7.36-0.01 10.38 0.02 20.75-0.01 31.13-0.01 1.69-0.2 3.39-0.5 5.05-1.36 7.6-6.27 12.54-13.92 13.47-3.9 0.48-7.92 0.51-11.84 0.17-8.95-0.77-14.34-6.35-15.25-15.33-0.17-1.69-0.17-3.39-0.17-5.09q-0.03-60.86-0.02-121.71c0-4.52 0.08-9.03 1.17-13.49 3.15-12.93 11.85-20.45 25.25-21.07 10.75-0.49 21.51-0.66 32.26-0.73 6.22-0.04 12.45 0.19 18.65 0.65 7.97 0.6 15.53 2.82 22.71 6.4 16.78 8.36 25.76 22.19 27.95 40.49 1.08 9.01 0.86 18.08-1.52 26.97-2.03 7.6-5.56 14.38-10.91 20.7-0.04 0.48-0.26 0.28-0.26 0.28zm-73.49-20.97c0.53 5.73 1.4 6.7 6.71 6.79 5.08 0.09 10.17 0.14 15.25-0.09 13.34-0.6 21.6-9.06 22.02-22.3 0.3-9.75-4.94-17.74-13.79-20.35-8.09-2.39-16.44-1.66-24.69-1.17-3.62 0.21-5.55 3.24-5.49 6.13 0.03 1.5-0.08 3.01-0.08 4.51 0.01 8.48 0.04 16.95 0.07 26.48z"/>
	<path class="s3" d="m1594.25 174.84c6.45 23.52 12.89 46.56 19.14 69.66 3.05 11.27 5.79 22.63 8.58 33.97 0.96 3.88 1.2 7.84 0.53 11.8-0.86 5.1-4.04 10.38-11.41 11.68-5.06 0.89-10.1 1.24-15.18 0.34q-12.12-2.16-15.25-14.04c-1.58-6.01-3.07-12.05-4.6-18.08-0.28-1.09-0.51-2.2-0.82-3.29-1.35-4.77-2.69-5.87-7.5-5.97-3.21-0.07-6.42-0.02-9.63-0.02q-12.45-0.01-24.9 0-2.27 0.01-4.53 0.08c-2.79 0.06-4.66 1.56-5.55 4.06-0.96 2.66-1.64 5.41-2.35 8.14-1.24 4.74-2.3 9.53-3.66 14.24-0.67 2.33-1.6 4.65-2.83 6.73-2.2 3.73-5.64 6.15-9.8 7.18-5.73 1.42-11.56 1.77-17.38 0.36-6.87-1.66-11.32-6.93-11.84-14.11-0.35-4.96 0.51-9.79 1.8-14.54 4.84-17.82 9.59-35.66 14.61-53.43 6.13-21.76 12.46-43.47 18.81-65.17 1.15-3.96 2.55-7.91 4.33-11.62 5.52-11.49 14.86-17.64 27.49-19.01 6.82-0.75 13.56-0.6 20.22 1.11 9.92 2.55 17.15 8.51 21.47 17.75 1.83 3.91 3.16 8.07 4.45 12.2 2.02 6.47 3.81 13.02 5.8 19.98zm-59.28 37.52c-0.78 2.9-1.66 5.79-2.32 8.72-0.56 2.49 0.9 4.47 3.41 4.76 1.3 0.16 2.63 0.12 3.95 0.12q8.19-0.03 16.38-0.08c1.88-0.01 3.77 0.03 5.64-0.11 2.01-0.16 3.49-1.87 3.27-3.86-0.18-1.67-0.61-3.33-1.05-4.96q-5.44-20.44-10.96-40.85c-0.44-1.62-1.04-3.23-1.83-4.7-1.02-1.88-3.56-1.86-4.58 0.05-0.79 1.47-1.34 3.1-1.8 4.72-3.32 11.76-6.59 23.53-10.11 36.19z"/>
	<path class="s3" d="m598.84 301.91c-5.7 1.22-10.9 1.32-16.15 0.06-6.87-1.66-11.3-5.82-13.19-12.58-1.68-5.99-3.16-12.03-4.76-18.03-0.58-2.18-1.13-4.39-1.95-6.49-0.96-2.49-2.89-3.89-5.65-3.94-1.32-0.02-2.64-0.07-3.96-0.07q-16.7 0-33.4 0.01-0.85-0.01-1.7 0.02c-4.66 0.2-6.26 1.37-7.52 6.07-1.55 5.83-2.9 11.71-4.34 17.56-0.4 1.65-0.73 3.32-1.22 4.94-2.18 7.28-7.23 11.26-14.61 12.38-4.31 0.65-8.66 0.61-12.98-0.03-8.4-1.25-13.09-6.41-13.45-14.85-0.23-5.33 0.69-10.51 2.09-15.63 7.11-25.99 14.13-52 21.28-77.98 3.65-13.26 7.48-26.47 11.31-39.68 0.89-3.07 1.9-6.13 3.14-9.07 4.47-10.63 12.26-17.48 23.58-20.03 8.61-1.94 17.25-1.92 25.76 0.43 9.61 2.65 16.77 8.44 20.91 17.61 1.62 3.59 3.12 7.29 4.18 11.08q15.14 54.16 30.07 108.38c1.75 6.36 3.13 12.81 4.64 19.23 0.74 3.17 0.51 6.31-0.19 9.51-1.14 5.31-4.15 8.76-9.24 10.46-0.71 0.24-1.46 0.38-2.65 0.64zm-59.6-130.87c-2.76-1.55-3.91-1.43-4.91 0.8-0.84 1.88-1.53 3.85-2.07 5.84q-5.51 20.41-10.93 40.85c-0.29 1.08-0.49 2.21-0.56 3.33-0.12 2.17 1.08 3.89 3.15 3.91q13.27 0.15 26.53 0c1.71-0.01 3.09-1.8 3-3.49-0.05-0.93-0.32-1.85-0.56-2.75-2.65-10.19-5.25-20.38-8.01-30.54-1.58-5.8-3.41-11.52-5.64-17.95z"/>
	<path class="s4" d="m1257.91 231.64c-8.29 0-16.02-0.03-23.75 0.03-1.88 0.01-3.79 0.09-5.61 0.5-3.44 0.78-5.62 3.24-5.73 6.76-0.17 5.09-0.23 10.2 0.08 15.27 0.31 5.12 3.25 7.72 8.44 8.02 2.26 0.13 4.53 0.08 6.79 0.08 12.45 0 24.89-0.04 37.34-0.01 2.06 0.01 4.14 0.19 6.18 0.5 5.38 0.83 8.73 4.18 10.6 9.08 2.53 6.65 2.1 13.36-0.27 19.91-1.93 5.31-6.26 7.85-11.57 8.79-2.02 0.37-4.14 0.31-6.21 0.31q-29.7 0.08-59.4 0.07c-4.52-0.01-9.1 0.2-13.44-1.37-3.34-1.2-6.76-2.34-9.84-4.06-3.03-1.69-4.36-5.03-5.7-8.08-2.05-4.68-3.31-9.63-3.71-14.73-0.4-5.27-0.78-10.55-0.8-15.82q-0.11-39.32-0.03-78.64c0.02-9.05 0.42-18.09 1.87-27.06 0.83-5.09 2.53-9.81 5.46-14.1 4.32-6.34 10.48-9.64 17.85-10.77 3.9-0.6 7.87-0.94 11.82-0.96 18.48-0.1 36.96-0.06 55.44 0 2.25 0 4.51 0.28 6.74 0.6 5.6 0.81 9.22 4.21 11.08 9.34 2.39 6.6 2.13 13.4 0.06 20.01-1.37 4.4-4.79 7.2-9.23 8.31-2.71 0.67-5.58 0.93-8.38 0.96-12.44 0.09-24.89 0.03-37.34 0.04-1.51 0-3.02-0.02-4.52 0.06-5.91 0.3-8.63 3.52-9.05 8.26-0.48 5.42-0.4 10.93-0.08 16.38 0.23 4 2.56 5.84 6.74 6.2 1.87 0.16 3.77 0.16 5.65 0.16 9.43 0.02 18.86-0.02 28.29 0.04q3.68 0.01 7.32 0.49c5.96 0.78 9.34 4.51 10.76 10.09 1.08 4.25 1.15 8.56 0.27 12.9-1.57 7.72-6 11.77-13.94 12.3-3.2 0.22-6.41 0.11-10.18 0.14z"/>
	<path class="s1" d="m859.07 133.96c0.43 0.87 0.56 1.51 0.91 2.67 0.39 1.1 0.56 1.68 0.73 2.26 0.06 1.14 0.12 2.28 0.34 3.82-0.43 4.89 0.03 9.55-2.5 13.82-1.03-0.11-1.68-0.47-2.04-0.28-0.81 0.43-1.6 1.03-2.18 1.74-3.01 3.71-6.88 4.99-11.55 4.54-2.05-0.2-4.14-0.03-6.21-0.03-4.71 0-9.43 0.16-14.13-0.04-5.62-0.23-9.98 4.66-9.45 9.64 0.04 0.37 0.01 0.75 0.01 1.13q0 56.52 0.01 113.05c0 1.13-0.06 2.28 0.13 3.38 0.16 0.9 0.65 1.73 0.99 2.6-0.7 1.2-1.39 2.41-2.79 3.78-1.24 0.16-1.78 0.06-2.29 0.16-1.24 0.27-1.32 0.7-0.49 2.19-0.53 0.46-1.05 0.92-2.21 1.26-0.83-0.11-1.04-0.09-1.42-0.33-0.62-0.28-1.28-0.52-1.47-0.32-0.61 0.64-0.15 1.18 0.29 1.8-0.14 0.19-0.32 0.64-0.32 0.64-1.07 0.12-2.15 0.23-3.74-0.14-3.05-2.87-5.89-1.92-8.67-1.13-0.34 0.09-0.46 0.94-0.68 1.44-1.29-0.2-2.57-0.41-4.2-1.24-0.37-1.84-0.8-2.82-1.97-3.35-2.47-1.12-4.39-2.76-5.79-5.16-0.46-0.77-1.89-0.97-2.88-1.44-0.23-0.42-0.46-0.85-0.22-1.91 2.05-2.41 1.44-4.58 1.45-6.58q0.04-53.35 0.02-106.7c0-1.31-0.02-2.63-0.12-3.94-0.12-1.4-1.15-1.8-2.35-1.93-0.31-0.56-0.62-1.11-0.69-2.23 0.15-1.23 0.3-2.16-0.09-2.52-1.54-1.44-3.44-2.15-5.59-2.12-2.79 0.02-5.59-0.01-8.38 0q-6.42 0.01-12.85 0.01c-1.49 0-2.49 0.58-2.76 2.14-0.64 0-1.28 0-2.19-0.62-2.02-3.72-2.69-3.97-6.28-2.84 0 0-0.26-0.14-0.14-0.67 0.31-2.34-0.95-2.34-2.18-2.36-0.51-0.98-1.03-1.95-1.19-3.32 0.65-0.75 1.23-1.15 1.19-1.44-0.18-1.16-1.21-0.89-2-0.97-1.43-3.03-0.72-6.22-0.29-9.92 2-2.11 2-2.11 0.49-3.84-0.05-3.54 1.92-6.12 4.87-8.81 6.75-2.06 12.83-2.98 19.09-2.53 2.42 0.18 4.86 0.2 7.29 0.4 2.04 0.17 4.07 0.72 6.1 0.73 13.35 0.06 26.7 0.04 40.04 0.02 1.32 0 2.74 0.21 3.92-0.21 3.49-1.25 7.06-0.89 10.61-0.92q8.74-0.05 17.48 0c2.8 0.01 5.63-0.28 8.34 0.86 0.96 0.41 1.81-0.13 2.44-0.93 3.44 1.02 5.48 3.59 7.56 6.69z"/>
	<path class="s5" d="m734.5 297.95c-0.19-0.04-0.43-0.18-0.54-0.11-4.7 2.82-9.84 3.08-15.15 3.04-17.86-0.11-35.71-0.05-53.57-0.05-2.07 0-4.13 0.01-6.2-0.04-6.95-0.19-12.8-2.64-16.82-9.02 0.98-2.62-0.33-4.23-0.88-5.95-1.77-5.57-2.82-11.2-2.81-17.1 0.07-40.07 0.04-80.13 0.05-120.2 0-3.56-0.15-7.1 0.99-10.6 0.74-2.28 0.89-4.76 1.31-7.15 0.53-0.69 1.05-1.37 2.37-2.16 3.19-0.5 5.63-0.72 7.96-1.33 4.06-1.07 8.03-1.67 12.15-0.24 1.58 0.56 3.36 0.65 4.72-0.83 0.62 0.18 1.25 0.37 2.14 1.23 0.76 2.7 2.15 3.31 4.07 3.09 2.85 2.86 3.51 6.59 3.9 10.34 0.28 2.81 0.21 5.65 0.21 8.47q0 49.47-0.02 98.94c0 1.89-0.12 3.79 0.1 5.65 0.52 4.53 3.32 7.37 7.75 7.36 5.65-0.01 11.31 0.05 16.96 0.06 5.65 0 11.31-0.06 16.96-0.01 2.06 0.02 4.13 0.21 6.19 0.44 6.84 0.76 10.95 4.83 12.6 11.22 1.33 5.15 1.36 10.47 0.08 15.69-0.77 3.15-2.4 5.91-4.47 8.83 0.05 0.45-0.05 0.43-0.05 0.43z"/>
	<path class="s2" d="m1183.98 386.58c0.7 0.78 1.07 1.38 1.68 2.23 3.61 7.22 4.08 10.23 2.67 16.72-4.71 0.71-9.57 0.19-15.35 0.38-3.63 0.05-6.32 0.1-9.01 0.15q-3.33 0-6.63 0c-0.49 5.3 1.57 9.29 6.23 11.36 6.71 2.97 12.42 1.19 17.17-4.46 2.45 0.87 5.21 0.8 6.73 3.81-0.51 0.97-1.04 1.56-1.65 2.45-3.33 3.81-7.24 6.14-12.9 7.08-2.4 0.08-3.9 0.19-5.39 0.07-8.82-0.71-15.11-4.93-18.33-13.36-0.46-1.22-0.86-2.47-1.29-3.7-0.16-2.24-0.52-4.48-0.46-6.7 0.18-6.62 2.28-12.48 7.79-17.58 2.98-1.76 5.42-3.04 7.85-4.32 2.59-0.17 5.2-0.66 7.75-0.42 4.94 0.46 9.33 2.39 13.14 6.29zm-26.54 9.32c-0.05 0.89-0.1 1.77-0.16 2.94 7.59 0.09 14.88 0.18 22.16 0.01 0.94-3.27-0.48-5.5-2.17-7.52-1.75-2.09-4.11-3.25-6.84-3.56-5.68-0.63-9.62 1.66-12.99 8.13z"/>
	<path class="s2" d="m1291.19 419.04c-0.78-2.97-1.75-5.69-0.84-9.01 2.16-6.39 6.72-9.27 12.59-10.42 1.65-0.33 3.34-0.43 5.96-0.64 3.72-0.11 6.53 0.43 9.17-0.39 0.88-5.85-1.1-9.34-5.99-10.55-2.39-0.6-4.83-0.55-7.18 0.48-2.32 1.02-4.27 2.37-4.99 4.97-3.88-0.12-3.88-0.12-7.7-2.33 1.53-4.26 3.27-6.56 6.73-8.41 6.17-3.29 12.61-3.62 18.98-0.87 6.06 2.62 9.25 7.43 9.26 14.14 0.02 9.38 0 18.75-0.06 28.66-2.48 0.53-4.9 0.53-7.61 0.53q-0.62-1.63-1.27-3.35c-8.04 4.32-12.49 5.38-17.53 4.17-4.01-0.97-7.1-3.23-9.52-6.98zm7.7-5.89c0.39 3.48 2.55 5.41 5.77 6.02 4.12 0.78 7.84-0.36 10.95-3.18 2.93-2.65 3.15-6.09 2.91-9.65-4.31-0.77-10.41-0.86-13.13-0.15-3.25 0.85-6.02 2.26-6.5 6.96z"/>
	<path class="s2" d="m1230.34 420.48c-6.98 7.19-15.3 7.3-24.02 4.26-4.45-1.56-6.65-4.41-8.22-9.3 0.42-0.31 0.82-0.75 1.32-0.95 1.56-0.63 3.15-1.17 5.02-1.85 0.96 1.15 1.81 2.34 2.83 3.37 3.49 3.51 8.91 4.38 13.01 2.12 1.91-1.05 3.4-2.54 3.31-4.86-0.09-2.28-1.49-3.83-3.54-4.7-1.38-0.59-2.84-0.99-4.29-1.42-2.16-0.64-4.38-1.12-6.5-1.89-1.75-0.63-3.5-1.41-5.07-2.41-7.29-4.64-6.45-14.01-1.4-18.49 8.48-7.52 22.91-4.53 27.36 3.5 0.34 0.62 0.47 1.35 0.76 2.21-1.91 1.59-3.97 2.3-6.45 2.64-0.72-0.73-1.5-1.52-2.28-2.3-2.82-2.81-6.28-3.21-9.96-2.52-0.88 0.16-1.77 0.68-2.48 1.24-2.64 2.07-2.5 5.88 0.32 7.64 1.09 0.69 2.38 1.13 3.63 1.49 2.71 0.79 5.46 1.46 8.84 2.47 1.24 0.5 1.84 0.71 2.66 1.22 5.61 3.13 8.17 7.41 7.12 13.58-0.03 0.18 0.01 0.38-0.16 0.92-0.73 1.58-1.27 2.81-1.81 4.03z"/>
	<path class="s2" d="m1245.56 420.42c-0.01-0.35-0.15-0.65-0.72-1.38-3.47-6.58-5.23-12.96-4.42-19.88 0.87-2.4 1.69-4.82 2.62-7.2 1.22-3.11 3.14-5.74 6.29-8.27 3.06-1.19 5.5-2.07 7.98-2.84 3.32-1.03 6.63-0.84 10.03-0.12 4.84 1.03 8.48 3.86 11.88 7.17 0.51 1.27 1.02 2.54 1.09 4.35-2.57 1.13-4.47 2.6-6.73 2.3-8.55-9.71-18.48-8.63-22.66 2.69-1.55 4.72-1.86 9 0.23 13.61 1.62 4.62 4.81 6.85 9.13 7.68 5.9 1.13 9.92-1.93 13.51-6.45 2 0.63 3.98 1.1 5.81 1.91 0.67 0.29 0.98 1.39 1.18 2.42-0.72 0.89-1.15 1.5-1.6 2.1-4.03 5.27-9.41 7.76-16 7.88-6.61 0.13-12.33-2.24-17.62-5.97z"/>
	<path class="s5" d="m774.23 169.88c1.25-0.39 2.28 0.01 2.4 1.41 0.1 1.31 0.12 2.63 0.12 3.94q0.02 53.35-0.02 106.7c-0.01 2 0.6 4.17-1.43 6.21-0.63-2.92-0.97-6.1-0.97-9.28-0.04-33.14-0.02-66.28-0.03-99.42 0-3.01-0.08-6.02-0.07-9.56z"/>
	<path class="s5" d="m744.44 164.76c-0.25-1.68 0.75-2.26 2.24-2.26q6.43 0 12.85-0.01c2.79-0.01 5.59 0.02 8.38 0 2.15-0.03 4.05 0.68 5.59 2.12 0.39 0.36 0.24 1.29 0.05 2.2-2.17-1.48-4.38-1.97-6.91-1.93-7.23 0.09-14.46 0.01-22.2-0.12z"/>
	<path class="s6" d="m667.76 125.96c-1.04 1.73-2.82 1.64-4.4 1.08-4.12-1.43-8.09-0.83-12.15 0.24-2.33 0.61-4.77 0.83-7.65 1.21 1.25-2.18 3.74-2.93 6.29-3.38 5.9-1.04 11.79-1.41 17.91 0.85z"/>
	<path class="s5" d="m775.47 290.81c1.02 0.08 2.45 0.28 2.91 1.05 1.4 2.4 3.32 4.04 5.79 5.16 1.17 0.53 1.6 1.51 1.63 3.14-3.56-0.13-6.45-1.92-9.05-5.17-0.49-1.22-0.85-1.75-1.2-2.28-0.04-0.51-0.07-1.02-0.08-1.9z"/>
	<path class="s5" d="m790.83 301.75c-0.27-0.64-0.15-1.49 0.19-1.58 2.78-0.79 5.62-1.74 8.27 1.07-2.59 0.49-5.28 0.57-8.46 0.51z"/>
	<path class="s5" d="m735.67 161.49c3.37-1.44 4.04-1.19 5.77 2.38-2.12 0.18-4-0.61-5.77-2.38z"/>
	<path class="s6" d="m674.14 130.19c-1.77 0.56-3.16-0.05-3.72-2.49 1.15 0.44 2.35 1.29 3.72 2.49z"/>
	<path class="s5" d="m808.92 298.33c-1.19-1.43-1.11-1.86 0.13-2.13 0.51-0.1 1.05 0 2.01 0.08-0.31 0.71-1.04 1.35-2.14 2.05z"/>
	<path class="s5" d="m731.11 138.95c1.73 1.44 1.73 1.44-0.14 3.08-0.26-0.88-0.18-1.84 0.14-3.08z"/>
	<path class="s5" d="m733.23 158.47c1.13-0.3 2.39-0.3 2.01 1.9-0.77-0.26-1.34-0.92-2.01-1.9z"/>
	<path class="s5" d="m731.11 152.79c0.81-0.29 1.84-0.56 2.02 0.6 0.04 0.29-0.54 0.69-1.17 1.1-0.51-0.4-0.69-0.86-0.85-1.7z"/>
	<path class="s2" d="m815.63 477.35c-0.33-0.61-0.28-1.09-0.21-1.95 0.29-0.62 0.64-0.84 0.8-1.15 3.66-7.58 15.33-10.06 23.7-6.71 3.02 1.21 5.29 3.41 7.58 6.69 2.32 4.29 1.45 8.27 1.96 12.07q-0.08 8.17-0.19 16.34c-0.03 2.23-0.13 4.46-0.21 6.89-2.61 0.89-4.99 0.6-7.57 0.35-0.2-1.14-0.4-2.22-0.61-3.43-0.49 0.11-1.16 0.05-1.49 0.36-4 3.75-8.82 4.88-14.09 4.3-7.76-0.87-12.92-6.95-12.22-14.22 0.5-5.19 4.57-9.81 10.42-11.3 3.07-0.79 6.28-1.06 9.45-1.42 1.67-0.19 3.38-0.05 5.94-0.14 1.11-0.44 1.34-0.81 1.58-1.17 0.57-3.98-0.69-7.15-4.55-8.61-3.88-1.46-7.76-1.19-11.07 1.65-1.11 0.96-2 2.18-3.23 3.55-1.82-0.64-3.72-1.31-5.99-2.1zm7.31 24.2q6.55 5.05 12.86 0.97c4.17-2.7 5.56-6.17 4.49-11.78-3.45-0.21-6.99-0.26-10.5 0.21-1.46 0.19-2.92 0.72-4.28 1.32-2.21 0.98-3.61 2.71-3.6 5.23 0 1.1 0.33 2.2 1.03 4.05z"/>
	<path class="s2" d="m889.15 498.23c1.39-0.37 1.43-1.62 1.65-2.67 1.11-5.15 4.53-8.09 9.29-9.67 3.6-1.18 7.3-1.72 11.1-1.72 2.21-0.01 4.51 0.47 6.91-0.72-0.09-1.47-0.04-2.96-0.29-4.4-0.35-1.96-1.57-3.36-3.31-4.34-3.9-2.2-9.91-1.36-13.03 1.89-0.77 0.81-1.4 1.75-2.23 2.79-2.36-0.71-4.72-1.18-6.73-2.71 0.78-3.43 3.54-5.35 5.46-7.85 0.11-0.14 0.25-0.29 0.41-0.34 7.08-2.53 14.11-4.04 21.1 0.38 4.48 2.82 7 6.72 7.1 12.02q0.17 9.6 0.06 19.2c-0.04 3.14 0.3 6.34-0.5 9.7-2.61 0.35-4.96 0.54-7.32-0.07-0.29-1.17-0.56-2.21-0.92-3.64-0.95 0.72-1.68 1.25-2.39 1.81-4.68 3.75-9.98 4.08-15.49 2.62-4.52-1.19-7.5-4.14-8.91-8.63-0.34-1.07-0.67-2.14-1.47-3.4-0.47-0.18-0.49-0.25-0.49-0.25zm19.14 6.06c1.08-0.31 2.21-0.51 3.22-0.97 5.45-2.41 7.13-5.68 6.35-12.12-4.05-0.78-9.82-0.73-12.72 0.24-1.23 0.41-2.5 0.91-3.53 1.67-3.65 2.66-3.18 8.4 0.89 10.25 1.48 0.67 3.25 0.68 5.79 0.93z"/>
	<path class="s2" d="m1009.86 490.82c0 2.06-0.2 4.15 0.05 6.18 0.44 3.53 2.67 5.62 6.16 6.42 8.06 1.83 12.86-4.37 13.14-10.18 0.3-6.2 0.15-12.42 0.19-18.63 0.01-2.24 0-4.47 0-6.57 3.49-1.01 3.49-1.01 7.65-0.45 0.25 0.93 0.77 1.97 0.78 3.02q0.13 18.63 0.14 37.26c0 0.54-0.27 1.07-0.47 1.79-2.54 0.83-5.09 0.52-7.68 0.13-0.24-1.22-0.45-2.3-0.73-3.69-0.75 0.46-1.4 0.76-1.93 1.2-5.1 4.27-10.8 4.88-16.96 2.9-3.86-1.24-6.53-3.8-7.74-7.61-0.79-2.48-1.45-5.12-1.5-7.71-0.17-8.46-0.05-16.93-0.01-25.4 0-0.53 0.26-1.06 0.5-1.97 1.2-0.12 2.45-0.31 3.7-0.35 1.11-0.04 2.23 0.1 3.54 0.17 1.5 4.48 0.32 9.02 0.87 14.43 0.11 3.69 0.21 6.38 0.3 9.06z"/>
	<path class="s2" d="m990.4 474.07c0.05 0.97 0.3 2.05-0.78 2.51-1.71 0.73-3.49 1.29-5.42 1.99-0.77-0.78-1.47-1.37-2.04-2.07-2.79-3.43-6.44-3.57-10.3-2.65-2.24 0.52-3.73 2.35-3.84 4.36-0.12 2.2 1.15 3.63 2.96 4.39 2.25 0.95 4.64 1.55 6.97 2.31 2.32 0.76 4.77 1.29 6.93 2.36 8.62 4.28 9.46 14.93 1.88 20.85-5.31 4.15-18.8 4.69-24.79-1.54-1.58-1.65-2.97-3.39-3.57-5.99 1.13-0.63 2.2-1.31 3.35-1.82 1-0.45 2.09-0.71 3.2-1.07 0.92 1.19 1.63 2.3 2.53 3.23 3.17 3.27 8.57 4.21 12.55 2.26 2-0.98 3.42-2.44 3.34-4.79-0.07-2.06-1.15-3.62-3.07-4.37-2.1-0.83-4.26-1.47-6.41-2.17-2.33-0.75-4.76-1.27-6.99-2.24-8-3.49-9.43-11.08-5-18.31 1-1.62 2.84-3.32 4.6-3.76 4.15-1.03 8.41-2.19 12.82-1.15 2.82 0.67 5.36 1.77 7.34 3.97 1.01 1.11 2.07 2.18 3.4 3.49 0.29 0.22 0.39 0.18 0.34 0.21z"/>
	<path class="s2" d="m1105.5 362.44c1.02 0.7 1.57 1.38 2.24 2.39-0.11 1.78-0.34 3.23-0.6 4.91-1.6 0-3.06-0.07-4.5 0.01-3.98 0.22-5.89 1.92-6.33 5.79-0.18 1.64-0.03 3.31-0.03 5.03 3.28 1.36 6.6 0.01 9.65 1.04 1.51 2.09 1.06 4.25 0.48 6.6-3.08 1.34-6.41-0.05-9.74 1.13-0.14 1.11-0.42 2.37-0.43 3.63-0.06 8.65-0.07 17.31-0.09 25.96 0 1.86 0 3.71 0 5.73-2.83 0.97-5.32 0.66-8.15 0.23-0.82-11.47 0.16-22.73-0.76-34.7-0.59-0.87-0.99-0.99-1.38-1.1-1.61-0.16-3.23-0.31-4.97-0.48-0.73-2.27-0.41-4.42-0.24-6.96 1.83-0.17 3.59-0.34 6-0.73 0.72-0.35 0.87-0.48 0.85-0.58-0.05-0.26-0.18-0.5-0.28-0.75 0.37-3.85 0.32-7.74 1.89-11.44 0.94-2.21 2.24-3.54 4.54-4.37 3.73-1.36 7.4-2.36 11.85-1.34z"/>
	<path class="s2" d="m1125.91 407.89q-0.16 5.88-0.33 11.77c-0.05 1.65-0.16 3.29-0.25 5.18-2.8 0.61-5.31 0.6-7.82 0.04-0.95-4.48-1.28-28.7 0.16-43.5 1.99-0.34 3.2-0.4 4.41-0.47 0.79 0.12 1.58 0.24 2.78 0.81 0.55 1.45 0.7 2.45 0.96 4.28 2.23-3.31 5.23-4.03 7.84-5.39 2.35-0.14 4.79-1.23 7.19 0.77 0.69 2.14 0.38 4.5 0.16 7.25-1.19 0.11-2.24 0.2-4.18 0.3-8.35 1.25-9.84 3.9-10.62 9.49-0.03 0.19 0 0.38 0.01 0.56-0.16 1.04-0.32 2.08-0.47 3.86 0.06 2.18 0.11 3.61 0.16 5.05z"/>
	<path class="s2" d="m881.6 465.96c0.85 0.04 1.25 0.15 1.96 0.22 2.08 2.65 0.87 5.35 0.5 8.03-10.91 1.14-12.39 2.18-14.43 11.05-0.03 6.63 0.03 12.33 0.08 18.02-0.14 2.03-0.27 4.07-0.43 6.39-1.42 0.16-2.68 0.39-3.94 0.43-1.3 0.04-2.61-0.11-4.16-0.19-0.99-4.72-0.24-9.4-0.39-14.03-0.15-4.7-0.14-9.4-0.09-14.1 0.06-4.66-0.15-9.34 0.3-14.08 2.91-0.78 5.47-0.8 8.29 0.57 0.33 1.61 0.43 2.44 0.61 4.11 0.96-1.52 1.48-2.34 2-3.17 2.98-1.37 5.74-3.37 9.7-3.25z"/>
	<path class="s2" d="m801.39 502.73c-0.96 1.18-1.77 1.96-2.57 2.75-7.05 6.96-15.91 7.69-24.03 1.97-0.71-0.51-1.43-1-2.73-1.9-0.16 7.78-0.31 14.85-0.45 22.07-2.83 1.03-5.31 0.77-7.76 0.31-0.81-5.02-0.82-54.67-0.01-60.35 2.22-0.83 4.62-0.47 7.33-0.34 0.41 1.31 0.83 2.64 1.38 4.36 1.08-0.81 1.93-1.5 2.82-2.12 8.03-5.56 18.79-3.9 24.68 3.84 1.03 1.34 1.93 2.77 3.15 4.47 2.07 6.29 2.7 12.32 0.86 18.38-0.65 2.12-1.67 4.11-2.67 6.56zm-18.22-28.98c-5.35 0.6-9.15 3.29-10.84 8.46-1.58 4.8-1.22 9.66 0.65 14.32 1.58 3.94 4.48 6.37 8.8 6.98 6.69 0.93 12.69-3.22 14.13-9.97 0.76-3.54 0.64-7.13-0.47-10.58-1.76-5.48-5.25-8.99-12.27-9.21z"/>
	<path class="s2" d="m1210.61 500.83c-0.1 1.68-0.24 3.36-0.3 5.04-0.05 1.7 0.08 3.4-0.06 5.08-0.84 10.57-6.07 16.8-17.83 18.29-3.38 0.44-6.74 0-10.04-1.03-5.14-1.62-8.98-4.58-10.9-9.73 2.05-2.09 2.05-2.09 6.43-3.69 0.58 0.79 1.17 1.69 1.86 2.51 4.31 5.07 11.82 6.17 17.37 2.56 2.33-1.51 3.77-3.65 4.27-6.38 0.2-1.1 0.27-2.24 0.24-3.37-0.03-1.45-0.21-2.9-0.37-4.89-1.34 0.73-2.3 1.18-3.2 1.74-10.78 6.72-21.81 0.77-26.12-7.2-4.21-7.77-3.91-15.57-0.17-23.28 2.82-5.8 7.78-9.02 14.45-10.41 1.22-0.13 2.08-0.09 3.74 0.01 4.76 0.61 7.92 2.82 11.35 5.58 0.22-1.86 0.36-3.12 0.51-4.39 2.57 0 5.13 0 8.03 0 0.16 1.65 0.3 3.07 0.54 4.97 0.05 8.92 0.01 17.37 0 26.57 0.1 1.17 0.15 1.6 0.2 2.02zm-12.19-23.51c-0.56-0.5-1.07-1.08-1.7-1.48-7.46-4.68-15.85-1.35-18.15 7.14-1.01 3.75-0.85 7.46 0.32 11.1 1.81 5.62 7.11 8.9 12.73 7.84 5.01-0.96 8.55-3.77 9.87-8.88 1.38-5.37 0.59-10.42-3.07-15.72z"/>
	<path class="s2" d="m1160 479.34c0.6 1.92 0.99 3.56 1.23 5.23 0.82 5.56 0 10.86-2.74 15.79-5.82 10.5-16.15 12.07-23.45 10.32-9.76-2.34-16.26-10.39-16.38-20.27-0.03-2.61 0.25-5.26 0.75-7.82 1.62-8.13 6.67-13.2 14.51-15.61 0.71-0.23 1.44-0.42 2.52-0.82 1.86-0.14 3.36-0.15 4.86-0.03 6.76 0.55 12.21 3.5 16.15 9.07 0.86 1.22 1.53 2.58 2.55 4.14zm-32.72 8.74c0.16 1.88 0.15 3.79 0.53 5.62 0.89 4.32 3.1 7.79 7.48 9.17 5.65 1.78 12.48 0.76 15.93-6.97 1.92-4.31 1.84-8.8 0.4-13.26-1.83-5.62-6.15-8.88-11.73-8.88-5.34-0.01-10.1 3.51-11.8 8.88-0.45 1.42-0.52 2.96-0.81 5.44z"/>
	<path class="s2" d="m1270.4 466.91c1.67 0.14 3.35 0.28 5.31 0.45q0.34 2.18 0.67 4.29c0.35-0.06 0.84 0 1.04-0.21 2.25-2.37 4.75-4.28 8.04-4.96 1.97-0.41 1.96-0.45 5.68 0.58 0.9 2.28 0.52 4.63-0.33 7.44-0.1 0.46-0.15 0.31-0.15 0.31-1.3-0.16-2.61-0.52-3.9-0.45-4.84 0.3-8.52 3.31-9.62 8.05-0.55 2.36-0.77 4.82-0.85 7.24-0.15 5.07-0.09 10.13-0.15 15.2-0.01 1.48-0.13 2.95-0.21 4.6-2.48 0.99-4.83 0.61-6.98 0.4-0.33-0.34-0.48-0.46-0.59-0.61-0.1-0.14-0.23-0.32-0.23-0.48-0.03-13.5-0.05-27 0.37-41.04 0.92-0.63 1.41-0.72 1.9-0.81z"/>
	<path class="s5" d="m804.93 303.41c-0.03 0.58-0.24 0.91-0.73 1.26-0.89-0.41-1.35-0.95-0.74-1.59 0.19-0.2 0.85 0.04 1.47 0.33z"/>
	<path id="Layer copy 96" class="s2" d="m1021.59 410.95c-0.24 4.23-0.48 8.46-0.73 12.85-2.15 1.27-4.46 0.61-6.69 0.5-0.97-4.21-1.18-20.77-0.48-39.23 2.11-0.51 4.14-0.56 6.61-0.67 0.44-0.06 0.42-0.03 0.54 0.32 0.19 1.08 0.27 1.81 0.24 2.83 0.07 0.67 0.26 1.37 0.45 1.37 0.9-0.01 1.39-0.57 1.35-1.53-0.03-0.01 0.02 0.03 0.2-0.14 0.41-0.41 0.65-0.63 1.24-0.92 1.38-1.8 3.37-1.67 5.36-2.44 5.4-1.07 9.81 0.35 14.06 3.25 0.54 0.63 0.97 1 1.55 1.72 2.61 4.17 2.88 8.52 3.2 12.86-0.06 1.43-0.13 2.86-0.1 4.71 0.03 0.88-0.03 1.34-0.09 2.47 0.05 1.14 0.11 1.59 0.17 2.05-0.13 4.22-0.26 8.43-0.4 12.98-1.29 0.17-2.4 0.37-3.52 0.43-1.18 0.08-2.37 0.02-3.85 0.02-0.17-1.29-0.45-2.4-0.46-3.53-0.05-6.45-0.28-12.91 0.02-19.35 0.21-4.74-2.18-7.64-5.68-10.06-0.66-0.46-1.55-0.7-2.37-0.8-4.54-0.55-9.42 2.74-10.33 7.2-0.46 2.3-0.34 4.72-0.49 7.95 0.07 2.3 0.13 3.73 0.2 5.16z"/>
	<path id="Layer copy 147" class="s2" d="m714.78 413.09c1.15 0.56 1.98 1.3 3.24 2.48 0.91 0.73 1.39 1.03 1.86 1.32 2.32 2.03 5.04 2.38 8.26 1.7 1.36-0.69 2.63-0.94 3.44-1.69 2.36-2.22 1.84-5.81-1.04-7.28-1.5-0.77-3.2-1.18-4.82-1.68-2.61-0.8-5.3-1.37-7.83-2.36-4.16-1.63-6.65-4.71-6.88-9.29-0.23-4.7 1.71-8.34 5.83-10.6 5.28-2.89 10.84-3.22 16.21-0.47 2.95 1.51 5.82 3.55 6.23 7.71-0.1 0.33-0.41 0.35-0.84 0.49-1.22 0.51-2.03 0.89-2.83 1.27-0.75-0.06-1.49-0.11-2.7-0.64-1.48-1.33-2.38-2.45-3.55-2.97-2.91-1.29-5.9-1.35-8.61 0.62-2.62 1.91-2.47 5.62 0.44 7.03 1.92 0.92 4.14 1.22 6.22 1.8 1.6 0.53 3.21 1.01 4.8 1.58 7.14 2.6 10.11 8.19 8.48 14.52-0.4 1.01-0.82 1.54-1.15 2.12-1.79 3.14-4.51 5.03-7.96 5.91-4.73 1.19-9.45 1.26-14.02-0.62-3.76-1.56-6.6-4.09-7.5-8.18 0.98-1.95 3-1.72 4.72-2.77z"/>
	<path id="Layer copy 163" class="s2" d="m804.72 389.42c-0.06 1.1-0.12 2.2-0.18 4.07 0.06 1.56 0.12 2.34 0.18 3.11q-0.08 10.97-0.18 21.94c-0.01 1.85-0.09 3.69-0.14 5.66-2.25 0.82-4.24 0.35-6.69 0.1-0.57-2.26-0.77-4.46-0.78-6.65-0.04-14.91-0.05-29.81-0.17-45.19 0.03-1.47 0.17-2.47 0.83-3.84 2.24-0.45 3.97-0.54 5.69-0.63 1.57 1.1 0.99 2.79 1.17 5.12 0.09 6 0.18 11.16 0.27 16.31z"/>
	<path id="Layer copy 164" class="s2" d="m964.86 411.78c-0.26-1.99-0.67-3.98-0.74-5.98-0.21-5.88 1.1-11.32 5.52-16.32 1.33-1.3 2.23-2.16 3.13-3.02 0 0-0.1-0.05 0.3-0.08 5.66-2.8 11.15-3.8 16.95-2.04 1.75 0.53 3.44 1.3 5.33 2.2 0.68 0.56 1.19 0.87 1.7 1.19 0.08 0.15 0.13 0.33 0.24 0.44 6.27 6.14 7.94 13.56 6.07 22.61-0.13 1.03-0.15 1.4-0.41 2-0.76 1.47-1.28 2.7-2.09 4.13-1.32 1.34-2.27 2.55-3.4 3.58-8.75 7.91-25.58 6.68-31.25-5.97-0.42-0.93-0.9-1.83-1.35-2.74zm28.82-16.03c-0.94-0.98-1.74-2.17-2.84-2.9-7.69-5.16-16.04-0.78-17.95 6.5-0.97 3.68-0.92 7.48 0.17 11.15 1.09 3.65 3.41 6.4 7.16 7.41 7.55 2.03 13.73-2.45 15.17-8.5 1.08-4.52 0.58-8.79-1.71-13.66z"/>
	<path id="Layer copy 165" class="s2" d="m931.4 387c1.25 1.39 2.5 2.77 4.09 4.66 0.6 1.12 0.85 1.74 1.19 2.58-1.19 0.54-2.22 1.08-3.3 1.48-1.08 0.41-2.22 0.67-3.37 1.01-0.92-1.05-1.63-2-2.47-2.82-3.47-3.42-7.83-4.19-12.22-2.17-2.96 1.36-4.93 3.57-5.86 7.09-0.4 1.45-0.59 2.62-0.96 4.13-0.75 3.13-0.05 5.79 0.97 8.31 3.31 8.21 13.32 9.73 19.06 2.97 0.54-0.64 1.02-1.33 1.63-2.12 2.34 0.76 4.57 1.5 6.83 2.28 0.03 0.05 0.05 0.17-0.05 0.42-0.2 0.77-0.29 1.29-0.66 2.03-0.81 0.87-1.31 1.56-1.86 2.2-3.77 4.35-8.53 6.37-14.3 6.44-4.78 0.05-8.93-1.56-12.9-3.93-2.74-2.91-4.99-6.11-6.37-10.57-0.35-1.14-0.56-1.67-0.78-2.19 0.23-3.45 0.46-6.9 0.85-11.06 0.78-2.2 1.4-3.67 2.02-5.15 1.29-1.41 2.58-2.82 4.38-4.66 3.18-1.74 5.85-3.06 8.53-4.38 4.36-0.01 8.74-0.14 13.38 2.22 1.1 0.64 1.63 0.93 2.17 1.23z"/>
	<path id="Layer copy 166" class="s2" d="m953.52 424.33c-1.81 0.21-3.24 0.15-5.44-0.08-1.04-2.15-1.31-4.14-1.58-6.13 0.06-8.23 0.12-16.46 0.08-25.15 0-2.58 0.09-4.69 0.22-6.8 0.1-1.53 1.21-1.73 3.24-1.76 1.9 0.01 2.98 0.02 4.07 0.04 0.13 5.79 0.26 11.58 0.39 18.17 0.07 1.26 0.14 1.72 0.21 2.18-0.1 4.75-0.16 9.5-0.31 14.26-0.05 1.67-0.33 3.34-0.88 5.27z"/>
	<path id="Layer copy 167" class="s2" d="m988.07 377.12c-1.17 0.58-2.35 1.17-4.23 1.73-1.77-0.06-2.84-0.09-3.9-0.12-0.1-1.73 1.46-2.56 2.48-4.39 1.79-2.43 3.21-4.35 4.63-6.28 2.58 0.06 5.17 0.12 7.65 0.56-2.29 3.09-4.46 5.79-6.63 8.5z"/>
	<path id="Layer copy 168" class="s2" d="m948.09 368.06c2.39-0.5 4.63-0.49 6.37 1.65 1.72 2.11 1.71 4.29-0.18 6.26-1.2 1.25-2.62 2.06-4.99 1.75-1.11-0.44-1.65-0.67-2.19-0.9-0.94-1.4-1.86-2.81-1.61-5.12 0.97-1.55 1.78-2.59 2.6-3.64z"/>
	<path id="Layer copy 169" class="s2" d="m847.57 389.34c0.64 0.71 0.97 1.25 1.53 2.03 3.27 6.53 3.69 9.26 2.41 15.14-4.27 0.64-8.67 0.17-13.9 0.34-3.29 0.04-5.72 0.09-8.16 0.14q-3.01 0-6 0c-0.44 4.8 1.42 8.41 5.64 10.28 6.07 2.69 11.25 1.08 15.55-4.04 2.22 0.79 4.71 0.73 6.09 3.45-0.46 0.88-0.94 1.42-1.49 2.22-3.01 3.45-6.56 5.56-11.68 6.42-2.17 0.07-3.54 0.17-4.88 0.06-7.99-0.64-13.69-4.47-16.6-12.1-0.42-1.1-0.78-2.23-1.17-3.35-0.15-2.03-0.47-4.05-0.42-6.07 0.16-5.99 2.06-11.3 7.06-15.92 2.7-1.59 4.9-2.75 7.11-3.91 2.34-0.15 4.71-0.59 7.01-0.38 4.48 0.41 8.45 2.16 11.9 5.69zm-24.03 8.45c-0.05 0.8-0.09 1.6-0.15 2.66 6.88 0.08 13.48 0.16 20.08 0.01 0.84-2.96-0.44-4.98-1.97-6.82-1.58-1.89-3.72-2.94-6.2-3.21-5.14-0.58-8.71 1.49-11.76 7.36z"/>
	<path id="Layer copy 170" class="s2" d="m782.76 389.91c0.64 0.71 0.97 1.25 1.53 2.03 3.27 6.53 3.69 9.26 2.41 15.14-4.27 0.64-8.67 0.17-13.89 0.34-3.3 0.05-5.73 0.09-8.17 0.14q-3.01 0-6 0c-0.44 4.8 1.42 8.41 5.64 10.28 6.08 2.69 11.25 1.08 15.55-4.04 2.22 0.79 4.72 0.73 6.09 3.45-0.45 0.89-0.94 1.42-1.49 2.22-3.01 3.45-6.56 5.56-11.68 6.42-2.17 0.07-3.53 0.17-4.88 0.06-7.99-0.64-13.69-4.47-16.6-12.1-0.42-1.1-0.78-2.23-1.17-3.35-0.15-2.03-0.47-4.05-0.41-6.07 0.16-5.99 2.05-11.3 7.05-15.91 2.7-1.6 4.9-2.76 7.11-3.92 2.34-0.15 4.71-0.59 7.01-0.38 4.48 0.41 8.45 2.16 11.9 5.69zm-24.03 8.45c-0.05 0.8-0.09 1.6-0.15 2.66 6.88 0.08 13.48 0.16 20.08 0.01 0.84-2.96-0.44-4.98-1.97-6.81-1.58-1.9-3.72-2.94-6.2-3.22-5.14-0.58-8.7 1.49-11.76 7.36z"/>
	<path id="Layer copy 171" class="s2" d="m1021.59 410.95c-0.24 4.23-0.48 8.46-0.73 12.85-2.15 1.27-4.46 0.61-6.69 0.5-0.97-4.21-1.18-20.77-0.48-39.23 2.11-0.51 4.14-0.56 6.61-0.67 0.44-0.06 0.42-0.03 0.54 0.32 0.19 1.08 0.27 1.81 0.24 2.83 0.07 0.67 0.26 1.37 0.45 1.37 0.9-0.01 1.39-0.57 1.35-1.53-0.03-0.01 0.02 0.03 0.2-0.14 0.41-0.41 0.65-0.63 1.24-0.92 1.38-1.8 3.37-1.67 5.36-2.44 5.4-1.07 9.81 0.35 14.06 3.25 0.54 0.63 0.97 1 1.55 1.72 2.61 4.17 2.88 8.52 3.2 12.86-0.06 1.43-0.13 2.86-0.1 4.71 0.03 0.88-0.03 1.34-0.09 2.47 0.05 1.14 0.11 1.59 0.17 2.05-0.13 4.22-0.26 8.43-0.4 12.98-1.29 0.17-2.4 0.37-3.52 0.43-1.18 0.08-2.37 0.02-3.85 0.02-0.17-1.29-0.45-2.4-0.46-3.53-0.05-6.45-0.28-12.91 0.02-19.35 0.21-4.74-2.18-7.64-5.68-10.06-0.66-0.46-1.55-0.7-2.37-0.8-4.54-0.55-9.42 2.74-10.33 7.2-0.46 2.3-0.34 4.72-0.49 7.95 0.07 2.3 0.13 3.73 0.2 5.16z"/>
	<path id="Layer copy 172" class="s2" d="m714.78 413.09c1.15 0.56 1.98 1.3 3.24 2.48 0.91 0.73 1.39 1.03 1.86 1.32 2.32 2.03 5.04 2.38 8.26 1.7 1.36-0.69 2.63-0.94 3.44-1.69 2.36-2.22 1.84-5.81-1.04-7.28-1.5-0.77-3.2-1.18-4.82-1.68-2.61-0.8-5.3-1.37-7.83-2.36-4.16-1.63-6.65-4.71-6.88-9.29-0.23-4.7 1.71-8.34 5.83-10.6 5.28-2.89 10.84-3.22 16.21-0.47 2.95 1.51 5.82 3.55 6.23 7.71-0.1 0.33-0.41 0.35-0.84 0.49-1.22 0.51-2.03 0.89-2.83 1.27-0.75-0.06-1.49-0.11-2.7-0.64-1.48-1.33-2.38-2.45-3.55-2.97-2.91-1.29-5.9-1.35-8.61 0.62-2.62 1.91-2.47 5.62 0.44 7.03 1.92 0.92 4.14 1.22 6.22 1.8 1.6 0.53 3.21 1.01 4.8 1.58 7.14 2.6 10.11 8.19 8.48 14.52-0.4 1.01-0.82 1.54-1.15 2.12-1.79 3.14-4.51 5.03-7.96 5.91-4.73 1.19-9.45 1.26-14.02-0.62-3.76-1.56-6.6-4.09-7.5-8.18 0.98-1.95 3-1.72 4.72-2.77z"/>
	<path id="Layer copy 173" class="s2" d="m804.72 389.42c-0.06 1.1-0.12 2.2-0.18 4.07 0.06 1.56 0.12 2.34 0.18 3.11q-0.08 10.97-0.18 21.94c-0.01 1.85-0.09 3.69-0.14 5.66-2.25 0.82-4.24 0.35-6.69 0.1-0.57-2.26-0.77-4.46-0.78-6.65-0.04-14.91-0.05-29.81-0.17-45.19 0.03-1.47 0.17-2.47 0.83-3.84 2.24-0.45 3.97-0.54 5.69-0.63 1.57 1.1 0.99 2.79 1.17 5.12 0.09 6 0.18 11.16 0.27 16.31z"/>
	<path id="Layer copy 174" class="s2" d="m964.86 411.78c-0.26-1.99-0.67-3.98-0.74-5.98-0.21-5.88 1.1-11.32 5.52-16.32 1.33-1.3 2.23-2.16 3.13-3.02 0 0-0.1-0.05 0.3-0.08 5.66-2.8 11.15-3.8 16.95-2.04 1.75 0.53 3.44 1.3 5.33 2.2 0.68 0.56 1.19 0.87 1.7 1.19 0.08 0.15 0.13 0.33 0.24 0.44 6.27 6.14 7.94 13.56 6.07 22.61-0.13 1.03-0.15 1.4-0.41 2-0.76 1.47-1.28 2.7-2.09 4.13-1.32 1.34-2.27 2.55-3.4 3.58-8.75 7.91-25.58 6.68-31.25-5.97-0.42-0.93-0.9-1.83-1.35-2.74zm28.82-16.03c-0.94-0.98-1.74-2.17-2.84-2.9-7.69-5.16-16.04-0.78-17.95 6.5-0.97 3.68-0.92 7.48 0.17 11.15 1.09 3.65 3.41 6.4 7.16 7.41 7.55 2.03 13.73-2.45 15.17-8.5 1.08-4.52 0.58-8.79-1.71-13.66z"/>
	<path id="Layer copy 175" class="s2" d="m931.4 387c1.25 1.39 2.5 2.77 4.09 4.66 0.6 1.12 0.85 1.74 1.19 2.58-1.19 0.54-2.22 1.08-3.3 1.48-1.08 0.41-2.22 0.67-3.37 1.01-0.92-1.05-1.63-2-2.47-2.82-3.47-3.42-7.83-4.19-12.22-2.17-2.96 1.36-4.93 3.57-5.86 7.09-0.4 1.45-0.59 2.62-0.96 4.13-0.75 3.13-0.05 5.79 0.97 8.31 3.31 8.21 13.32 9.73 19.06 2.97 0.54-0.64 1.02-1.33 1.63-2.12 2.34 0.76 4.57 1.5 6.83 2.28 0.03 0.05 0.05 0.17-0.05 0.42-0.2 0.77-0.29 1.29-0.66 2.03-0.81 0.87-1.31 1.56-1.86 2.2-3.77 4.35-8.53 6.37-14.3 6.44-4.78 0.05-8.93-1.56-12.9-3.93-2.74-2.91-4.99-6.11-6.37-10.57-0.35-1.14-0.56-1.67-0.78-2.19 0.23-3.45 0.46-6.9 0.85-11.06 0.78-2.2 1.4-3.67 2.02-5.15 1.29-1.41 2.58-2.82 4.38-4.66 3.18-1.74 5.85-3.06 8.53-4.38 4.36-0.01 8.74-0.14 13.38 2.22 1.1 0.64 1.63 0.93 2.17 1.23z"/>
	<path id="Layer copy 176" class="s2" d="m888.57 387c1.24 1.39 2.49 2.77 4.09 4.66 0.6 1.12 0.85 1.74 1.18 2.58-1.18 0.54-2.21 1.08-3.29 1.48-1.09 0.41-2.22 0.67-3.38 1.01-0.91-1.05-1.62-2-2.46-2.82-3.47-3.42-7.84-4.19-12.22-2.17-2.96 1.36-4.93 3.57-5.87 7.09-0.4 1.45-0.58 2.62-0.95 4.13-0.75 3.13-0.05 5.79 0.97 8.31 3.31 8.21 13.31 9.73 19.05 2.97 0.54-0.64 1.03-1.33 1.64-2.12 2.33 0.76 4.57 1.5 6.83 2.28 0.03 0.05 0.05 0.17-0.06 0.42-0.19 0.77-0.28 1.29-0.66 2.03-0.81 0.87-1.3 1.56-1.86 2.2-3.77 4.35-8.52 6.37-14.3 6.44-4.77 0.05-8.92-1.56-12.9-3.93-2.73-2.91-4.99-6.11-6.36-10.57-0.35-1.14-0.57-1.67-0.78-2.19 0.23-3.45 0.46-6.9 0.85-11.06 0.78-2.2 1.4-3.67 2.02-5.15 1.29-1.41 2.58-2.82 4.37-4.66 3.18-1.74 5.86-3.06 8.54-4.38 4.36-0.01 8.74-0.14 13.37 2.22 1.1 0.64 1.64 0.93 2.18 1.23z"/>
	<path id="Layer copy 177" class="s2" d="m953.52 424.33c-1.81 0.21-3.24 0.15-5.44-0.08-1.04-2.15-1.31-4.14-1.58-6.13 0.06-8.23 0.12-16.46 0.08-25.15 0-2.58 0.09-4.69 0.22-6.8 0.1-1.53 1.21-1.73 3.24-1.76 1.9 0.01 2.98 0.02 4.07 0.04 0.13 5.79 0.26 11.58 0.39 18.17 0.07 1.26 0.14 1.72 0.21 2.18-0.1 4.75-0.16 9.5-0.31 14.26-0.05 1.67-0.33 3.34-0.88 5.27z"/>
	<path id="Layer copy 178" class="s2" d="m988.07 377.12c-1.17 0.58-2.35 1.17-4.23 1.73-1.77-0.06-2.84-0.09-3.9-0.12-0.1-1.73 1.46-2.56 2.48-4.39 1.79-2.43 3.21-4.35 4.63-6.28 2.58 0.06 5.17 0.12 7.65 0.56-2.29 3.09-4.46 5.79-6.63 8.5z"/>
	<path id="Layer copy 179" class="s2" d="m948.09 368.06c2.39-0.5 4.63-0.49 6.37 1.65 1.72 2.11 1.71 4.29-0.18 6.26-1.2 1.25-2.62 2.06-4.99 1.75-1.11-0.44-1.65-0.67-2.19-0.9-0.94-1.4-1.86-2.81-1.61-5.12 0.97-1.55 1.78-2.59 2.6-3.64z"/>
	<g id="Layer 1">
	</g>
</svg>