<svg version="1.2" xmlns="http://www.w3.org/2000/svg" viewBox="0 0 1500 1500" width="1500" height="1500">
	<style>
		.s0 { fill: #f7f2ea } 
		.s1 { fill: #f7f2ea} 
	</style>
	<path class="s0" d="m412.98 116.18c7.43-4.67 14.33-9.33 21.49-13.54 18.94-11.13 38.22-21.62 58.4-30.37 9.98-4.33 19.92-8.71 29.94-12.94 4.71-1.99 9.52-3.75 14.34-5.46 24.92-8.87 50.14-16.74 75.92-22.74 16.19-3.77 32.49-7.04 48.96-9.25 11.19-1.5 22.44-2.46 33.61-4.03 5.94-0.84 11.92-0.64 17.83-1.28 17.45-1.89 34.94-0.82 52.4-1.05 5.75-0.07 11.5-0.11 17.22 0.96 2.28 0.42 4.68 0.27 7.02 0.29 8.96 0.08 17.85 1.07 26.72 2.25 10.97 1.45 21.97 2.74 32.94 4.24 4.43 0.61 8.8 1.63 13.2 2.44 28.98 5.33 57.45 12.65 85.37 22.06 16.56 5.59 32.9 11.77 48.89 18.92 12.65 5.66 25.3 11.32 37.56 17.78 13.01 6.85 25.96 13.83 38.28 21.9 9.62 6.3 19.42 12.34 28.85 18.91 7.86 5.48 15.31 11.52 22.9 17.38 4.56 3.51 9.1 7.04 13.52 10.72 5.39 4.5 10.65 9.16 15.96 13.77 12.74 11.04 24.69 22.92 36.25 35.16 8.47 8.98 16.49 18.39 24.51 27.79 6.63 7.77 12.98 15.79 19.41 23.74 1.75 2.15 3.46 4.34 5 6.63 9.05 13.44 18.32 26.74 26.97 40.43 9.33 14.78 17.57 30.2 25.48 45.81 8.68 17.12 16.76 34.53 23.9 52.34 6.27 15.62 12.09 31.41 17.09 47.51 5.51 17.73 10.48 35.59 14.85 53.61q5.43 22.37 8.94 45.13c1.46 9.47 3.21 18.9 4.54 28.38 0.86 6.11 1.17 12.29 1.74 18.44 0.69 7.41 1.53 14.82 2.04 22.25 0.4 5.73 0.35 11.5 0.6 17.25 0.19 4.25 0.63 8.49 0.78 12.74 0.26 7.23 0.71 14.48-0.38 21.7-0.16 1.05-0.36 2.11-0.39 3.17-0.22 9.79-0.51 19.57-1.15 29.36-0.7 10.86-1.95 21.63-3.24 32.4-0.94 7.82-2 15.64-3.37 23.39-2.07 11.75-4.31 23.47-6.77 35.14-1.98 9.38-4.13 18.74-6.67 27.99-7.28 26.54-15.58 52.73-26.1 78.21-6.2 14.98-12.86 29.76-20.06 44.25-10.06 20.23-21.13 39.94-33.36 58.98q-17.83 27.71-38.46 53.39c-3.73 4.65-7.47 9.3-11.31 13.86-1.8 2.14-2.47 4.44-1.8 7.12 0.68 2.68 1.33 5.38 2.17 8.02 4.21 13.21 8.4 26.42 12.72 39.59 10.03 30.59 20.05 61.19 30.25 91.73 5.81 17.39 12.03 34.64 17.94 52 3.92 11.49 7.56 23.08 11.4 34.6 2.64 7.89 5.45 15.71 8.13 23.58 2.41 7.06 2.64 14.26 0.58 21.4-2.7 9.36-8.62 16.09-17.68 19.7-6.21 2.46-12.62 3.29-19.43 2.16-9.02-1.5-18.17-2.17-27.27-3.23-2.32-0.27-4.62-0.76-6.95-1.04-11.41-1.35-22.84-2.57-34.24-4.02-10.77-1.37-21.5-3-32.26-4.45-4.64-0.63-9.3-1.1-13.96-1.63-7.18-0.83-14.36-1.72-21.56-2.44-2.75-0.28-5.55-0.36-8.3-0.21-19.52 1.1-37.09 7.52-52.32 19.82-5.47 4.42-10.36 9.49-14.75 15.04-6.34 8.02-12.87 15.89-19.31 23.83-0.94 1.15-1.8 2.37-2.74 3.53q-12.29 15.12-24.61 30.22c-6.47 7.92-12.67 16.08-19.53 23.64-8.37 9.24-18.97 14.53-31.65 14.23-12.22-0.3-21.58-5.79-27.41-16.84-6.26-11.87-12.62-23.7-18.9-35.57-1.99-3.76-3.84-7.6-5.81-11.38-10.66-20.4-21.3-40.82-32.02-61.19-7.14-13.58-14.36-27.11-21.59-40.65-5.92-11.09-11.99-22.11-17.76-33.28-1.73-3.35-4.05-4.7-7.65-4.35-6.14 0.6-12.29 1.14-18.43 1.74-1.27 0.12-2.52 0.51-3.79 0.57-11.06 0.51-22.12 1.19-33.19 1.4-12.15 0.23-24.31 0.05-36.47 0.01-10.02-0.03-19.96-1.26-29.91-2.18-6.15-0.56-12.31-1.01-18.46-1.58-3.56-0.34-6.15 0.78-7.87 4.09-1.77 3.4-4.02 6.55-5.79 9.95-8.08 15.5-16 31.09-24.1 46.58-5.24 10.01-10.69 19.9-16.03 29.85-3.83 7.14-7.67 14.28-11.43 21.45-6.14 11.7-12.18 23.46-18.34 35.16-7.05 13.39-14.39 26.63-21.21 40.13-5.72 11.31-21.21 18.4-34.28 15.74-10.65-2.17-19.48-7.42-26.35-15.77-10.42-12.67-20.61-25.52-30.95-38.25-9.94-12.23-19.95-24.4-29.92-36.59-1.76-2.15-3.52-4.28-5.24-6.46-13.11-16.56-30.23-26.7-50.73-31.04-8.95-1.89-18.02-2.65-27.28-1.01-8.58 1.51-17.34 1.94-26.01 2.96-8.87 1.05-17.73 2.26-26.6 3.36-8.24 1.03-16.49 1.98-24.73 3.02q-18.69 2.34-37.37 4.76c-6.12 0.8-12.2 1.89-18.34 2.53-10.75 1.12-20.28-2.03-28.31-9.2-2.17-1.94-4.03-4.51-5.28-7.15-3.25-6.85-5.19-14.02-3.04-21.68 0.92-3.28 1.78-6.58 2.86-9.81q13.77-41.27 27.63-82.51c11-32.73 22.05-65.44 33.05-98.17 3.88-11.52 7.73-23.04 11.51-34.59 3.18-9.72 6.15-19.52 9.39-29.23 1.03-3.09 0.94-5.46-1.29-8.18-7.97-9.72-15.73-19.61-23.39-29.57-4.03-5.23-7.84-10.64-11.48-16.14-8.23-12.45-16.52-24.87-24.38-37.55-8.76-14.13-16.38-28.92-23.98-43.71-16.94-32.93-30.04-67.36-40.96-102.65-7.25-23.43-12.79-47.33-17.2-71.45-2.68-14.65-4.54-29.46-6.47-44.23-0.9-6.96-0.86-14.03-1.68-21-1.26-10.62-0.83-21.29-1.47-31.91-0.34-5.52-0.96-11.04-0.8-16.58 0.14-4.88 0.56-9.77 0.83-14.65q0.16-3.19 0.2-6.39c0.09-5.54-0.11-11.09 1.05-16.57 0.3-1.44 0.22-2.97 0.23-4.46 0.09-11.75 1.83-23.34 3.4-34.94 1.29-9.49 2.64-18.98 4.2-28.43 1.35-8.2 2.77-16.4 4.62-24.49 3.53-15.37 7.33-30.67 11.16-45.97 1.35-5.37 3.07-10.65 4.75-15.93 6.25-19.72 12.9-39.29 20.73-58.45 8.24-20.14 17.36-39.87 27.47-59.14 10.42-19.83 21.72-39.16 34.2-57.74 8.54-12.73 17.91-24.91 27.26-37.07 7.14-9.27 14.83-18.13 22.28-27.17q0.4-0.49 0.84-0.96c10.4-10.99 20.27-22.52 31.5-32.68 12.63-11.42 25-23.12 38.27-33.86 11.61-9.38 23.62-18.19 35.6-27.06 4.27-3.16 8.83-5.92 13.67-9.09zm116.45 977.87c5.14 2.58 10.36 5.04 15.43 7.76 11.3 6.07 23.29 10.65 35.21 15.2 14.52 5.55 29.36 10.35 44.27 14.77 14.5 4.31 29.26 7.71 44.26 9.93 8.42 1.25 16.83 2.64 25.29 3.62 9.51 1.1 19.05 2.25 28.6 2.6 12.78 0.47 25.6 0 38.39 0.27 11.54 0.24 22.96-1.31 34.46-1.63q0.64-0.03 1.27-0.13c8.43-1.19 16.9-2.16 25.29-3.61 11.97-2.06 23.98-4 35.77-6.83 18.25-4.39 36.16-10.06 53.78-16.53 15.62-5.74 30.84-12.43 45.71-19.92 13.52-6.82 26.97-13.76 39.73-21.95 6.45-4.14 13.05-8.1 19.31-12.52 12.35-8.73 24.42-17.82 36.06-27.52 10.16-8.47 19.87-17.42 29.44-26.5 8.03-7.61 15.33-15.99 22.95-24.04 0.73-0.78 1.37-1.63 2.05-2.45 4.58-5.61 9.26-11.14 13.72-16.84 6.82-8.72 13.84-17.31 20.14-26.41q15.1-21.81 27.85-45.13c12.5-22.88 23.27-46.5 31.52-71.24 3.04-9.1 5.83-18.27 8.85-27.37 3.96-11.96 6.83-24.19 9.47-36.49 2.59-12.08 4.37-24.31 6.18-36.52 1.19-7.99 2.15-16.04 2.71-24.1 0.64-9.13 1.93-18.23 1.51-27.43-0.04-1.04 0.24-2.11 0.39-3.16 1.14-7.86 0.66-15.74 0.3-23.61-0.17-3.83-0.8-7.65-0.69-11.47 0.25-9.62-0.87-19.15-1.73-28.69-0.82-9.11-2.35-18.15-3.39-27.25-1.38-12.08-3.59-24.04-6.28-35.86-4.69-20.57-10.13-40.97-17.62-60.75-3.02-7.97-5.66-16.11-9.04-23.92-5.08-11.73-10.32-23.42-16.1-34.82-8.87-17.5-18.94-34.31-30.04-50.52-9.16-13.36-18.43-26.61-28.94-38.99-9.1-10.72-18.37-21.29-28.13-31.41-6.36-6.59-13.17-12.73-19.86-18.99-9.68-9.05-20.03-17.23-30.43-25.35-11.43-8.91-23.53-16.89-35.67-24.82-13.24-8.64-27.04-16.28-41.02-23.55-10.01-5.2-20.48-9.56-30.89-13.93-12.38-5.2-24.98-9.81-37.85-13.75-11.82-3.62-23.61-7.3-35.7-9.94-13.95-3.06-27.98-5.59-42.17-7.19-4.45-0.5-8.91-0.83-13.34-1.45-10.35-1.47-20.72-2.35-31.19-2.27-15.57 0.13-31.14 0.09-46.71 0.17-2.12 0.01-4.25 0.19-6.37 0.41q-8.89 0.93-17.77 1.95c-6.98 0.8-13.96 1.51-20.91 2.5-22.42 3.2-44.37 8.48-66.02 15.04-34.03 10.3-66.33 24.61-97.19 42.21-11.28 6.44-22.48 13.08-33.04 20.68-10.37 7.47-20.62 15.12-30.65 23.04-7.34 5.81-14.54 11.87-21.26 18.38-13 12.61-26.28 24.98-37.9 38.94-5.45 6.55-11.12 12.93-16.32 19.67-9.37 12.14-18.73 24.3-26.81 37.38-5.93 9.6-12.25 19-17.71 28.87-6.18 11.19-11.84 22.69-17.26 34.27-4.61 9.84-8.73 19.91-12.73 30.02-2.98 7.52-5.42 15.26-8.1 22.91-7.02 19.96-11.91 40.5-15.9 61.22-2.38 12.31-5.14 24.62-5.49 37.25-0.02 0.63-0.14 1.27-0.26 1.9-2 10.92-2.75 22.03-3.03 33.04-0.47 18.73-1.01 37.47 0.68 56.23 0.92 10.17 1.28 20.4 2.79 30.51 1.53 10.32 2.99 20.66 4.9 30.92 3.21 17.19 7.43 34.18 12.55 50.89 4.06 13.24 8.87 26.26 13.67 39.25 2.96 7.99 6.27 15.87 9.92 23.57 5.57 11.75 11.56 23.29 17.4 34.91q1.43 2.87 3.1 5.59 9.8 15.75 19.67 31.45c2.04 3.24 4.08 6.5 6.31 9.61 2.98 4.15 6.15 8.16 9.24 12.23 1.02 1.36 1.99 2.77 3.07 4.08 4.87 5.92 9.74 11.84 14.69 17.7 4.39 5.21 8.6 10.61 13.37 15.45 15.4 15.63 30.31 31.79 47.8 45.23 6.42 4.93 12.61 10.15 18.98 15.15 2.68 2.1 5.55 3.96 8.32 5.95 17.35 12.43 35.47 23.62 55.14 34.13z"/>
	<path class="s1" d="m330.17 655.36c0.01-4.27 0.02-7.89 0.02-11.52 0.02-10.02 0.99-19.98 2.23-29.91 1.35-10.77 2.54-21.57 4.3-32.28 1.51-9.24 3.6-18.4 5.66-27.55 4.83-21.46 11.26-42.46 19.7-62.76 6.95-16.72 14.03-33.42 23.29-49.07 3.69-6.23 7.03-12.67 10.77-18.87 6.39-10.58 13.42-20.74 20.82-30.64 9.44-12.65 19.38-24.86 30.53-36.07 2.7-2.71 4.9-5.93 7.69-8.54 7.77-7.27 15.72-14.36 23.62-21.5 14.92-13.47 31.27-25.02 48.15-35.84 18.88-12.1 38.44-22.89 59.29-31.31 12.05-4.88 23.97-10.1 36.35-14.11 14-4.54 28.18-8.43 42.65-11.2 5.23-1 10.42-2.21 15.66-3.09 9.03-1.53 18.08-2.87 27.12-4.29q0.31-0.04 0.63-0.05c21.06-1.61 42.17-2.38 63.24-1.25 14.21 0.76 28.4 2 42.52 4.41 13.24 2.27 26.5 4.35 39.41 8.07 12.69 3.65 25.44 7.27 37.78 11.93 20.55 7.75 40.56 16.83 59.57 27.94 7.36 4.3 14.78 8.51 21.94 13.13 13.8 8.9 26.87 18.84 39.66 29.13 5.13 4.13 9.85 8.79 14.76 13.2 3.8 3.42 7.7 6.72 11.41 10.24 8.36 7.93 15.59 16.9 23.34 25.4 7.64 8.37 14.33 17.45 21.03 26.53 8.98 12.17 17.36 24.73 24.91 37.88 10.21 17.79 18.93 36.25 26.73 55.16 5.28 12.81 9.56 25.99 13.54 39.28 4.7 15.75 8.56 31.69 11.47 47.84 1.44 7.96 2.35 16.01 3.41 24.03 0.76 5.7 1.39 11.41 2.08 17.12 0.07 0.63 0.19 1.27 0.21 1.9 0.37 16.19 2.52 32.36 1.26 48.53-1 12.94-0.89 25.96-3.2 38.81-1.7 9.42-2.52 18.99-4.14 28.43-1.41 8.18-3.19 16.31-5.16 24.37-6.09 24.91-14.04 49.21-24.65 72.57-5.82 12.8-11.83 25.56-18.55 37.9-7.54 13.84-15.96 27.19-25.5 39.78-3.99 5.27-7.7 10.74-11.76 15.95-4.57 5.88-9.2 11.75-14.16 17.29-6.67 7.47-13.44 14.88-20.62 21.84-8.87 8.59-18.04 16.86-27.66 24.65-7.61 6.17-15.09 12.51-23.26 17.94-7.45 4.95-14.89 9.92-22.39 14.79-12.72 8.25-26.11 15.3-39.77 21.84-20.6 9.87-41.59 18.74-63.77 24.49-11.34 2.94-22.64 6.08-34.06 8.7-7.25 1.65-14.67 2.57-22.04 3.69-5.68 0.86-11.39 1.53-17.08 2.28q-0.64 0.1-1.27 0.14c-19.15 1.15-38.34 2.39-57.49 1.26-17.19-1-34.34-2.68-51.35-5.83-19.75-3.66-39.19-8.38-58.2-14.74-16.38-5.47-32.36-12-47.99-19.39-19.7-9.32-38.56-20.07-56.48-32.46-10.87-7.52-21.28-15.61-31.56-23.94-14.29-11.59-27.31-24.47-39.89-37.79-11.11-11.76-21.31-24.33-30.9-37.41q-26.01-35.45-44.22-75.44c-10.09-22.17-18.12-45.07-24.59-68.55-4.03-14.62-7.08-29.43-9.59-44.34-1.44-8.6-2.13-17.32-3.01-26.01-0.84-8.25-1.67-16.51-2.19-24.79-0.36-5.74-0.18-11.51-0.25-17.9zm616.76 165.36c0.32-2.96 0.76-5.92 0.92-8.89 0.2-3.61 0.64-7.3 0.11-10.83-0.8-5.32-0.76-10.62-0.92-15.94-0.07-2.56-0.13-5.12-0.31-7.67-0.29-4.03-0.68-8.05-1.02-12.08-0.29-3.39-0.46-6.8-0.87-10.17-1.69-13.83 1.96-26.4 10-37.41 5.63-7.71 12.28-14.72 18.85-21.69 9.43-10.01 17.35-20.93 23.49-33.28 6.6-13.28 9.23-27.38 10-41.96 0.53-10.13-1.62-19.88-4.43-29.57-5.52-19.07-16.32-34.52-31.68-46.89-11.17-8.99-23.85-14.77-37.99-17.31q-4.72-0.85-9.44-1.68c-10.91-1.88-21.82-3.85-32.75-5.6-15.61-2.51-27.36-10.42-34.27-24.74-5.18-10.74-9.8-21.76-14.7-32.65-2.88-6.41-5.33-13.08-8.84-19.14-6.31-10.92-14.25-20.62-23.88-28.92-8.54-7.35-18.34-12.46-28.73-16.36-17.29-6.48-35.19-6.47-52.94-2.68-17.21 3.67-32.36 11.76-44.79 24.49q-1.79 1.83-3.59 3.65c-9.08 9.25-15.88 19.99-20.98 31.86-1.26 2.94-2.58 5.85-3.89 8.77-3.23 7.19-6.39 14.42-9.72 21.56-2.6 5.58-4.54 11.44-8.48 16.41-7.57 9.54-16.67 16.3-29.01 18.23-11.79 1.83-23.53 3.91-35.29 5.91-9.27 1.57-18.41 3.55-26.93 7.79-12.16 6.06-22.72 14.05-31.59 24.45-8.44 9.89-14.71 20.89-18.65 33.21-4.28 13.37-5.4 27.15-4.2 41.09 0.38 4.43 1.23 8.87 2.38 13.18 3.79 14.19 10.58 26.92 19.65 38.44 1.97 2.51 4.29 4.74 6.38 7.16 6.95 8.07 13.92 16.12 20.75 24.29 2.31 2.76 4.49 5.71 6.25 8.84 3.94 6.98 6.27 14.45 5.88 22.6-0.54 11.49-0.66 23.01-1.73 34.45-0.71 7.46-0.66 14.9-1.09 22.33-0.63 11.02 1.35 21.67 4.37 32.17 3.84 13.35 10.76 24.95 20.17 35.16 7.61 8.26 16.38 14.87 26.5 19.74 7.91 3.8 16.05 6.89 24.72 8.42 2.51 0.44 5.11 0.33 7.62 0.78 11.55 2.05 22.96 0.7 34.28-1.49 10.73-2.07 20.73-6.49 30.86-10.43 11.12-4.33 22.2-8.76 33.35-13.03 2.57-0.99 5.29-1.87 8-2.14 11.6-1.11 22.97-0.1 33.93 4.22 15.48 6.09 30.99 12.08 46.49 18.1 9.24 3.6 18.91 4.99 28.73 5.62 6.21 0.39 12.32-0.62 18.47-1.18 4.28-0.38 8.43-1.2 12.53-2.36 8.26-2.33 16.13-5.67 23.48-10.02 12.48-7.39 22.62-17.26 30.47-29.53 7.12-11.14 11.6-23.22 14.08-37.28z"/>
	<g id="Layer 1">
	</g>
</svg>